<?xml version="1.0" encoding="UTF-8" standalone="no"?>
<!-- Created with Inkscape (http://www.inkscape.org/) -->

<svg
   xmlns:dc="http://purl.org/dc/elements/1.1/"
   xmlns:cc="http://creativecommons.org/ns#"
   xmlns:rdf="http://www.w3.org/1999/02/22-rdf-syntax-ns#"
   xmlns:svg="http://www.w3.org/2000/svg"
   xmlns="http://www.w3.org/2000/svg"
   version="1.1"
   width="100%"
   height="100%"
   viewBox="0 0 18 18"
   id="svg2">
  <metadata
     id="metadata8">
    <rdf:RDF>
      <cc:Work
         rdf:about="">
        <dc:format>image/svg+xml</dc:format>
        <dc:type
           rdf:resource="http://purl.org/dc/dcmitype/StillImage" />
        <dc:title></dc:title>
      </cc:Work>
    </rdf:RDF>
  </metadata>
  <defs
     id="defs6" />
  <rect
     width="18"
     height="18"
     x="0"
     y="0"
     id="canvas"
     style="fill:none;stroke:none;visibility:hidden" />
  <g
     id="castle-stately">
    <path
       d="M 3,3 2,4.5 2,5 7,5 7,4.5 6,3 z M 12,3 11,4.5 11,5 16,5 16,4.5 15,3 z m -10,3 0,9 5,0 c 0,-1 0,-3 2,-3 2,0 2,2 2,3 l 5,0 0,-9 -5,0 0,2 L 9,8 7,8 7,6 z M 4,9 C 4,8.7711864 4,8 4.5,8 5,8 5,8.7521186 5,9 l 0,1 -1,0 z m 9,0 C 13,8.7711864 13,8 13.5,8 14,8 14,8.7521186 14,9 l 0,1 -1,0 z"
       id="halo"
       style="opacity:0.3;fill:#ffffff;fill-opacity:1;stroke:#ffffff;stroke-width:2;stroke-miterlimit:4;stroke-opacity:1;stroke-dasharray:none" />
    <path
       d="M 3,3 2,4.5 2,5 7,5 7,4.5 6,3 z M 12,3 11,4.5 11,5 16,5 16,4.5 15,3 z m -10,3 0,9 5,0 c 0,-1 0,-3 2,-3 2,0 2,2 2,3 l 5,0 0,-9 -5,0 0,2 L 9,8 7,8 7,6 z M 4,9 C 4,8.7711864 4,8 4.5,8 5,8 5,8.7521186 5,9 l 0,1 -1,0 z m 9,0 C 13,8.7711864 13,8 13.5,8 14,8 14,8.7521186 14,9 l 0,1 -1,0 z"
       id="icon"
       style="fill:#1a1a1a;fill-opacity:1;stroke:none" />
  </g>
</svg>
