<?xml version="1.0" encoding="UTF-8" standalone="no"?>
<!-- Created with Inkscape (http://www.inkscape.org/) -->

<svg
   xmlns:dc="http://purl.org/dc/elements/1.1/"
   xmlns:cc="http://creativecommons.org/ns#"
   xmlns:rdf="http://www.w3.org/1999/02/22-rdf-syntax-ns#"
   xmlns:svg="http://www.w3.org/2000/svg"
   xmlns="http://www.w3.org/2000/svg"
   xmlns:sodipodi="http://sodipodi.sourceforge.net/DTD/sodipodi-0.dtd"
   xmlns:inkscape="http://www.inkscape.org/namespaces/inkscape"
   version="1.1"
   width="100%"
   height="100%"
   viewBox="0 0 14 14"
   id="svg2"
   inkscape:version="0.91 r13725"
   sodipodi:docname="castle-ruins.svg">
  <sodipodi:namedview
     pagecolor="#ffffff"
     bordercolor="#666666"
     borderopacity="1"
     objecttolerance="10"
     gridtolerance="10"
     guidetolerance="10"
     inkscape:pageopacity="0"
     inkscape:pageshadow="2"
     inkscape:window-width="1600"
     inkscape:window-height="848"
     id="namedview7"
     showgrid="false"
     inkscape:zoom="33.714286"
     inkscape:cx="5.9776974"
     inkscape:cy="8.0949792"
     inkscape:window-x="-8"
     inkscape:window-y="-8"
     inkscape:window-maximized="1"
     inkscape:current-layer="svg2" />
  <metadata
     id="metadata8">
    <rdf:RDF>
      <cc:Work
         rdf:about="">
        <dc:format>image/svg+xml</dc:format>
        <dc:type
           rdf:resource="http://purl.org/dc/dcmitype/StillImage" />
        <dc:title></dc:title>
      </cc:Work>
    </rdf:RDF>
  </metadata>
  <defs
     id="defs6" />
  <rect
     width="14"
     height="14"
     x="0"
     y="0"
     id="canvas"
     style="fill:none;stroke:none;visibility:hidden" />
  <path
     d="M 0,1 0,3 4,3 4,2 3,2 3,1 2,1 2,2 1,2 1,1 Z m 1,4 -1,0 0,8 4,0 c 0,-1 -0.2288136,-3 1,-3 1.2288136,0 1,2 1,3 l 5,0 0,-1 L 9,12 9,10 8,10 8,9 6,9 6,8 5,8 5,6 5,5 4,5 4,4 1,4 Z M 2.5,6 C 2.7357023,6 3,6.2642977 3,6.5 L 3,8 C 2.6666667,8 2.3333333,8 2,8 L 2,6.5 C 2,6.2642977 2.2642977,6 2.5,6 Z"
     id="castle-fortress"
     style="fill:#000000;fill-opacity:1;stroke:none"
     inkscape:connector-curvature="0"
     sodipodi:nodetypes="ccccccccccccccczcccccccccccccccczsccsz" />
</svg>
