<?xml version="1.0" encoding="UTF-8" standalone="no"?>
<!-- Created with Inkscape (http://www.inkscape.org/) -->

<svg
   xmlns:dc="http://purl.org/dc/elements/1.1/"
   xmlns:cc="http://creativecommons.org/ns#"
   xmlns:rdf="http://www.w3.org/1999/02/22-rdf-syntax-ns#"
   xmlns:svg="http://www.w3.org/2000/svg"
   xmlns="http://www.w3.org/2000/svg"
   version="1.1"
   width="100%"
   height="100%"
   viewBox="0 0 18 18"
   id="svg2">
  <metadata
     id="metadata8">
    <rdf:RDF>
      <cc:Work
         rdf:about="">
        <dc:format>image/svg+xml</dc:format>
        <dc:type
           rdf:resource="http://purl.org/dc/dcmitype/StillImage" />
        <dc:title></dc:title>
      </cc:Work>
    </rdf:RDF>
  </metadata>
  <defs
     id="defs6" />
  <rect
     width="18"
     height="18"
     x="0"
     y="0"
     id="canvas"
     style="fill:none;stroke:none;visibility:hidden" />
  <g
     id="castle-defensive">
    <path
       d="M 4,3 2,5.5 2,6 7,6 7,5.5 5,3 4,3 z m 7,1 0,2 5,0 0,-2 -1.5,0 0,1 -2,0 0,-1 -1.5,0 z m -9,3 0,8 5.5,0 c 0,-1 0.5,-2 1.5,-2 1,0 1.5,1 1.5,2 L 16,15 16,7 11,7 11,9 9,8 7,9 7,7 2,7 z M 4.5,8 C 5.0123528,8 5,8.6752871 5,9 L 5,10 4,10 4,9 C 4,8.6752871 4.0146131,8 4.5,8 z M 13,8 14,8 14,9 13.5,10 13,9 13,8 z"
       id="halo"
       style="opacity:0.3;fill:#ffffff;fill-opacity:1;stroke:#ffffff;stroke-width:2;stroke-miterlimit:4;stroke-opacity:1;stroke-dasharray:none" />
    <path
       d="M 4,3 2,5.5 2,6 7,6 7,5.5 5,3 4,3 z m 7,1 0,2 5,0 0,-2 -1.5,0 0,1 -2,0 0,-1 -1.5,0 z m -9,3 0,8 5.5,0 c 0,-1 0.5,-2 1.5,-2 1,0 1.5,1 1.5,2 L 16,15 16,7 11,7 11,9 9,8 7,9 7,7 2,7 z M 4.5,8 C 5.012353,8 5,8.6752871 5,9 L 5,10 4,10 4,9 C 4,8.6752871 4.01461,8 4.5,8 z M 13,8 14,8 14,9 13.5,10 13,9 13,8 z"
       id="icon"
       style="fill:#1a1a1a;fill-opacity:1;stroke:none" />
  </g>
</svg>
