<?xml version="1.0" encoding="UTF-8" standalone="no"?>
<!-- Created with Inkscape (http://www.inkscape.org/) -->

<svg
   xmlns:dc="http://purl.org/dc/elements/1.1/"
   xmlns:cc="http://creativecommons.org/ns#"
   xmlns:rdf="http://www.w3.org/1999/02/22-rdf-syntax-ns#"
   xmlns:svg="http://www.w3.org/2000/svg"
   xmlns="http://www.w3.org/2000/svg"
   version="1.1"
   width="100%"
   height="100%"
   viewBox="0 0 18 18"
   id="svg2">
  <metadata
     id="metadata8">
    <rdf:RDF>
      <cc:Work
         rdf:about="">
        <dc:format>image/svg+xml</dc:format>
        <dc:type
           rdf:resource="http://purl.org/dc/dcmitype/StillImage" />
        <dc:title></dc:title>
      </cc:Work>
    </rdf:RDF>
  </metadata>
  <defs
     id="defs6" />
  <rect
     width="18"
     height="18"
     x="0"
     y="0"
     id="canvas"
     style="fill:none;stroke:none;visibility:hidden" />
  <g
     id="information">
    <path
       d="M 9,2 C 7.8954306,2 7,2.8954306 7,4 7,5.1045694 7.8954306,6 9,6 10.104569,6 11,5.1045694 11,4 11,2.8954306 10.104569,2 9,2 z m -4,5 0,2 2,0 0,5 -2,0 0,2 8,0 0,-2 -2,0 0,-7 -6,0 z"
       id="halo"
       style="opacity:0.3;fill:#ffffff;fill-opacity:1;stroke:#ffffff;stroke-width:2;stroke-miterlimit:4;stroke-opacity:1;stroke-dasharray:none" />
    <path
       d="M 9,2 C 7.895431,2 7,2.895431 7,4 7,5.104569 7.895431,6 9,6 10.104569,6 11,5.104569 11,4 11,2.895431 10.104569,2 9,2 z m -4,5 0,2 2,0 0,5 -2,0 0,2 8,0 0,-2 -2,0 0,-7 -6,0 z"
       id="icon"
       style="fill:#1a1a1a;fill-opacity:1;stroke:none" />
  </g>
</svg>
