<?xml version="1.0" encoding="UTF-8" standalone="no"?>
<!-- Created with Inkscape (http://www.inkscape.org/) -->

<svg
   xmlns:dc="http://purl.org/dc/elements/1.1/"
   xmlns:cc="http://creativecommons.org/ns#"
   xmlns:rdf="http://www.w3.org/1999/02/22-rdf-syntax-ns#"
   xmlns:svg="http://www.w3.org/2000/svg"
   xmlns="http://www.w3.org/2000/svg"
   version="1.1"
   width="100%"
   height="100%"
   viewBox="0 0 12 12"
   id="svg2">
  <metadata
     id="metadata8">
    <rdf:RDF>
      <cc:Work
         rdf:about="">
        <dc:format>image/svg+xml</dc:format>
        <dc:type
           rdf:resource="http://purl.org/dc/dcmitype/StillImage" />
        <dc:title></dc:title>
      </cc:Work>
    </rdf:RDF>
  </metadata>
  <defs
     id="defs6" />
  <rect
     width="12"
     height="12"
     x="0"
     y="0"
     id="canvas"
     style="fill:none;stroke:none;visibility:hidden" />
  <path
     d="M 2,2 C 1.4175752,2 1,2.5446938 1,3 l 0,6 c 0,0.4387825 0.5237202,1 1,1 l 8,0 c 0.494081,0 1,-0.489396 1,-1 L 11,3 C 11,2.4595222 10.48963,2 10,2 z M 4,7 8,7 8,8 4,8 z M 5,3 7,3 7,4 5,4 z M 3,5 9,5 9,6 3,6 z"
     id="memorial"
     style="fill:#000000;fill-opacity:1;stroke:none" />
</svg>
