<?xml version="1.0" encoding="UTF-8" standalone="no"?>
<!-- Created with Inkscape (http://www.inkscape.org/) -->

<svg
   xmlns:dc="http://purl.org/dc/elements/1.1/"
   xmlns:cc="http://creativecommons.org/ns#"
   xmlns:rdf="http://www.w3.org/1999/02/22-rdf-syntax-ns#"
   xmlns:svg="http://www.w3.org/2000/svg"
   xmlns="http://www.w3.org/2000/svg"
   version="1.1"
   width="100%"
   height="100%"
   viewBox="0 0 16 16"
   id="svg2">
  <metadata
     id="metadata8">
    <rdf:RDF>
      <cc:Work
         rdf:about="">
        <dc:format>image/svg+xml</dc:format>
        <dc:type
           rdf:resource="http://purl.org/dc/dcmitype/StillImage" />
        <dc:title></dc:title>
      </cc:Work>
    </rdf:RDF>
  </metadata>
  <defs
     id="defs6" />
  <rect
     width="16"
     height="16"
     x="0"
     y="0"
     id="canvas"
     style="fill:none;stroke:none;visibility:hidden" />
  <path
     d="m 1,1 0,7 c 0,0 0,4 4,4 0.5,0 0.9296875,-0.04687 1.3125,-0.15625 C 6.2283859,11.345601 6.25,11 6.25,11 l 0,-1.5 -3.75,0 C 2.5,8.5 3.4576271,7.0000004 5,7 c 0.474305,-1e-7 0.8902873,0.1671929 1.25,0.40625 L 6.25,2.75 C 7.2926471,3.2983294 8.1881495,3.671956 9,3.90625 L 9,1 C 6,2.3389831 4,2.3389831 1,1 z M 3,4 C 3.5522847,4 4,4.4477153 4,5 4,5.5522847 3.5522847,6 3,6 2.4477153,6 2,5.5522847 2,5 2,4.4477153 2.4477153,4 3,4 z m 4,0 0,7 c 0,0 0,4 4,4 4,0 4,-4 4,-4 L 15,4 C 12,5.3728814 10,5.3050847 7,4 z M 9,7 C 9.5522847,7 10,7.4477153 10,8 10,8.5522847 9.5522847,9 9,9 8.4477153,9 8,8.5522847 8,8 8,7.4477153 8.4477153,7 9,7 z m 4,0 c 0.552285,0 1,0.4477153 1,1 0,0.5522847 -0.447715,1 -1,1 -0.552285,0 -1,-0.4477153 -1,-1 0,-0.5522847 0.447715,-1 1,-1 z m -4.5,4 5,0 c 0,1 -1.059438,2.495445 -2.5,2.5 C 9.4236456,13.504984 8.5,12 8.5,11 z"
     id="theatre"
     style="fill:#1a1a1a;fill-opacity:1;stroke:none" />
</svg>
