<?xml version="1.0" encoding="UTF-8" standalone="no"?>
<!-- Created with Inkscape (http://www.inkscape.org/) -->

<svg
   xmlns:dc="http://purl.org/dc/elements/1.1/"
   xmlns:cc="http://creativecommons.org/ns#"
   xmlns:rdf="http://www.w3.org/1999/02/22-rdf-syntax-ns#"
   xmlns:svg="http://www.w3.org/2000/svg"
   xmlns="http://www.w3.org/2000/svg"
   version="1.1"
   width="100%"
   height="100%"
   viewBox="0 0 14 14"
   id="svg2">
  <metadata
     id="metadata8">
    <rdf:RDF>
      <cc:Work
         rdf:about="">
        <dc:format>image/svg+xml</dc:format>
        <dc:type
           rdf:resource="http://purl.org/dc/dcmitype/StillImage" />
        <dc:title></dc:title>
      </cc:Work>
    </rdf:RDF>
  </metadata>
  <defs
     id="defs6" />
  <rect
     width="14"
     height="14"
     x="0"
     y="0"
     id="canvas"
     style="fill:none;stroke:none;visibility:hidden" />
  <path
     d="M 2.71875,0 1,1.71875 5.96875,6 1,10.28125 2.71875,12 7,7.03125 11.28125,12 13,10.28125 8.03125,6 13,1.71875 11.28125,0 7,4.96875 2.71875,0 z M 7,1 C 6.3108309,1 5.7641921,1.1944929 5.3125,1.46875 L 7,3.4375 8.6875,1.46875 C 8.2358079,1.1942974 7.6891691,1 7,1 z M 7,5.5 C 7.2761424,5.5 7.5,5.7238576 7.5,6 7.5,6.2761424 7.2761424,6.5 7,6.5 6.7238576,6.5 6.5,6.2761424 6.5,6 6.5,5.7238576 6.7238576,5.5 7,5.5 z M 3.90625,5.5625 C 3.8847805,5.8616408 3.8457691,6.1883157 3.8125,6.53125 L 4.4375,6 3.90625,5.5625 z m 6.1875,0 L 9.5625,6 10.1875,6.53125 C 10.154231,6.1883157 10.11522,5.8616408 10.09375,5.5625 z M 7,8.5625 3.46875,12.65625 2.78125,13.46875 2.28125,14 11.6875,14 11.21875,13.46875 10.53125,12.65625 7,8.5625 z"
     id="windmill"
     style="fill:#000000;fill-opacity:1;stroke:none" />
</svg>
