<?xml version="1.0" encoding="UTF-8" standalone="no"?>
<!-- Created with Inkscape (http://www.inkscape.org/) -->

<svg
   xmlns:dc="http://purl.org/dc/elements/1.1/"
   xmlns:cc="http://creativecommons.org/ns#"
   xmlns:rdf="http://www.w3.org/1999/02/22-rdf-syntax-ns#"
   xmlns:svg="http://www.w3.org/2000/svg"
   xmlns="http://www.w3.org/2000/svg"
   version="1.1"
   width="16"
   height="16"
   id="svg2">
  <title
     id="title3759">Hospital</title>
  <defs
     id="defs4" />
  <metadata
     id="metadata7">
    <rdf:RDF>
      <cc:Work
         rdf:about="">
        <dc:format>image/svg+xml</dc:format>
        <dc:type
           rdf:resource="http://purl.org/dc/dcmitype/StillImage" />
        <dc:title>Hospital</dc:title>
        <dc:creator>
          <cc:Agent>
            <dc:title>nebulon42</dc:title>
          </cc:Agent>
        </dc:creator>
        <dc:rights>
          <cc:Agent>
            <dc:title />
          </cc:Agent>
        </dc:rights>
        <cc:license
           rdf:resource="http://creativecommons.org/licenses/publicdomain/" />
        <dc:contributor>
          <cc:Agent>
            <dc:title>twain47</dc:title>
          </cc:Agent>
        </dc:contributor>
      </cc:Work>
      <cc:License
         rdf:about="http://creativecommons.org/licenses/publicdomain/">
        <cc:permits
           rdf:resource="http://creativecommons.org/ns#Reproduction" />
        <cc:permits
           rdf:resource="http://creativecommons.org/ns#Distribution" />
        <cc:permits
           rdf:resource="http://creativecommons.org/ns#DerivativeWorks" />
      </cc:License>
    </rdf:RDF>
  </metadata>
  <path
     d="m 6,3 4,0 0,3 3,0 0,4 -3,0 0,3 -4,0 0,-3 -3,0 0,-4 3,0 z"
     id="path2989"
     style="fill:#000000;fill-opacity:1;stroke:none" />
  <path
     d="m 8.0099615,-0.01621034 c -4.2302771,0 -8.02031246,3.79003494 -8.02031246,8.02031254 0,4.2302778 3.79003536,7.9857418 8.02031246,7.9857418 4.2302765,0 7.9857425,-3.755464 7.9857425,-7.9857418 0,-4.2302776 -3.755466,-8.02031254 -7.9857425,-8.02031254 z m 0,1.00253906 c 3.6237045,0 6.9832035,3.39406888 6.9832035,7.01777348 0,3.6237048 -3.359499,6.9832028 -6.9832035,6.9832028 -3.6237047,0 -7.0177734,-3.359498 -7.0177734,-6.9832028 0,-3.6237046 3.3940687,-7.01777348 7.0177734,-7.01777348 z"
     id="path2985"
     style="font-size:medium;font-style:normal;font-variant:normal;font-weight:normal;font-stretch:normal;text-indent:0;text-align:start;text-decoration:none;line-height:normal;letter-spacing:normal;word-spacing:normal;text-transform:none;direction:ltr;block-progression:tb;writing-mode:lr-tb;text-anchor:start;baseline-shift:baseline;color:#000000;fill:#000000;fill-opacity:1;stroke:none;stroke-width:0.90395486;marker:none;visibility:visible;display:inline;overflow:visible;enable-background:accumulate;font-family:Sans;-inkscape-font-specification:Sans" />
</svg>
