<?xml version="1.0" encoding="UTF-8" standalone="no"?>
<!-- Created with Inkscape (http://www.inkscape.org/) -->

<svg
   xmlns:dc="http://purl.org/dc/elements/1.1/"
   xmlns:cc="http://creativecommons.org/ns#"
   xmlns:rdf="http://www.w3.org/1999/02/22-rdf-syntax-ns#"
   xmlns:svg="http://www.w3.org/2000/svg"
   xmlns="http://www.w3.org/2000/svg"
   xmlns:sodipodi="http://sodipodi.sourceforge.net/DTD/sodipodi-0.dtd"
   xmlns:inkscape="http://www.inkscape.org/namespaces/inkscape"
   width="200"
   height="200"
   id="svg2"
   version="1.1"
   inkscape:version="0.48.4 r9939"
   sodipodi:docname="icons.svg">
  <defs
     id="defs4" />
  <sodipodi:namedview
     id="base"
     pagecolor="#ffffff"
     bordercolor="#666666"
     borderopacity="1.0"
     inkscape:pageopacity="0.0"
     inkscape:pageshadow="2"
     inkscape:zoom="15.839192"
     inkscape:cx="97.586936"
     inkscape:cy="28.507441"
     inkscape:document-units="px"
     inkscape:current-layer="layer1"
     showgrid="true"
     inkscape:window-width="1920"
     inkscape:window-height="1023"
     inkscape:window-x="0"
     inkscape:window-y="0"
     inkscape:window-maximized="1"
     showguides="true"
     inkscape:guide-bbox="true">
    <inkscape:grid
       type="xygrid"
       id="grid2985"
       empspacing="5"
       visible="true"
       enabled="true"
       snapvisiblegridlinesonly="true" />
  </sodipodi:namedview>
  <metadata
     id="metadata7">
    <rdf:RDF>
      <cc:Work
         rdf:about="">
        <dc:format>image/svg+xml</dc:format>
        <dc:type
           rdf:resource="http://purl.org/dc/dcmitype/StillImage" />
        <dc:title />
      </cc:Work>
    </rdf:RDF>
  </metadata>
  <g
     inkscape:groupmode="layer"
     id="layer2"
     inkscape:label="Outlines"
     style="display:none"
     transform="translate(0,96)"
     sodipodi:insensitive="true">
    <rect
       style="fill:#e6e6e6;fill-opacity:1;stroke:none"
       id="rect3094"
       width="16"
       height="16"
       x="8"
       y="-88.000031" />
    <rect
       y="-88.000031"
       x="32"
       height="16"
       width="16"
       id="rect3096"
       style="fill:#e6e6e6;fill-opacity:1;stroke:none" />
    <rect
       style="fill:#e6e6e6;fill-opacity:1;stroke:none"
       id="rect3142"
       width="16"
       height="16"
       x="56"
       y="-88.000031" />
    <rect
       y="-88.000031"
       x="80"
       height="16"
       width="16"
       id="rect3144"
       style="fill:#e6e6e6;fill-opacity:1;stroke:none" />
    <rect
       style="fill:#e6e6e6;fill-opacity:1;stroke:none"
       id="rect3190"
       width="16"
       height="16"
       x="104"
       y="-88.000031" />
    <rect
       y="-88.000031"
       x="128"
       height="16"
       width="16"
       id="rect3236"
       style="fill:#e6e6e6;fill-opacity:1;stroke:none" />
    <rect
       style="fill:#e6e6e6;fill-opacity:1;stroke:none"
       id="rect3282"
       width="16"
       height="16"
       x="152"
       y="-88.000031" />
    <rect
       y="-88.000031"
       x="176"
       height="16"
       width="16"
       id="rect3347"
       style="fill:#e6e6e6;fill-opacity:1;stroke:none" />
    <rect
       y="-64.000031"
       x="8"
       height="16"
       width="16"
       id="rect3393"
       style="fill:#e6e6e6;fill-opacity:1;stroke:none" />
    <rect
       style="fill:#e6e6e6;fill-opacity:1;stroke:none"
       id="rect3395"
       width="16"
       height="16"
       x="32"
       y="-64.000031" />
    <rect
       y="-64.000031"
       x="56"
       height="16"
       width="16"
       id="rect3397"
       style="fill:#e6e6e6;fill-opacity:1;stroke:none" />
    <rect
       style="fill:#e6e6e6;fill-opacity:1;stroke:none"
       id="rect3399"
       width="16"
       height="16"
       x="80"
       y="-64.000031" />
    <rect
       y="-64.000031"
       x="104"
       height="16"
       width="16"
       id="rect3401"
       style="fill:#e6e6e6;fill-opacity:1;stroke:none" />
    <rect
       y="-64.000031"
       x="152"
       height="16"
       width="16"
       id="rect3405"
       style="fill:#e6e6e6;fill-opacity:1;stroke:none" />
    <rect
       style="fill:#e6e6e6;fill-opacity:1;stroke:none"
       id="rect3407"
       width="16"
       height="16"
       x="176"
       y="-64.000031" />
    <rect
       style="fill:#e6e6e6;fill-opacity:1;stroke:none"
       id="rect3837"
       width="16"
       height="16"
       x="8"
       y="-40.000031" />
    <rect
       y="-40.000031"
       x="32"
       height="16"
       width="16"
       id="rect3839"
       style="fill:#e6e6e6;fill-opacity:1;stroke:none" />
    <rect
       style="fill:#e6e6e6;fill-opacity:1;stroke:none"
       id="rect3841"
       width="16"
       height="16"
       x="56"
       y="-40.000031" />
    <rect
       y="-40.000031"
       x="80"
       height="16"
       width="16"
       id="rect3843"
       style="fill:#e6e6e6;fill-opacity:1;stroke:none" />
    <rect
       style="fill:#e6e6e6;fill-opacity:1;stroke:none"
       id="rect3845"
       width="16"
       height="16"
       x="104"
       y="-40.000031" />
    <rect
       y="-40.000031"
       x="128"
       height="16"
       width="16"
       id="rect3847"
       style="fill:#e6e6e6;fill-opacity:1;stroke:none" />
    <rect
       style="fill:#e6e6e6;fill-opacity:1;stroke:none"
       id="rect3849"
       width="16"
       height="16"
       x="152"
       y="-40.000031" />
    <rect
       y="-40.000031"
       x="176"
       height="16"
       width="16"
       id="rect3851"
       style="fill:#e6e6e6;fill-opacity:1;stroke:none" />
    <rect
       y="-16.000031"
       x="8"
       height="16"
       width="16"
       id="rect4224"
       style="fill:#e6e6e6;fill-opacity:1;stroke:none" />
    <rect
       style="fill:#e6e6e6;fill-opacity:1;stroke:none"
       id="rect4226"
       width="16"
       height="16"
       x="32"
       y="-16.000031" />
    <rect
       y="-16.000031"
       x="56"
       height="16"
       width="16"
       id="rect4228"
       style="fill:#e6e6e6;fill-opacity:1;stroke:none" />
    <rect
       style="fill:#e6e6e6;fill-opacity:1;stroke:none"
       id="rect4230"
       width="16"
       height="16"
       x="80"
       y="-16.000031" />
    <rect
       y="-16.000031"
       x="104"
       height="16"
       width="16"
       id="rect4232"
       style="fill:#e6e6e6;fill-opacity:1;stroke:none" />
    <rect
       style="fill:#e6e6e6;fill-opacity:1;stroke:none"
       id="rect4234"
       width="16"
       height="16"
       x="128"
       y="-16.000031" />
    <rect
       y="-16.000031"
       x="152"
       height="16"
       width="16"
       id="rect4236"
       style="fill:#e6e6e6;fill-opacity:1;stroke:none" />
    <rect
       style="fill:#e6e6e6;fill-opacity:1;stroke:none"
       id="rect4238"
       width="16"
       height="16"
       x="176"
       y="-16.000031" />
    <rect
       style="fill:#e6e6e6;fill-opacity:1;stroke:none"
       id="rect3403"
       width="16"
       height="16"
       x="128"
       y="-64.000031" />
    <rect
       style="fill:#e6e6e6;fill-opacity:1;stroke:none"
       id="rect3048"
       width="16"
       height="16"
       x="8"
       y="7.99997" />
    <rect
       y="7.99997"
       x="32"
       height="16"
       width="16"
       id="rect3050"
       style="fill:#e6e6e6;fill-opacity:1;stroke:none" />
    <rect
       style="fill:#e6e6e6;fill-opacity:1;stroke:none"
       id="rect3052"
       width="16"
       height="16"
       x="56"
       y="7.99997" />
    <rect
       y="7.99997"
       x="80"
       height="16"
       width="16"
       id="rect3054"
       style="fill:#e6e6e6;fill-opacity:1;stroke:none" />
    <rect
       style="fill:#e6e6e6;fill-opacity:1;stroke:none"
       id="rect3056"
       width="16"
       height="16"
       x="104"
       y="7.99997" />
    <rect
       y="7.99997"
       x="128"
       height="16"
       width="16"
       id="rect3058"
       style="fill:#e6e6e6;fill-opacity:1;stroke:none" />
    <rect
       style="fill:#e6e6e6;fill-opacity:1;stroke:none"
       id="rect3060"
       width="16"
       height="16"
       x="152"
       y="7.99997" />
    <rect
       y="7.99997"
       x="176"
       height="16"
       width="16"
       id="rect3062"
       style="fill:#e6e6e6;fill-opacity:1;stroke:none" />
    <rect
       y="31.999969"
       x="8"
       height="16"
       width="16"
       id="rect3481"
       style="fill:#e6e6e6;fill-opacity:1;stroke:none" />
    <rect
       style="fill:#e6e6e6;fill-opacity:1;stroke:none"
       id="rect3483"
       width="16"
       height="16"
       x="32"
       y="31.999969" />
    <rect
       y="31.999969"
       x="56"
       height="16"
       width="16"
       id="rect3485"
       style="fill:#e6e6e6;fill-opacity:1;stroke:none" />
    <rect
       style="fill:#e6e6e6;fill-opacity:1;stroke:none"
       id="rect3487"
       width="16"
       height="16"
       x="80"
       y="31.999969" />
    <rect
       y="31.999969"
       x="104"
       height="16"
       width="16"
       id="rect3489"
       style="fill:#e6e6e6;fill-opacity:1;stroke:none" />
    <rect
       style="fill:#e6e6e6;fill-opacity:1;stroke:none"
       id="rect3491"
       width="16"
       height="16"
       x="128"
       y="31.999969" />
    <rect
       y="31.999969"
       x="152"
       height="16"
       width="16"
       id="rect3493"
       style="fill:#e6e6e6;fill-opacity:1;stroke:none" />
    <rect
       style="fill:#e6e6e6;fill-opacity:1;stroke:none"
       id="rect3495"
       width="16"
       height="16"
       x="176"
       y="31.999969" />
    <rect
       style="fill:#e6e6e6;fill-opacity:1;stroke:none"
       id="rect3105"
       width="16"
       height="16"
       x="8"
       y="55.999969" />
    <rect
       y="55.999969"
       x="32"
       height="16"
       width="16"
       id="rect3107"
       style="fill:#e6e6e6;fill-opacity:1;stroke:none" />
    <rect
       style="fill:#e6e6e6;fill-opacity:1;stroke:none"
       id="rect3109"
       width="16"
       height="16"
       x="56"
       y="55.999969" />
    <rect
       y="55.999969"
       x="80"
       height="16"
       width="16"
       id="rect3111"
       style="fill:#e6e6e6;fill-opacity:1;stroke:none" />
    <rect
       style="fill:#e6e6e6;fill-opacity:1;stroke:none"
       id="rect3113"
       width="16"
       height="16"
       x="104"
       y="55.999969" />
    <rect
       y="55.999969"
       x="128"
       height="16"
       width="16"
       id="rect3115"
       style="fill:#e6e6e6;fill-opacity:1;stroke:none" />
    <rect
       style="fill:#e6e6e6;fill-opacity:1;stroke:none"
       id="rect3117"
       width="16"
       height="16"
       x="152"
       y="55.999969" />
    <rect
       y="55.999969"
       x="176"
       height="16"
       width="16"
       id="rect3119"
       style="fill:#e6e6e6;fill-opacity:1;stroke:none" />
    <rect
       y="80"
       x="8"
       height="16"
       width="16"
       id="rect3139"
       style="fill:#e6e6e6;fill-opacity:1;stroke:none" />
    <rect
       style="fill:#e6e6e6;fill-opacity:1;stroke:none"
       id="rect3141"
       width="16"
       height="16"
       x="32"
       y="80" />
    <rect
       y="80"
       x="56"
       height="16"
       width="16"
       id="rect3143"
       style="fill:#e6e6e6;fill-opacity:1;stroke:none" />
    <rect
       style="fill:#e6e6e6;fill-opacity:1;stroke:none"
       id="rect3145"
       width="16"
       height="16"
       x="80"
       y="80" />
    <rect
       y="80"
       x="104"
       height="16"
       width="16"
       id="rect3147"
       style="fill:#e6e6e6;fill-opacity:1;stroke:none" />
    <rect
       style="fill:#e6e6e6;fill-opacity:1;stroke:none"
       id="rect3149"
       width="16"
       height="16"
       x="128"
       y="80" />
    <rect
       y="80"
       x="152"
       height="16"
       width="16"
       id="rect3151"
       style="fill:#e6e6e6;fill-opacity:1;stroke:none" />
    <rect
       style="fill:#e6e6e6;fill-opacity:1;stroke:none"
       id="rect3153"
       width="16"
       height="16"
       x="176"
       y="80" />
  </g>
  <g
     inkscape:label="Icons"
     inkscape:groupmode="layer"
     id="layer1"
     transform="translate(0,-852.36217)"
     style="display:inline">
    <path
       style="fill:#1a1a1a;fill-opacity:1;stroke:none"
       id="path2987"
       d="m 180,861.36213 c -0.61017,0 -1,0.38983 -1,1 l 0,10 2.27229,0 1.72771,-4 z m 2,0 3,7 -1.706,4 5.706,0 0,-10 c 0,-0.61017 -0.47458,-1 -1,-1 z m -4,10 c -0.51138,0 -1,0.48571 -1,1 l 0,2 c 0,0.54237 0.49152,1 1,1 l 12,0 c 0.54237,0 1,-0.45763 1,-1 l 0,-2 c 0,-0.55932 -0.48862,-1 -1,-1 l 0,2 -12,0 z"
       inkscape:connector-curvature="0" />
    <path
       style="fill:#1a1a1a;fill-opacity:1;stroke:none"
       id="path2987-3"
       d="m 9,887.36214 0,1 7,4 7,-4 0,-1 z m 0,3 0,7 14,0 0,-7 -7,4 z"
       inkscape:connector-curvature="0" />
    <path
       style="color:#000000;fill:#1a1a1a;fill-opacity:1;stroke:none;stroke-width:2;marker:none;visibility:visible;display:inline;overflow:visible;enable-background:accumulate"
       id="rect7805-5-4"
       d="m 62,909.36214 -1,1 0,1 6,0 0,-1 -1,-1 z m -1,3 c -0.0333,0.16873 0,0.33953 0,0.51852 0,1.43184 1.61931,2.48148 3,2.48148 1.38069,0 3,-1.04964 3,-2.48148 0,-0.17899 0,-0.51852 0,-0.51852 z m 0,4 c -1.4189,0 -1.98585,1.87658 -2,3 l 0,4 1.53125,0 5.46875,-7 z m 6.5,0 -5.46875,7 6.96875,0 0,-4 c 0,-1.12353 -0.27284,-3 -1.5,-3 z"
       inkscape:connector-curvature="0" />
    <path
       style="color:#000000;fill:#1a1a1a;fill-opacity:1"
       id="rect13326-2-5-2-3-6"
       d="m 158,888.36213 c -3,0 -4.03996,2.0008 -4,3 l 0,1 12,0 0,-1 c 0,-1 -1,-3 -4,-3 z m -4,5 c -1,0 -1,1 0,1 l 12,0 c 1,0 1,-1 0,-1 z m 0,2.03125 0,0.625 c 0,0.6842 0.81579,1.34375 1.5,1.34375 l 9,0 c 0.68421,0 1.5,-0.65955 1.5,-1.34375 l 0,-0.625 z"
       inkscape:connector-curvature="0" />
    <path
       style="fill:#1a1a1a;fill-opacity:1"
       id="path16925"
       d="m 88,917.36214 c 2,0 2,1 2,3 0,1 -1.00912,3 0,3 1,0 1.75136,-1.14296 2,-3 0.24864,-1.85704 0,-3 0,-4 0,-2 1,-4 1,-5 0,-1 -0.40024,-1.78258 -1,-2 -2,0 -2,1 -4,1 -2,0 -2,-1 -4,-1 -0.5992,0.21742 -1,1 -1,2 0,1 1,3 1,5 0,1 -0.12239,2.57334 0,4 0.12239,1.42666 1,3 2,3 1.0087,0 0,-2 0,-3 0,-2 0,-3 2,-3 z"
       inkscape:connector-curvature="0" />
    <path
       style="fill:#1a1a1a;fill-opacity:1;stroke:none"
       id="rect4125"
       d="m 112,910.36214 c -1.16071,0 -2.33217,0.50471 -3.125,1.5 -0.68749,0.86304 -0.875,1.5 -0.96875,2.5 -2.89616,0.0238 -2.90625,1.08171 -2.90625,8 l 14,0 c 0,-6.91829 -0.0101,-7.97625 -2.90625,-8 -0.0937,-1 -0.29821,-1.6539 -0.96875,-2.5 -0.79035,-0.99727 -1.96429,-1.5 -3.125,-1.5 z m 0,2 c 1.28141,-0.005 2,1 2.0625,2 l -4.125,0 c 0.0625,-1 0.78109,-1.99511 2.0625,-2 z m -1,3 2,0 0,2 2,0 0,2 -2,0 0,2 -2,0 0,-2 -2,0 0,-2 2,0 z"
       inkscape:connector-curvature="0" />
    <path
       style="fill:#1a1a1a;fill-opacity:1;stroke:none"
       id="path2989"
       d="m 135.96875,909.29964 c -3.80542,0 -6.96875,3.10268 -6.96875,7.03125 0,3.92857 3.16333,7.03125 6.96875,7.03125 3.80542,0 6.96875,-3.10268 6.96875,-7.03125 0,-3.92857 -3.16333,-7.03125 -6.96875,-7.03125 z m 0,1.0625 c 3.37428,0 6.03125,2.71762 6.03125,5.96875 0,3.25113 -2.65697,5.96875 -6.03125,5.96875 -3.37428,0 -6.03125,-2.71762 -6.03125,-5.96875 0,-3.25113 2.65697,-5.96875 6.03125,-5.96875 z m -2,0.96875 0,3 -3,0 0,4 3,0 0,3 4,0 0,-3 3,0 0,-4 -3,0 0,-3 -4,0 z"
       inkscape:connector-curvature="0" />
    <path
       style="fill:#1a1a1a;fill-opacity:1;stroke:none"
       id="path4199"
       d="m 157,913.36216 -2,2 0,8 10,0 0,-8 -2,-2 z m 2,2 2,0 0,2 2,0 0,2 -2,0 0,2 -2,0 0,-2 -2,0 0,-2 2,0 z m -2,-6 0,3 6,0 0,-3 z"
       inkscape:connector-curvature="0" />
    <path
       style="fill:#1a1a1a;fill-opacity:1;stroke:none"
       id="path2987-38"
       d="m 9,935.36214 0,7 c 0,0.6272 0.42373,1 1,1 l 11.999999,0 c 0.57627,0 1,-0.4237 1,-1 l 0,-7 -13.999999,0 z m 2.999999,1 8,0 c 0,1 1,2 2,2 l 0,2 c -1,0 -2,1 -2,2 l -8,0 c 0,-1 -1,-2 -1.999999,-2 l 0,-2 c 0.999999,0 1.999999,-1 1.999999,-2 z m 4,1 c -1.65685,0 -3,0.8955 -3,2 0,1.1046 1.34315,2 3,2 1.65686,0 3,-0.8954 3,-2 0,-1.1045 -1.34314,-2 -3,-2 z M 9,943.86214 c 0,1.1266 0.4487,1.5 1,1.5 l 11.999999,0 c 0.55131,0 1,-0.4453 1,-1.5 -0.28813,0.2712 -0.55932,0.5 -1,0.5 l -11.999999,0 c -0.44068,0 -0.72881,-0.2457 -1,-0.5 z"
       inkscape:connector-curvature="0" />
    <path
       style="fill:#1a1a1a;fill-opacity:1;stroke:none"
       id="path2987-5"
       d="m 15.959212,957.38926 c -0.24614,0 -0.48457,0.3251 -0.5,0.9688 -2.89702,0.2545 -5.24369,2.6024 -5.5000003,5.5 -1.2703997,0 -1.2874697,0.9691 0,1 0.2283203,2.9166 2.5848203,5.2193 5.5000003,5.4687 0,1.4047 1,1.3561 1,0 2.93539,-0.2223 5.24644,-2.5319 5.46875,-5.4687 1.39463,0 1.35593,-1 0,-1 -0.24961,-2.9178 -2.55172,-5.2732 -5.46875,-5.5 0,-0.6352 -0.25386,-0.9666 -0.5,-0.9688 z m -0.5,2.2813 0,3.5 -2.46875,-2.4688 c 0.68849,-0.5601 1.53653,-0.9285 2.46875,-1.0312 z m 1,0 c 0.93137,0.099 1.77401,0.4754 2.46875,1.0312 l -2.46875,2.4688 0,-3.5 z m 3.1875,1.7187 c 0.55874,0.6877 0.9282,1.5367 1.03125,2.4688 l -3.5,0 2.46875,-2.4688 z m -7.34375,0.031 2.4375,2.4375 -3.46875,0 c 0.10768,-0.9146 0.48288,-1.7563 1.03125,-2.4375 z m 3.65625,2.1876 c 0.41421,0 0.75,0.3358 0.75,0.75 0,0.4142 -0.33579,0.75 -0.75,0.75 -0.41422,0 -0.75,-0.3358 -0.75,-0.75 0,-0.4142 0.33578,-0.75 0.75,-0.75 z m -4.6875,1.25 3.53125,0 -2.5,2.5 c -0.56383,-0.6972 -0.9343,-1.5589 -1.03125,-2.5 z m 5.84375,0 3.5625,0 c -0.10016,0.952 -0.49367,1.8015 -1.0625,2.5 l -2.5,-2.5 z m -1.65625,0.7187 0,3.5 c -0.93209,-0.103 -1.78111,-0.4725 -2.46875,-1.0312 l 2.46875,-2.4688 z m 1,0 2.46875,2.5 c -0.68769,0.5444 -1.53884,0.9053 -2.46875,1 l 0,-3.5 z"
       inkscape:connector-curvature="0" />
    <path
       style="color:#000000;fill:#1a1a1a;fill-opacity:1"
       id="rect7432-3-9"
       d="m 40,957.36214 c -1,0 -1,1 -1,1 l 0,3 -4,0 0,2 4,0 0,8 2,0 0,-8 4,0 0,-2 -4,0 0,-3 c 0,0 0,-1 -1,-1 z"
       inkscape:connector-curvature="0" />
    <path
       style="fill:#1a1a1a;fill-opacity:1;stroke:none"
       id="path9933"
       d="m 87,959.36214 c 0,0 1.59835,2.8202 4,0.5 0.33098,0.5 1,1.5 1,1.5 0,0 -3.44337,2.3559 -5,-2 z m -5,2 c 0.28862,0.6088 0.66053,1.3573 1,2 0.50445,-1 2,-1 2,-1 1,0 1.73386,0.3918 1.73386,1.0271 0,0.6353 -0.73386,0.9729 -1.73386,0.9729 0,0 0,1 0,1.5 1.31086,-0.2487 2.00263,0.7895 1.68215,1.507 -0.6072,1.3593 -4.17822,1.5196 -5.68215,-1.007 0,3.9878 3.44149,4 4,4 2,0 3,-2 3,-4 0.5208,0.543 1.35486,0.5456 2,0 0.9048,-0.7653 1.2587,-2.0101 2.5,-2 1.51371,0.012 1.5,3 0.5,4 -1,1 -3.39404,0.6447 -4,-1 0,1 0,3.0013 3,3 3,-10e-4 3.60813,-3.384 2.5,-6 -0.68487,-1.6169 -1.96711,-2.0501 -3.34998,-1.6217 -1.06811,0.3309 -1.01923,0.8043 -1.65002,1.6217 -0.32944,0.3957 -0.5,1 -1.5,1 -0.34712,0 -0.77168,-0.2745 -1,-0.5 1.23814,-0.8849 1.0558,-2.5871 0,-3.5 -1.38785,-1.2001 -3.84013,-0.9548 -5,0 z m 6,-2 1,-1 1,1 -1,1 z"
       inkscape:connector-curvature="0" />
    <path
       style="color:#000000;fill:#1a1a1a;fill-opacity:1"
       id="path7552-2-1"
       d="m 135,958.36217 c -3.39042,0 -6,2.6096 -6,6 0,3.3904 2.60958,6 6,6 1.89566,0 3.87391,-0.6497 5,-2 -0.7358,0.479 -2.0566,1 -3,1 -2.59267,0 -5,-2.4073 -5,-5 0,-2.5927 2.40733,-5 5,-5 0.9434,0 2.2642,0.5211 3,1 -1.12609,-1.3502 -3.10434,-2 -5,-2 z m 4.5,3 -1,2 -2.5,0 2,1.5 -1,2.5 2.5,-1.5 2.5,1.5 -1,-2.5 2,-1.5 -2.5,0 -1,-2 z"
       inkscape:connector-curvature="0" />
    <path
       style="fill:#1a1a1a;fill-opacity:1"
       id="path2051"
       d="m 177,957.34647 c 0,1 0.65455,1.6549 1,2 0.34546,0.3451 0.84268,0.2122 0.84268,0.4725 0,0 0.15732,0.5275 0.65732,0.5275 l 1.25,0 c 0,0.2876 0.25,0.5 0.25,0.5 0,0 -0.25,0.1405 -0.25,0.5 l -1.25,0 c -0.5,0 -0.5,0.25 -0.5,0.5 0,0.5273 0,1 0,1 0,0.2397 0.2311,0.5 0.5,0.5 0.2689,0 1.25,0 1.25,0 l 0,1 -0.75,0 c 0,0.406 0.27061,0.7316 0.75,1 0,0.3164 0,5.5 0,5.5 0,0.6587 1.5,0.7158 1.5,0 l 0,-7.5 3.5,0 0,7.5 c 0,0.6918 1.5,0.6439 1.5,0 0,0 0,-5.1836 0,-5.5 0.4794,-0.3116 0.75,-0.5925 0.75,-1 l -0.75,0 0,-1 c 0,0 0.9811,0 1.25,0 0.22096,0 0.5,-0.2603 0.5,-0.5 0,0 0,-0.5 0,-1 0,-0.5 -0.27434,-0.5 -0.5,-0.5 l -1.25,0 c 0.024,-0.2637 -0.25,-0.5 -0.25,-0.5 0,0 0.25,-0.2124 0.25,-0.5 l 1.25,0 c 0.5,0 0.5,-0.5 0.5,-0.5 0,-0.2363 0.58285,-0.1386 1,-0.5 0.41716,-0.3614 1,-1 1,-2 -6,1 -9,1 -14,0 z m 5.25,3 c -1.4e-4,0 1,0 1,0 l 0,1 -1,0 c 0,-0.2876 -0.25,-0.5 -0.25,-0.5 0,0 0.25,-0.1884 0.25,-0.5 z m 2.5,0 1,0 c 0,0.2648 0.25,0.5 0.25,0.5 0,0 -0.25,0.2363 -0.25,0.5 l -1,0 z"
       inkscape:connector-curvature="0" />
    <path
       style="fill:#1a1a1a;fill-opacity:1;stroke:none"
       id="path2978"
       d="m 15.98433,981.36217 -1.00261,1 c 0.0626,0.4367 0.0784,0.7749 0.12533,1.1562 -1.2244,0.3798 -2.13055,1.4976 -2.13055,2.8438 0,1.3565 0.9229,2.4728 2.16188,2.8437 -0.051,0.3761 -0.0854,0.7295 -0.15666,1.1563 l 0.50131,0.5 0,0.4062 c -0.92163,-0.6207 -1.90152,-1.311 -2.50653,-1.9062 -2.03281,-2 -1.49618,-5.5 1.00261,-7 -1.99903,0.5 -3.97911,2.3084 -3.97911,5 0,3 2.9765,4 2.9765,5 l 1.00261,-1 1.2846,0.7187 c -0.61417,0.3796 -1.2846,0.7813 -1.2846,0.7813 l 0.50131,0.5 1.06527,-0.5938 0,0.7188 c -0.32543,0.1652 -0.56397,0.4858 -0.56397,0.875 0,0.5523 0.44889,1 1.00261,1 0.55373,0 1.00261,-0.4477 1.00261,-1 0,-0.3892 -0.2072,-0.7098 -0.53263,-0.875 l 0,-0.7188 1.03394,0.5938 0.50131,-0.5 c 0,0 -0.70672,-0.4427 -1.25327,-0.7813 l 1.25327,-0.7187 1.00261,1 c 0,-1 3.00783,-2 3.00783,-5 0,-2.6916 -2.00522,-4.5 -4.01044,-5 2.50652,1.5 3.04172,5 1.00261,7 -0.6148,0.603 -1.57122,1.3109 -2.50653,1.9375 l 0,-0.4375 0.5013,-0.5 c -0.0692,-0.4143 -0.10655,-0.7749 -0.15665,-1.1563 1.23898,-0.3709 2.16188,-1.4872 2.16188,-2.8437 0,-1.3566 -0.9229,-2.4728 -2.16188,-2.8438 0.0501,-0.3814 0.0874,-0.742 0.15665,-1.1562 l -1.00261,-1 z m 0.72063,3.125 c 0.75333,0.2877 1.2846,1.0224 1.2846,1.875 0,0.8525 -0.53127,1.5872 -1.2846,1.875 -0.12126,-1.2891 -0.12126,-2.461 0,-3.75 z m -1.50392,0.031 c 0.009,0 0.0223,0 0.0313,0 0.13493,1.3899 0.15102,2.4826 0.0313,3.7187 -0.75333,-0.2878 -1.28459,-1.0224 -1.28459,-1.875 0,-0.8284 0.50223,-1.5401 1.22193,-1.8437 z m -1.72323,8.8437 c -0.27687,0 -0.50131,0.2239 -0.50131,0.5 0,0.2762 0.22444,0.5 0.50131,0.5 0.27686,0 0.5013,-0.2238 0.5013,-0.5 0,-0.2761 -0.22444,-0.5 -0.5013,-0.5 z m 5.01305,0 c -0.27686,0 -0.5013,0.2239 -0.5013,0.5 0,0.2762 0.22444,0.5 0.5013,0.5 0.27686,0 0.50131,-0.2238 0.50131,-0.5 0,-0.2761 -0.22445,-0.5 -0.50131,-0.5 z"
       inkscape:connector-curvature="0" />
    <path
       style="fill:#1a1a1a;fill-opacity:1;stroke:none"
       id="path2987-57"
       d="m 40,995.36217 c 3.85808,0 7,-3.1691 7,-7 0,-3.8309 -3.12273,-6.9999 -7,-6.9999 -3.87728,0 -7,3.1398 -7,6.9999 0,3.8601 3.14192,7 7,7 z m 0,-1 c -3.31963,0 -6,-2.6804 -6,-6 0,-3.3196 2.68037,-5.9999 6,-5.9999 3,0 4,5.4793 0,5.9999 -4,0.5206 -2.91526,6 0,6 z m 0,-2 c -0.55229,0 -1,-0.4477 -1,-1 0,-0.5523 0.44771,-1 1,-1 0.55228,0 1,0.4477 1,1 0,0.5523 -0.44772,1 -1,1 z m 0,-6 c 0.55228,0 1,-0.4477 1,-1 0,-0.5523 -0.44772,-1 -1,-1 -0.55229,0 -1,0.4477 -1,1 0,0.5523 0.44771,1 1,1 z"
       inkscape:connector-curvature="0" />
    <path
       style="fill:#1a1a1a;fill-opacity:1;stroke:none"
       id="path2988"
       d="m 184,982.36217 -6,2 0,1 12,0 0,-1 z m -6,4 0,1 1,0 0,5 -1,0 -1,2 14,0 -1,-2 -1,0 0,-5 1,0 0,-1 z m 4,1 c 0.49737,0 1,0.5326 1,1 l 0,4 -2,0 0,-4 c 0,-0.5274 0.50263,-1 1,-1 z m 4,0 c 0.50336,0 1,0.4726 1,1 l 0,4 -2,0 0,-4 c 0,-0.5274 0.49664,-1 1,-1 z"
       inkscape:connector-curvature="0" />
    <path
       style="fill:#1a1a1a;fill-opacity:1;stroke:none;display:inline"
       id="path7712-0"
       d="m 47,1013.3622 0,1 -6,-1 0,3 2,2 0,1 -3,-1 -3,1 0,-1 2,-2 0,-3 -6,1 0,-1 6,-3 0,-3 c 0,-1 0.22222,-2 1,-2 0.77777,0 1,1 1,2 l 0,3 z"
       inkscape:connector-curvature="0" />
    <path
       style="fill:#1a1a1a;fill-opacity:1;stroke:none"
       id="path2987-39"
       d="m 178,909.36216 c -0.54237,0 -1,0.4576 -1,1 l 0,2 c 0,0.5593 0.48862,1 1,1 l 0,-2 12,0 0,2 c 0.51138,0 1,-0.4857 1,-1 l 0,-2 c 0,-0.5424 -0.49152,-1 -1,-1 z m 1,3 0,8 c 0,0.5992 0.40076,1 1,1 l 8,0 c 0.52733,0 1,-0.4487 1,-1 l 0,-8 -1,0 0,6 c -1,0 -2,1 -2,2 l -4,0 c 0,-1 -1,-2 -2,-2 l 0,-6 z m 5,1 c -1.5708,0 -3,0.9528 -3,2 0,1.0472 1.4292,2 3,2 1.5708,0 3,-0.9528 3,-2 0,-1.0472 -1.4292,-2 -3,-2 z m -5,8.5 c 0,1.0547 0.42473,1.5 1,1.5 l 8,0 c 0.52733,0 1,-0.4453 1,-1.5 -0.30508,0.2712 -0.49664,0.4927 -1,0.4688 l -8,0.062 c -0.47939,-0.024 -0.69491,-0.2262 -1,-0.5313 z"
       inkscape:connector-curvature="0" />
    <path
       style="color:#000000;fill:#1a1a1a;fill-opacity:1"
       id="rect9826-2-1-5-9"
       d="m 130,886.36214 0,6 c 0,2 2,3 4.5,3 2.5,0 4.5,-1 4.5,-3 l 2,0 c 1,0 2,-1 2,-2 l 0,-1 c 0,-1 -1,-2 -2,-2 l -2,0 0,-1 z m 9,2.25 1.75,0 c 0.66779,0 1,0.56284 1,1.25 0,0.68716 -0.3882,1.25 -1,1.25 l -1.75,0 z m -10,7.75 c 0,1 1,2 2,2 l 7,0 c 1,0 2,-1 2,-2 z"
       inkscape:connector-curvature="0" />
    <path
       style="fill:#1a1a1a;fill-opacity:1;stroke:none"
       id="path3058"
       d="m 82,886.36214 5.5,6 0,4 c 0,0 -4.5,1 -4.5,2 l 10,0 c 0,-1 -4.5,-2 -4.5,-2 l 0,-4 5.5,-6 z"
       inkscape:connector-curvature="0" />
    <path
       style="fill:#1a1a1a;fill-opacity:1;stroke:none"
       id="path4470"
       d="m 108,885.36214 c -1,0 -2,1 -2,2 l 0,10 c 0,1 -1,2 -1,2 l 11,0 c 0,0 -1,-1 -1,-2 l 3,0 c 1,0 1,-1 1,-1 l 0,-6 c 0,-1 -1,-2 -2,-2 l -2,0 0,-1 c 0,-1.2397 -0.73633,-2 -2,-2 z m 1,1 3,0 c 1.38098,0 2,0.3528 2,1 -3,0 -5.14541,0.1977 -5,3 0,2 -2,2 -2,0 l 0,-2 c 0,-1.5033 0.49663,-2 2,-2 z m 6,3.5 1,0 c 0.69025,0 1.5,0.027 1.5,1.5 l 0,4.5 -2.5,0 z m -8,7.5 7,0 0,1 -7,0 z"
       inkscape:connector-curvature="0" />
    <path
       id="path3252"
       style="color:#000000;fill:#1a1a1a;fill-opacity:1"
       d="m 60.000001,1005.3622 c -1.000001,0 -2.000001,1 -2.000001,2 l 0,10.4844 1,0 c 0,0.5156 0,1.5156 1,1.5156 1,0 1,-1 1,-1.5156 l 6,0.031 c 0,0.4844 0,1.4844 1,1.4844 1,0 1,-1 1,-1.4844 l 1,0 0,-10.5156 c 0,-1 -1,-2 -2,-2 z m 1,1 5.999999,0 0,1 -6,0 z m -1,1.9688 7.999999,0.031 0,4 -8,-0.031 z m 1,6.0312 c 0.55228,0 1,0.4478 1,1 0,0.5523 -0.44772,1 -1,1 -0.55228,0 -1,-0.4477 -1,-1 0,-0.5522 0.44772,-1 1,-1 z m 5.999999,0 c 0.55228,0 1,0.4478 1,1 0,0.5523 -0.44772,1 -1,1 -0.55228,0 -1,-0.4477 -1,-1 0,-0.5522 0.44772,-1 1,-1 z"
       inkscape:connector-curvature="0" />
    <path
       style="fill:#1a1a1a;fill-opacity:1;stroke:none"
       id="path3150"
       d="m 131,1006.3622 1,1 5,0 0,2 -4.71875,0 c -0.35147,-0.3031 -0.78552,-0.5 -1.28125,-0.5 -1.09865,0 -2,0.9014 -2,2 0,1.0987 0.90135,2 2,2 0.42707,0 0.79829,-0.1433 1.125,-0.375 l 1.875,1.875 c 0,1 1,2 2,2 l 5,0 c 1,0 2,-1 2,-2 -0.0454,-2.4333 -2,-5 -5,-5 l 0,-2 4,0 1,-1 -12,0 z m 0,3.5 c 0.55821,0 1,0.4418 1,1 0,0.5583 -0.44179,1 -1,1 -0.55821,0 -1,-0.4417 -1,-1 0,-0.5582 0.44179,-1 1,-1 z m 7,0.5 c 2,0 4,2 4,4 l -3,0 c -0.52733,0 -1,-0.4915 -1,-1 l 0,-3 z m -3,7 c -0.52542,0 -0.49152,1 0,1 l 7,0 c 0.59322,0 0.55932,-1 0,-1 l -7,0 z"
       inkscape:connector-curvature="0" />
    <path
       style="fill:#1a1a1a;fill-opacity:1;stroke:none"
       id="rect4041"
       d="m 160,1005.3622 c -7,0 -7,6 -7,7 l 0,5 3,0 -1,2 3,0 1,-2 2,0 1,2 3,0 -1,-2 3,0 0,-5 c 0,-1 0,-7 -7,-7 z m -3,2 6,0 2,2 0,5 c 0,0.5763 -0.38983,1 -1,1 l -8,0 c -0.54237,0 -1,-0.4237 -1,-1 l 0,-5 2,-2 z m 1,1 c -1,0 -2,1 -2,2 l 0,2 8,0 0,-2 c 0,-1 -1,-2 -2,-2 l -4,0 z m -1.25,4.75 c -0.41421,0 -0.75,0.3358 -0.75,0.75 0,0.4142 0.33579,0.75 0.75,0.75 0.41421,0 0.75,-0.3358 0.75,-0.75 0,-0.4142 -0.33579,-0.75 -0.75,-0.75 z m 6.5,0 c -0.41421,0 -0.75,0.3358 -0.75,0.75 0,0.4142 0.33579,0.75 0.75,0.75 0.41421,0 0.75,-0.3358 0.75,-0.75 0,-0.4142 -0.33579,-0.75 -0.75,-0.75 z"
       inkscape:connector-curvature="0" />
    <path
       style="fill:#1a1a1a;fill-opacity:1;stroke:none"
       id="rect3226"
       d="m 38,1029.3622 c -1.97409,-0.01 -4,3 -4,7 l 0,2 c 0,1 1,2 2,2 l 8,0 c 1,0 2,-1 2,-2 l 0,-2 c 0,-4 -2,-7 -4,-7 z m -1,3 6,0 c 0,0 1,1 1,3 l -7.96875,0 c -0.0366,-2.0084 0.96875,-3 0.96875,-3 z m -1,5 3,0 0,1 -3,0 z m 5,0 3,0 0,1 -3,0 z m -6,4 -1,2 3,0 1,-2 z m 7,0 1,2 3,0 -1,-2 z"
       inkscape:connector-curvature="0" />
    <path
       style="fill:#1a1a1a;fill-opacity:1;stroke:none"
       id="rect3226-6"
       d="m 60.970594,1029.3622 -2.96875,3 0,7 c -0.0366,0.5753 0.47725,1.0005 1.03125,1 l 9.96875,0 c 0.554,-5e-4 1,-0.4007 1,-1 l 0,-7 -3,-3 z m 1.0625,1 3.96875,0 0,1 -3.96875,0 z m -2,2 7.96875,0 0,4 -7.96875,0 z m 0.78125,5 c 0.0104,-10e-5 0.0208,-10e-5 0.0312,0 0.57289,-0.091 1.16338,0.42 1.15625,1 0,0.5236 -0.4764,1 -1,1 -0.52359,0 -1,-0.4764 -1,-1 -0.008,-0.4666 0.35408,-0.9126 0.8125,-1 z m 6.03125,0 c 0.57289,-0.091 1.16338,0.42 1.15625,1 0,0.5236 -0.4764,1 -1,1 -0.5236,0 -1,-0.4764 -1,-1 -0.006,-0.4754 0.37417,-0.9257 0.84375,-1 z m -7.84375,4 -1,2 3,0 1,-2 z m 7,0 1,2 3,0 -1,-2 z"
       inkscape:connector-curvature="0" />
    <path
       style="fill:#1a1a1a;fill-opacity:1;stroke:none"
       id="rect4041-7"
       d="m 158,1029.3466 c -1,0 -2,1 -2,2 l 0,7 c 0,1 1,2 2,2 l 4,0 c 1,0 2,-1 2,-2 l 0,-7 c 0,-1 -1,-2 -2,-2 z m 0,1 4,0 0,1 -4,0 z m 0,2 4,0 c 0.55362,0 1,0.446 1,1 l 0,2 c 0,0.6271 -0.42373,1 -1,1 l -4,0 c -0.55932,0 -1,-0.4068 -1,-1 l 0,-2 c 0,-0.554 0.44638,-1 1,-1 z m 2,5 c 0.55229,0 1,0.4477 1,1 0,0.5523 -0.44771,1 -1,1 -0.55228,0 -1,-0.4477 -1,-1 0,-0.5523 0.44772,-1 1,-1 z m -4,3.9843 -1,2.0313 3,-0.016 1,-2.0156 z m 5,0.016 1,2 3,0 -1,-2 z"
       inkscape:connector-curvature="0" />
    <path
       style="color:#000000;fill:#1a1a1a;fill-opacity:1"
       id="rect7432-3-9-6"
       d="m 64,957.36214 c -1,0 -1,1 -1,1 l 0,1 -2,0 0,2 2,0 0,1 -4,0 0,2 4,0 0,2.34375 -2,-0.34375 0,2 2,0.34375 0,2.65625 2,0 0,-2.34375 2,0.34375 0,-2 -2,-0.34375 0,-2.65625 4,0 0,-2 -4,0 0,-1 2,0 0,-2 -2,0 0,-1 c 0,0 0,-1 -1,-1 z"
       inkscape:connector-curvature="0" />
    <path
       style="fill:#1a1a1a;fill-opacity:1;stroke:none"
       id="t"
       d="M 112.03125,957.29964 110,960.83089 l -4,0 2,3.5 -2,3.5 4,0 2.03125,3.53125 2,-3.53125 3.96875,0 -1.96875,-3.5 1.96875,-3.5 -3.96875,0 -2,-3.53125 z m 0,2.5 0.59375,1.03125 -1.1875,0 0.59375,-1.03125 z m -3.90625,2.1875 1.21875,0 -0.625,1.0625 -0.59375,-1.0625 z m 2.65625,0 2.5,0 1.3125,2.34375 -1.3125,2.34375 -2.5,0 -1.3125,-2.34375 1.3125,-2.34375 z m 3.90625,0 1.25,0 -0.625,1.09375 -0.625,-1.09375 z m 0.625,3.59375 0.625,1.09375 -1.25,0 0.625,-1.09375 z m -6.59375,0.0312 0.625,1.0625 -1.21875,0 0.59375,-1.0625 z m 2.71875,2.21875 1.1875,0 -0.59375,1.03125 -0.59375,-1.03125 z"
       inkscape:connector-curvature="0" />
    <path
       style="fill:#1a1a1a;fill-opacity:1;stroke:none"
       id="path4885"
       d="m 156.40625,862.36214 c -0.75363,0.0472 -1.40773,0.7449 -1.40625,1.5 2.9e-4,0.78522 0.71478,1.49945 1.5,1.49945 0.78521,0 1.49971,-0.71423 1.5,-1.49945 0.002,-0.81765 -0.7777,-1.5511 -1.59375,-1.5 z m 8,3 c -0.75363,0.0472 -1.40773,0.7449 -1.40625,1.5 2.9e-4,0.78522 0.71478,1.49945 1.5,1.49945 0.78522,0 1.49971,-0.71423 1.5,-1.49945 0.002,-0.81765 -0.7777,-1.5511 -1.59375,-1.5 z m -8.40625,0.5 c -1.47099,0 -1.86584,1.87341 -1.96875,2.875 l -1.03125,-0.375 0,1 5.96875,2.125 -0.96875,3.875 4,0 -0.9375,-3.125 5.9375,2.125 0,-1 -0.9375,-0.34375 c 0.16406,-0.86133 0.6875,-4.15625 -1.0625,-4.15625 -1.63846,0 -1.91521,2.2445 -1.96875,3.09375 l -5.9375,-2.125 c 0.19126,-1.13122 0.52025,-3.96875 -1.09375,-3.96875 z"
       inkscape:connector-curvature="0" />
    <path
       style="fill:#1a1a1a;fill-opacity:1;stroke:none"
       id="path4639"
       d="m 13,909.36214 c -1,0 -3,2 -3,5 0,3 2.25,4 2.25,4 l -0.5,5 2.5,0 -0.5,-5 c 0,0 2.25,-1 2.25,-4 0,-3 -2,-5 -3,-5 z m 4,0.75 0,6.25 c 0,1 1.75,1 1.75,2 l -0.5,5 2.5,0 -0.5,-5 c 0,-1 1.75,-1 1.75,-2 l 0,-6.25 c 0,-1 -1,-1 -1,0 l 0,5.25 c 0,0.56329 -1,0.56329 -1,0 l 0,-5.25 c 0,-1 -1,-1 -1,0 l 0,5.25 c 0,0.52733 -1,0.52733 -1,0 l 0,-5.25 c 0,-1 -1,-1 -1,0 z"
       inkscape:connector-curvature="0" />
    <path
       style="fill:#1a1a1a;fill-opacity:1;stroke:none"
       id="path4964"
       d="m 63.749999,984.36217 1.5,4 -1.5,0 -1.5,-4 c 0,0 -1.75516,0 -1.75,0 l 1.5,4 -1.5,0 -1.32309,-3.4237 C 58.291049,985.62627 57,987.56057 57,989.36217 l 0,2 c 0,0.5932 0.42373,1 0.999999,1 l 12,0 c 0.57627,0 1,-0.4237 1,-1 l 0,-2 c 0,-2.4644 -1.72737,-4.4147 -4,-5 l 1.5,4 -1.5,0 -1.5,-4 c 0,0 -1.74395,0 -1.75,0 z"
       inkscape:connector-curvature="0" />
    <g
       id="g3132"
       transform="translate(32,908.36214)">
      <rect
         style="fill:none;stroke:none;visibility:hidden"
         id="canvas"
         y="0"
         x="0"
         height="16"
         width="16" />
      <path
         style="fill:#1a1a1a;fill-opacity:1;stroke:none"
         id="fire-station"
         d="M 8,1 C 4.4241613,2.2414283 3,6 3,9 3,12 4.7449329,14.259763 7,15 5,11.741416 5,9 8,7 c -0.5049218,1.3528175 0,4 1,5 0.431455,-0.400757 1,-1.424727 1,-2 2,2 0.562898,3.633261 0,5 1.08818,-0.559102 3,-2 3,-5 C 13,7 11,6 11,3 9.6164844,3.5992431 9,5 9,6 8.0479394,5.4434404 7,3.2464256 8,1 z"
         inkscape:connector-curvature="0" />
    </g>
    <g
       id="g3134"
       transform="translate(104,860.36214)">
      <rect
         style="fill:none;stroke:none;visibility:hidden"
         id="canvas-2"
         y="0"
         x="0"
         height="16"
         width="16" />
      <path
         style="fill:#1a1a1a;fill-opacity:1;stroke:none"
         id="cinema"
         d="M 2,2 C 1.446,2 1,2.446 1,3 l 0,11 c 0,0.554 0.446,1 1,1 l 12,0 c 0.554,0 1,-0.446 1,-1 L 15,3 C 15,2.446 14.554,2 14,2 L 2,2 z m 0.25,1 0.5,0 C 2.8885,3 3,3.1115 3,3.25 l 0,0.5 C 3,3.8885 2.8885,4 2.75,4 L 2.25,4 C 2.1115,4 2,3.8885 2,3.75 L 2,3.25 C 2,3.1115 2.1115,3 2.25,3 z M 5,3 11,3 11,8 5,8 5,3 z m 8.25,0 0.5,0 C 13.8885,3 14,3.1115 14,3.25 l 0,0.5 C 14,3.8885 13.8885,4 13.75,4 l -0.5,0 C 13.1115,4 13,3.8885 13,3.75 l 0,-0.5 C 13,3.1115 13.1115,3 13.25,3 z m -11,2 0.5,0 C 2.8885,5 3,5.1115 3,5.25 l 0,0.5 C 3,5.8885 2.8885,6 2.75,6 L 2.25,6 C 2.1115,6 2,5.8885 2,5.75 L 2,5.25 C 2,5.1115 2.1115,5 2.25,5 z m 11,0 0.5,0 C 13.8885,5 14,5.1115 14,5.25 l 0,0.5 C 14,5.8885 13.8885,6 13.75,6 l -0.5,0 C 13.1115,6 13,5.8885 13,5.75 l 0,-0.5 C 13,5.1115 13.1115,5 13.25,5 z m -11,2 0.5,0 C 2.8885,7 3,7.1115 3,7.25 l 0,0.5 C 3,7.8885 2.8885,8 2.75,8 L 2.25,8 C 2.1115,8 2,7.8885 2,7.75 L 2,7.25 C 2,7.1115 2.1115,7 2.25,7 z m 11,0 0.5,0 C 13.8885,7 14,7.1115 14,7.25 l 0,0.5 C 14,7.8885 13.8885,8 13.75,8 l -0.5,0 C 13.1115,8 13,7.8885 13,7.75 l 0,-0.5 C 13,7.1115 13.1115,7 13.25,7 z m -11,2 0.5,0 C 2.8885,9 3,9.1115 3,9.25 l 0,0.5 C 3,9.8885 2.8885,10 2.75,10 l -0.5,0 C 2.1115,10 2,9.8885 2,9.75 L 2,9.25 C 2,9.1115 2.1115,9 2.25,9 z M 5,9 l 6,0 0,5 -6,0 0,-5 z m 8.25,0 0.5,0 C 13.8885,9 14,9.1115 14,9.25 l 0,0.5 C 14,9.8885 13.8885,10 13.75,10 l -0.5,0 C 13.1115,10 13,9.8885 13,9.75 l 0,-0.5 C 13,9.1115 13.1115,9 13.25,9 z m -11,2 0.5,0 C 2.8885,11 3,11.1115 3,11.25 l 0,0.5 C 3,11.8885 2.8885,12 2.75,12 l -0.5,0 C 2.1115,12 2,11.8885 2,11.75 l 0,-0.5 C 2,11.1115 2.1115,11 2.25,11 z m 11,0 0.5,0 c 0.1385,0 0.25,0.1115 0.25,0.25 l 0,0.5 C 14,11.8885 13.8885,12 13.75,12 l -0.5,0 C 13.1115,12 13,11.8885 13,11.75 l 0,-0.5 C 13,11.1115 13.1115,11 13.25,11 z m -11,2 0.5,0 C 2.8885,13 3,13.1115 3,13.25 l 0,0.5 C 3,13.8885 2.8885,14 2.75,14 l -0.5,0 C 2.1115,14 2,13.8885 2,13.75 l 0,-0.5 C 2,13.1115 2.1115,13 2.25,13 z m 11,0 0.5,0 c 0.1385,0 0.25,0.1115 0.25,0.25 l 0,0.5 C 14,13.8885 13.8885,14 13.75,14 l -0.5,0 C 13.1115,14 13,13.8885 13,13.75 l 0,-0.5 C 13,13.1115 13.1115,13 13.25,13 z"
         inkscape:connector-curvature="0" />
    </g>
    <g
       id="g3143"
       transform="translate(176,884.36214)">
      <rect
         style="fill:none;stroke:none;visibility:hidden"
         id="canvas-25"
         y="0"
         x="0"
         height="16"
         width="16" />
      <path
         style="fill:#1a1a1a;fill-opacity:1;stroke:none"
         id="pub"
         d="m 3,2 2,12 6,0 2,-12 z m 1.25,1 7.5,0 -0.33,2 -6.86,0 z"
         inkscape:connector-curvature="0" />
    </g>
    <g
       id="g3125"
       transform="translate(128,860.36214)">
      <rect
         style="fill:none;stroke:none;visibility:hidden"
         id="canvas-10"
         y="0"
         x="0"
         height="16"
         width="16" />
      <path
         style="fill:#1a1a1a;fill-opacity:1;stroke:none"
         id="library"
         d="m 1,1 0,10 c 2,3 5.2497897,2.039143 5.2497897,4 L 7.25,15 7.25,5 C 7.25,2.0168774 3,4 1,1 z M 15,1 C 13,4 8.75,2.0449388 8.75,5 l 0,10 1,0 C 9.75,13.020266 13,14 15,11 z"
         inkscape:connector-curvature="0" />
    </g>
    <g
       id="g3144"
       transform="translate(56,884.36214)">
      <rect
         style="fill:none;stroke:none;visibility:hidden"
         id="canvas-20"
         y="0"
         x="0"
         height="16"
         width="16" />
      <path
         style="fill:#1a1a1a;fill-opacity:1;stroke:none"
         id="toilets"
         d="M 3.84375,1.5 A 2,2 0 0 0 2,3.5 a 2,2 0 0 0 4,0 2,2 0 0 0 -2.15625,-2 z m 8,0 A 2,2 0 0 0 10,3.5 a 2,2 0 0 0 4,0 2,2 0 0 0 -2.15625,-2 z M 3,6 C 3,6 2,6.5 2,7.5 2,8.5 3,9 3,9 3,9 1,10 1,13 l 2.1875,0 0.3125,1.5 1,0 L 4.8125,13 7,13 C 7,10 5,9 5,9 5,9 6,8.4520606 6,7.5 6,6.5479394 5,6 5,6 L 4,7 3,6 z m 7,0 C 9.2636669,6 8.9041211,6.3528175 9,7 l 1,4.5 c 0.08475,0.254237 0.194915,0.5 0.5,0.5 l 0.5,0 0.5,2.5 1,0 0.5,-2.5 0.5,0 c 0.271186,0 0.4322,-0.211865 0.5,-0.5 L 15,7 C 15.095879,6.2809084 14.647182,6 14,6 L 13,6 12,7 11,6 10,6 z"
         inkscape:connector-curvature="0" />
    </g>
    <g
       id="g3188"
       transform="translate(32,884.36214)">
      <rect
         style="fill:none;stroke:none;visibility:hidden"
         id="canvas-22"
         y="0"
         x="0"
         height="16"
         width="16" />
      <path
         style="fill:#1a1a1a;fill-opacity:1;stroke:none"
         id="recycling"
         d="M 6.1111131,9.690628 4.5133516,6.804047 1.3,6.804047 2.6062101,7.5880837 1.7986781,9.0311016 C 1.7298071,9.1619607 1.6953738,9.2986132 1.6953767,9.4410632 1.6953738,9.583519 1.7298067,9.720173 1.7986781,9.851023 l 1.2710773,2.298282 c 0.057331,-0.166376 0.1146592,-0.309011 0.171995,-0.427902 L 4.8227305,8.9065915 6.1111131,9.690628 z m -2.3879902,2.316224 c -0.091944,0.154416 -0.1379139,0.320611 -0.1379099,0.498585 -4e-6,0.273307 0.094563,0.504931 0.2836852,0.694868 0.189119,0.189939 0.4152978,0.284906 0.6785371,0.284906 l 3.1619632,0 0,-2.654413 -3.333432,0 c -0.023082,0.04749 -0.109074,0.201902 -0.2579918,0.463243 l -0.3948518,0.712811 z m 4.2783511,-6.5745954 3.196047,0 L 12.812587,2.54622 11.506901,3.3302555 10.698844,1.8866933 C 10.549912,1.6137609 10.320934,1.4772893 10.011916,1.4772767 l -2.5432048,0 C 7.5718315,1.5958193 7.6578273,1.7145295 7.7267029,1.8334098 L 9.2898557,4.6482199 9.032389,4.8086154 8.001474,5.4322566 z M 6.4377974,1.6197306 C 6.0710797,1.6197421 5.7961336,1.7859374 5.6129601,2.1183163 L 4.0151984,4.9690109 C 4.6220663,5.3372941 5.3609057,5.7767964 6.2317187,6.2875185 6.746994,5.372999 7.3024778,4.3752843 7.8981728,3.2943703 L 7.2626345,2.1183163 C 7.0794458,1.7859374 6.8045007,1.6197421 6.4377974,1.6197306 l 0,0 z m 4.1068816,9.1751824 0,-0.320793 0,-1.228795 L 8.9463931,12.131363 10.544679,15 l 0,-1.55013 1.597761,0 c 0.309366,0 0.54411,-0.136653 0.704231,-0.409962 l 1.271602,-2.298279 c -0.171656,0.04749 -0.314811,0.07123 -0.42946,0.07123 l -3.144134,-0.01795 z m 2.37121,-4.88147 c -0.05735,0.035533 -0.79636,0.4750321 -2.217045,1.3185066 0.710337,1.2708481 1.271764,2.2745434 1.684282,3.0110934 l 1.288383,0 c 0.378233,2e-6 0.658946,-0.166373 0.842142,-0.499132 0.171629,-0.3207878 0.165862,-0.6473788 -0.01731,-0.9797736 L 12.915891,5.913443 z"
         inkscape:connector-curvature="0" />
    </g>
    <g
       id="g3258"
       transform="translate(32,860.36214)">
      <rect
         style="fill:none;stroke:none;visibility:hidden"
         id="canvas-9"
         y="0"
         x="0"
         height="16"
         width="16" />
      <path
         style="fill:#1a1a1a;fill-opacity:1;stroke:none"
         id="government"
         d="M 8,1 C 7.75,1.0032 7.5,1.1644239 7.5,1.5 l 0,4.03125 C 4.906144,5.6951647 4,7.060613 4,8 l 8,0 C 12,7.060613 11.093856,5.6951647 8.5,5.53125 L 8.5,1.5 C 8.5,1.1516409 8.25,0.99680426 8,1 z M 9,1 9,4 13,4 11,2.5 13,1 9,1 z m -7,8 0,1 1,0 0,4 -1,0 -1,1 14,0 -1,-1 -1,0 0,-4 1,0 0,-1 -12,0 z m 3,1 1,0 0,4 -1,0 0,-4 z m 2,0 2,0 0,4 -2,0 0,-4 z m 3,0 1,0 0,4 -1,0 0,-4 z"
         inkscape:connector-curvature="0" />
    </g>
    <g
       id="g3154"
       transform="translate(56,932.36214)">
      <rect
         style="fill:none;stroke:none;visibility:hidden"
         id="canvas-5"
         y="0"
         x="0"
         height="16"
         width="16" />
      <path
         style="fill:#1a1a1a;fill-opacity:1;stroke:none"
         id="camping"
         d="M 15,15 9.0000011,3.9999992 10.000001,1 9.0000011,1 8.0000012,2.9999995 7.0000003,1 6.0000005,1 7.0000003,3.9999992 1,15 z m -6.9999988,-7.0000008 2.9999998,6.0000018 -6.0000005,0 z"
         inkscape:connector-curvature="0" />
    </g>
    <g
       id="g3163"
       transform="translate(152,956.36217)">
      <rect
         style="fill:none;stroke:none;visibility:hidden"
         id="canvas-3"
         y="0"
         x="0"
         height="16"
         width="16" />
      <path
         style="fill:#1a1a1a;fill-opacity:1;stroke:none"
         id="place-of-worship"
         d="M 7.5,1 C 6.6715729,1 6,1.6715729 6,2.5 6,3.3284271 6.671573,4 7.5,4 8.3284271,4 9,3.3284271 9,2.5 9,1.6715729 8.328427,1 7.5,1 z M 2.167788,5.573171 3.5,8 l 3,-1 1,4 -2,2 c -0.2711864,0.305085 -0.4661017,0.45872 -0.5,1 0,1 1,1 1,1 l 6,0 c 0,0 1,0 1,-1 0,-1 -1,-1 -1,-1 l -3,0 1,-1 c 1,-1 0.928985,-1.472666 0.8125,-2 L 10,6 C 9.7606097,5.1065832 9.1377884,4.6703491 8,4.85 L 7,5 4,6.5 3,5 C 2.5588374,4.412383 1.8167825,4.9182326 2.167788,5.573171 z"
         inkscape:connector-curvature="0" />
    </g>
    <g
       id="g3161"
       transform="translate(8,860.36214)">
      <rect
         style="fill:none;stroke:none;visibility:hidden"
         id="canvas-7"
         y="0"
         x="0"
         height="16"
         width="16" />
      <path
         style="fill:#1a1a1a;fill-opacity:1;stroke:none"
         id="embassy"
         d="M 9,2 C 6,4 4,2 4,2 l 0,7 c 0,0 2,2 5,0 3,-2 5,0 5,0 L 14,2 C 14,2 12,0 9,2 z M 2.5,1.25 C 2.25,1.25 2,1.5 2,2 l 0,12 c 0,1 1,1 1,0 L 3,2 C 3,1.5 2.75,1.25 2.5,1.25 z"
         inkscape:connector-curvature="0" />
    </g>
    <g
       id="g3142"
       transform="translate(104,932.36214)">
      <rect
         style="fill:none;stroke:none;visibility:hidden"
         id="canvas-24"
         y="0"
         x="0"
         height="16"
         width="16" />
      <path
         style="fill:#1a1a1a;fill-opacity:1;stroke:none"
         id="guidepost"
         d="M 8,1.25 C 7.625,1.25 7.25,1.5 7.25,2 l 0,13 1.5,0 0,-13 C 8.75,1.5 8.375,1.25 8,1.25 z M 3,2 1,3.5 3,5 7,5 7,2 3,2 z M 9,5 9,8 13,8 15,6.5 13,5 9,5 z"
         inkscape:connector-curvature="0" />
    </g>
    <g
       id="g3171"
       transform="translate(80,860.36214)">
      <rect
         style="fill:none;stroke:none;visibility:hidden"
         id="canvas-240"
         y="0"
         x="0"
         height="16"
         width="16" />
      <path
         style="fill:#1a1a1a;fill-opacity:1;stroke:none"
         id="town-hall"
         d="M 8,1 C 7.75,1.0032 7.5,1.1644239 7.5,1.5 L 7.5,5.375 2,8 14,8 8.5,5.375 8.5,1.5 C 8.5,1.1516409 8.25,0.99680426 8,1 z M 9,1 9,4 13,4 11,2.5 13,1 z m -7,8 0,1 1,0 0,4 -1,0 0,1 12,0 0,-1 -1,0 0,-4 1,0 0,-1 z m 6,1.5 c 1,0 2,0.5 2,1.5 l 0,2 -4,0 0,-2 c 0,-1 1,-1.5 2,-1.5 z"
         inkscape:connector-curvature="0"
         sodipodi:nodetypes="csccccsccccccccccccccccccccssccss" />
    </g>
    <g
       id="g3192"
       transform="translate(128,980.36217)">
      <rect
         style="fill:none;stroke:none;visibility:hidden"
         id="canvas-4"
         y="0"
         x="0"
         height="16"
         width="16" />
      <path
         style="fill:#000000;fill-opacity:1;stroke:none"
         id="memorial"
         d="M 6,2 C 5,2 4,3 4,4 l 0,8 8,0 0,-8 C 12,3 11,2 10,2 z M 7,4 9,4 9,5 7,5 z m -2,2 6,0 0,1 -6,0 z m 1,2 4,0 0,1 -4,0 z m -3,5 -1,1 0,1 12,0 0,-1 -1,-1 z"
         inkscape:connector-curvature="0" />
    </g>
    <g
       id="g3236"
       transform="translate(152,980.36217)">
      <rect
         style="fill:none;stroke:none;visibility:hidden"
         id="canvas-45"
         y="0"
         x="0"
         height="16"
         width="16" />
      <path
         style="fill:#000000;fill-opacity:1;stroke:none"
         id="monument"
         d="M 8,1 C 8,1 6,2.4966359 6,3 l 0,8 4,0 0,-8 C 10,2.5206056 8,1 8,1 z M 5,12 c -1,0 -1,1 -1,2 l -1,0 -1,1 12,0 -1,-1 -1,0 c 0,-1 0,-2 -1,-2 z"
         inkscape:connector-curvature="0" />
    </g>
    <g
       id="g3172"
       transform="translate(32,932.36214)">
      <rect
         style="fill:none;stroke:none;visibility:hidden"
         id="canvas-1"
         y="0"
         x="0"
         height="16"
         width="16" />
      <path
         style="fill:#1a1a1a;fill-opacity:1;stroke:none"
         id="bench"
         d="M 2,6 C 1,6 1,7.5 2,7.5 l 12,0 C 15,7.5 15,6 14,6 L 2,6 z m 1,2 0,3 1.5,0 0,-3 L 3,8 z m 8.5,0 0,3 1.5,0 0,-3 -1.5,0 z"
         inkscape:connector-curvature="0" />
    </g>
    <g
       id="g3191"
       transform="translate(152,932.36214)">
      <rect
         style="fill:none;stroke:none;visibility:hidden"
         id="canvas-46"
         y="0"
         x="0"
         height="16"
         width="16" />
      <path
         style="fill:#1a1a1a;fill-opacity:1;stroke:none"
         id="table"
         d="M 4,3 C 2.6779661,3 2.6779661,4.5 4,4.5 l 8,0 C 13.33909,4.5 13.338983,3 12,3 L 4,3 z M 5,5 4.25,8 2,8 C 0.6779661,8 0.6779661,9.5 2,9.5 L 3.875,9.5 3,13 4.5,13 5.375,9.5 10.625,9.5 11.5,13 13,13 12.125,9.5 14,9.5 C 15.33909,9.5 15.338983,8 14,8 L 11.75,8 11,5 9.5,5 10.25,8 5.75,8 6.5,5 5,5 z"
         inkscape:connector-curvature="0" />
    </g>
    <g
       id="g3194"
       transform="translate(80,1004.3622)">
      <rect
         style="fill:none;stroke:none;visibility:hidden"
         id="canvas-73"
         y="0"
         x="0"
         height="16"
         width="16" />
      <path
         style="fill:#1a1a1a;fill-opacity:1;stroke:none"
         id="bus-station"
         d="M 6,1 C 4,1 2,4 2,8 l 0,5.5 1,0 c 0,0.515625 0,1.5 1,1.5 1,0 1,-0.984375 1,-1.5 l 6,0 c 0,0.484375 0,1.5 1,1.5 1,0 1,-1.015625 1,-1.5 l 1,0 L 14,8 C 14,4 12,1 10,1 z m -1,2 6,0 c 0.527334,0 1,2 1,5 L 4,7.96875 C 4,5 4.5033641,3 5,3 z m -1,7.25 3,0 0,1.5 -3,0 z m 5,0 3,0 0,1.5 -3,0 z"
         inkscape:connector-curvature="0" />
    </g>
    <g
       id="g3196"
       transform="translate(8,1004.3622)">
      <rect
         style="fill:none;stroke:none;visibility:hidden"
         id="canvas-11"
         y="0"
         x="0"
         height="16"
         width="16" />
      <path
         style="fill:#1a1a1a;fill-opacity:1;stroke:none"
         id="theatre"
         d="m 1,1 0,7 c 0,0 0,4 4,4 0.4876943,0 0.9052288,-0.08308 1.28125,-0.1875 C 6.222862,11.329209 6.25,11 6.25,11 l 0,-0.21875 C 5.9069891,10.915179 5.4900129,11 5,11 2,11 2,8 2,8 L 2,2.5 c 2,0.9520605 4,0.9520605 6,0 L 8,3.65625 C 8.3344864,3.7893793 8.6766322,3.9137483 9,4 L 9,1 C 6,2.3728814 4,2.3050847 1,1 z m 2.5,3 c -0.5522847,0 -1,0.4477153 -1,1 0,0.5522847 0.4477153,1 1,1 0.5522847,0 1,-0.4477153 1,-1 0,-0.5522847 -0.4477153,-1 -1,-1 z M 7,4 7,11 c 0,0 0,4 4,4 4,0 4,-4 4,-4 L 15,4 C 12,5.3728814 10,5.3050847 7,4 z m 2.5,3 c 0.552285,0 1,0.4477153 1,1 0,0.5522847 -0.447715,1 -1,1 -0.5522847,0 -1,-0.4477153 -1,-1 0,-0.5522847 0.4477153,-1 1,-1 z m 3,0 c 0.552285,0 1,0.4477153 1,1 0,0.5522847 -0.447715,1 -1,1 -0.552285,0 -1,-0.4477153 -1,-1 0,-0.5522847 0.447715,-1 1,-1 z M 5,7.5 c -1.4622401,0 -2,1.016949 -2,2 l 3.25,0 0,-1.65625 C 5.9457008,7.6221969 5.5458781,7.5 5,7.5 z m 4,3.5 4,0 c 0,1 -1,2 -2,2 -1,0 -2,-1 -2,-2 z"
         inkscape:connector-curvature="0" />
    </g>
    <g
       id="g3173"
       transform="translate(80,932.36214)">
      <rect
         style="fill:none;stroke:none;visibility:hidden"
         id="canvas-18"
         y="0"
         x="0"
         height="16"
         width="16" />
      <path
         style="fill:#1a1a1a;fill-opacity:1"
         id="drinking-water"
         d="m 2,7 1.5,8 5,0 L 10,7 z M 3.18,8 8.81,8 8.44,10 3.55,10 M 5,6 C 5,4 6,3 8,3 L 9,3 9,2 8,2 C 7,2 7,1 8,1 l 3,0 c 1,0 1,1 0,1 l -1,0 0,1 4,0 0,1.5 -6,0 C 6.9152599,4.4911116 6.5,4.9824765 6.5,6 z"
         inkscape:connector-curvature="0" />
    </g>
    <g
       id="g3176"
       transform="translate(128,932.36214)">
      <rect
         style="fill:none;stroke:none;visibility:hidden"
         id="canvas-68"
         y="0"
         x="0"
         height="16"
         width="16" />
      <path
         style="fill:#1a1a1a;fill-opacity:1;stroke:none"
         id="hunting-stand"
         d="m 3,1 0,1.25 10,2 L 13,3 z M 4,3.5 4,8 12,8 12,5 z M 3,9 l 0,1 1,0 -1,5 1.5,0 1,-5 5,0 1.03125,5 1.5,0 L 12,10 l 1,0 0,-1 z"
         inkscape:connector-curvature="0" />
    </g>
    <g
       id="g3177"
       transform="translate(176,932.36214)">
      <rect
         style="fill:none;stroke:none;visibility:hidden"
         id="canvas-734"
         y="0"
         x="0"
         height="16"
         width="16" />
      <path
         style="fill:#1a1a1a;fill-opacity:1;stroke:none"
         id="waste-basket"
         d="M 7,2 C 6,2 6,3 6,3 L 5,3 C 3,3 3,4 3,4 L 13,4 C 13,4 13,3 11,3 L 10,3 C 10,3 10,2 9,2 z m -4,3 2,9 6,0 2,-9 z"
         inkscape:connector-curvature="0" />
    </g>
    <g
       id="g3202"
       transform="translate(56,860.36214)">
      <rect
         style="fill:none;stroke:none;visibility:hidden"
         id="canvas-8"
         y="0"
         x="0"
         height="16"
         width="16" />
      <path
         style="fill:#1a1a1a;fill-opacity:1;stroke:none"
         id="prison"
         d="M 1,1 1,15 15,15 15,1 1,1 z m 1,1 3,0 0,12 -0.5,0 0,-4.21875 C 4.2009277,10.13501 4,10.5625 4,11 L 4,14 2,14 2,2 z m 4,0 4,0 0,12 -0.5,0 0,-5 -3,0 0,5 L 6,14 6,2 z m 5,0 3,0 0,12 -2,0 0,-3 C 12,10.5625 11.799072,10.13501 11.5,9.78125 L 11.5,14 11,14 11,2 z M 8,4 C 7.3991523,4 6.8666154,4.2680514 6.5,4.6875 l 0,2.625 C 6.8666154,7.7319486 7.3991523,8 8,8 8.6008474,8 9.1333845,7.7319486 9.5,7.3125 l 0,-2.625 C 9.1333845,4.2680514 8.6008474,4 8,4 z"
         inkscape:connector-curvature="0" />
    </g>
    <g
       id="g3214"
       transform="translate(80,980.36217)">
      <rect
         style="fill:none;stroke:none;visibility:hidden"
         id="canvas-70"
         y="0"
         x="0"
         height="16"
         width="16" />
      <path
         style="fill:#1a1a1a;stroke:none"
         id="bicycle"
         d="M 9.5,3 9.5,4.125 11,4.75 11,6 6.25,6 6,6 6,5 7,5 C 8,5 8,4 7,4 L 4,4 C 3,4 3,5 4,5 L 5,5 5,6 4.0625,8 C 4.0411361,7.9995429 4.0214655,8 4,8 2.3505486,8 1,9.3505486 1,11 1,12.649451 2.3505486,14 4,14 5.6494514,14 7,12.649451 7,11 7,10.643761 6.928326,10.318189 6.8125,10 L 7.5,10 C 8,10 8.1875,9.53125 8.1875,9.53125 L 9.5,7 11.1875,7 11.625,8.03125 C 10.154077,8.222022 9,9.4804711 9,11 c 0,1.649451 1.350549,3 3,3 1.649451,0 3,-1.350549 3,-3 C 15,9.6931997 14.142735,8.5663746 12.96875,8.15625 L 12,6 12,4 9.5,3 z m -3.71875,4 2.5625,0 -1,2 -1.125,0 C 5.9404159,8.6916176 5.601153,8.4232128 5.21875,8.25 L 5.78125,7 z M 4,9.25 c 0.9739012,0 1.75,0.776099 1.75,1.75 0,0.973901 -0.7760988,1.75 -1.75,1.75 C 3.0260988,12.75 2.25,11.973901 2.25,11 2.25,10.026099 3.0260988,9.25 4,9.25 z m 8,0 c 0.973901,0 1.75,0.776099 1.75,1.75 0,0.973901 -0.776099,1.75 -1.75,1.75 -0.973901,0 -1.75,-0.776099 -1.75,-1.75 0,-0.973901 0.776099,-1.75 1.75,-1.75 z"
         inkscape:connector-curvature="0" />
    </g>
    <g
       id="g3259"
       transform="translate(104,980.36217)">
      <rect
         style="fill:none;stroke:none;visibility:hidden"
         id="canvas-56"
         y="0"
         x="0"
         height="16"
         width="16" />
      <path
         style="fill:#1a1a1a;stroke:none"
         id="car"
         d="M 4,2 2.7603028,6 C 2,6 1,6.4966359 1,8 l 0,4 2,0 0,1 c 0,0 0,1 1,1 1,0 1,-1 1,-1 L 5,12 11,11.96875 11,13 c 0,0 0,1 1,1 1,0 1,-1 1,-1 l 0,-1 2,0 0,-4 C 15,6.4726661 14,6 13,6 L 12,2 z m 1,1.5 6,0 L 11.6,6 4.3,6 z M 4,8 C 4.5522847,8 5,8.4477153 5,9 5,9.552285 4.5522847,10 4,10 3.4477153,10 3,9.552285 3,9 3,8.4477153 3.4477153,8 4,8 z m 8,0 c 0.552285,0 1,0.4477153 1,1 0,0.552285 -0.447715,1 -1,1 -0.552285,0 -1,-0.447715 -1,-1 0,-0.5522847 0.447715,-1 1,-1 z"
         inkscape:connector-curvature="0" />
    </g>
    <g
       id="g3329"
       transform="translate(8,1028.3622)">
      <rect
         style="fill:none;stroke:none;visibility:hidden"
         id="canvas-254"
         y="0"
         x="0"
         height="16"
         width="16" />
      <path
         style="fill:#1a1a1a;fill-rule:evenodd"
         id="parking-car"
         d="M 3,2 3,14 5.4892765,14 5.5107234,9.9999996 9,9.9760303 C 11,9.9622915 13,9 13,6 13,3 11,1.9679264 8.9785531,1.9760308 z m 2.4892765,2.511985 0.021447,3 3,-0.02397 C 9.3789437,7.488015 10.466898,7.2396972 10.5,6 10.533102,4.7603028 9.4528474,4.488015 8.4892765,4.488015 z"
         inkscape:connector-curvature="0" />
    </g>
    <g
       id="g3225"
       transform="translate(80,1028.3622)">
      <rect
         style="fill:none;stroke:none;visibility:hidden"
         id="canvas-203"
         y="0"
         x="0"
         height="16"
         width="16" />
      <path
         style="fill:#1a1a1a;stroke:none"
         id="rental-bicycle"
         d="M 4.5,1 C 3.1192881,1 2,2.1192881 2,3.5 2,4.8807119 3.1192881,6 4.5,6 5.4253425,6 6.2239846,5.4972377 6.65625,4.75 L 8,4.75 l 1,-1 1,1 1,-1 1,1 0.5,0 L 14,3.5 12.5,2.25 6.65625,2.25 C 6.2239846,1.5027623 5.4253425,1 4.5,1 z m -1,2 C 3.7761424,3 4,3.2238576 4,3.5 4,3.7761424 3.7761424,4 3.5,4 3.2238576,4 3,3.7761424 3,3.5 3,3.2238576 3.2238576,3 3.5,3 z m 5.5,3.4375 0.03125,1 L 10,8 10,9 6.25,9 6,9 6,8 6.5,8 c 1,0 1,-1 0,-1 l -2,0 c -1,0 -1,1 0,1 L 5,8 5,9 4.4375,10.375 c -0.041654,-0.0023 -0.082838,0 -0.125,0 C 3.0420041,10.375 2,11.417004 2,12.6875 2,13.957996 3.0420041,15 4.3125,15 5.5829959,15 6.625,13.957996 6.625,12.6875 6.625,12.447485 6.5695688,12.218899 6.5,12 l 0.5,0 1,0 0.65625,-2 1.5,0 0.28125,0.71875 C 9.7978612,11.135655 9.375,11.877559 9.375,12.6875 9.375,13.957996 10.417004,15 11.6875,15 c 1.270496,0 2.34375,-1.042004 2.34375,-2.3125 0,-1.270496 -1.073254,-2.3125 -2.34375,-2.3125 -0.04216,0 -0.08335,-0.0023 -0.125,0 L 11,9 11,7.625 9,6.4375 z M 5.84375,10 7.65625,10 7.25,11.25 l -1.15625,0 C 5.9398886,11.062277 5.7662923,10.851578 5.5625,10.71875 L 5.84375,10 z M 4.3125,11.5 C 4.9750008,11.5 5.5,12.024999 5.5,12.6875 5.5,13.350001 4.9750008,13.875 4.3125,13.875 3.6499993,13.875 3.125,13.350001 3.125,12.6875 3.125,12.024999 3.6499993,11.5 4.3125,11.5 z m 7.375,0 c 0.662501,0 1.1875,0.524999 1.1875,1.1875 0,0.662501 -0.524999,1.1875 -1.1875,1.1875 -0.662501,0 -1.15625,-0.524999 -1.15625,-1.1875 0,-0.662501 0.493749,-1.1875 1.15625,-1.1875 z"
         inkscape:connector-curvature="0" />
    </g>
    <g
       id="g3203"
       transform="translate(176,1004.3622)">
      <rect
         style="fill:none;stroke:none;visibility:hidden"
         id="canvas-40"
         y="0"
         x="0"
         height="16"
         width="16" />
      <path
         style="fill:#1a1a1a;fill-rule:evenodd"
         id="parking-bicycle"
         d="m 2,1 0,10 2,0 0,-3.5 2.5,0 c 1.9760775,3e-7 3.5,-1 3.5,-3.25 C 10,2 8.4868489,1.0000002 6.96875,1 L 2,1 z M 4,3 6.5,3 C 7.4635709,3 8,3.5254308 8,4.25 8,4.9745692 7.3682202,5.5 6.5,5.5 L 4,5.5 4,3 z m 7.5,5.5 0,1.25 -3,0 0,-0.25 0.5,0 C 9.4793944,9.5 9.4554247,9 9,9 L 7.5,9 C 7,9 7,9.4520606 7.5,9.5 L 8,9.5 8,9.75 7.4375,11.03125 C 7.2961795,11.001436 7.1477575,11 7,11 c -1.0217808,0 -2,0.793929 -2,2 0,1.206071 0.9782192,2 2,2 1.0217808,0 1.9375,-0.856429 1.9375,-2.0625 0,-0.150759 -0.00387,-0.302075 -0.03125,-0.4375 l 0.84375,0 1,-2 0.84375,0 0.34375,0.78125 C 11.382922,11.615837 11,12.229684 11,13 c 0,1.206071 0.978219,2 2,2 1.021781,0 1.9375,-0.856429 1.9375,-2.0625 C 14.9375,11.731429 14.021781,11 13,11 c -0.150074,0 -0.292267,0.02946 -0.4375,0.0625 L 12,9.75 12,9.25 11.5,8.5 z m -3.09375,2 1.59375,0 -0.59375,1.25 -0.84375,0 C 8.4223877,11.56342 8.258024,11.401358 8.0625,11.28125 L 8.40625,10.5 z M 7,12 c 0.6350736,0 1,0.549217 1,1 0,0.450783 -0.3649264,1 -1,1 -0.6350736,0 -1,-0.549217 -1,-1 0,-0.450783 0.3649264,-1 1,-1 z m 6,0 c 0.635074,0 1,0.549217 1,1 0,0.450783 -0.364926,1 -1,1 -0.635074,0 -1,-0.549217 -1,-1 0,-0.450783 0.364926,-1 1,-1 z"
         inkscape:connector-curvature="0" />
    </g>
    <g
       id="g3208"
       transform="translate(104,1028.3622)">
      <rect
         style="fill:none;stroke:none;visibility:hidden"
         id="canvas-35"
         y="0"
         x="0"
         height="16"
         width="16" />
      <path
         style="fill:#1a1a1a;stroke:none"
         id="rental-car"
         d="M 4.5,1 C 3.1192881,1 2,2.1192881 2,3.5 2,4.8807119 3.1192881,6 4.5,6 5.4253425,6 6.2239846,5.4972377 6.65625,4.75 L 8,4.75 l 1,-1 1,1 1,-1 1,1 0.5,0 L 14,3.5 12.5,2.25 6.65625,2.25 C 6.2239846,1.5027623 5.4253425,1 4.5,1 z m -1,2 C 3.7761424,3 4,3.2238576 4,3.5 4,3.7761424 3.7761424,4 3.5,4 3.2238576,4 3,3.7761424 3,3.5 3,3.2238576 3.2238576,3 3.5,3 z M 5,7 4,10 c -0.4726661,0 -1,0.384295 -1,1 l 0,3 1,0 c 0,0 0,1 1,1 1,0 1,-1 1,-1 l 4,0 c 0,0 0,1 1,1 1,0 1,-1 1,-1 l 1,0 0,-3 c 0,-0.520606 -0.455425,-1 -1,-1 L 11,7 z m 1,1 4,0 0.625,2 -5.25,0 z m -1,3.25 c 0.4142136,0 0.75,0.335786 0.75,0.75 0,0.414214 -0.3357864,0.75 -0.75,0.75 -0.4142136,0 -0.75,-0.335786 -0.75,-0.75 0,-0.414214 0.3357864,-0.75 0.75,-0.75 z m 6,0 c 0.414214,0 0.75,0.335786 0.75,0.75 0,0.414214 -0.335786,0.75 -0.75,0.75 -0.414214,0 -0.75,-0.335786 -0.75,-0.75 0,-0.414214 0.335786,-0.75 0.75,-0.75 z"
         inkscape:connector-curvature="0" />
    </g>
    <g
       id="g3252"
       transform="translate(128,1028.3622)">
      <rect
         style="fill:none;stroke:none;visibility:hidden"
         id="canvas-80"
         y="0"
         x="0"
         height="16"
         width="16" />
      <path
         style="fill:#1a1a1a;stroke:none"
         id="shared-car"
         d="M 5,1 C 4.4477153,1 4,1.4477153 4,2 4,2.5522847 4.4477153,3 5,3 5.5522847,3 6,2.5522847 6,2 6,1.4477153 5.5522847,1 5,1 z m 6,0 c -0.552285,0 -1,0.4477153 -1,1 0,0.5522847 0.447715,1 1,1 0.552285,0 1,-0.4477153 1,-1 C 12,1.4477153 11.552285,1 11,1 z M 4,4 C 3,4 3,5 3,5 L 3,6 7,6 7,5 C 7,5 7,4 6,4 z m 6,0 C 9,4 9,5 9,5 l 0,1 4,0 0,-1 C 13,5 13,4 12,4 z M 5,7 4,10 c -0.6164845,0 -1,0.431455 -1,1 l 0,3 1,0 c 0,0 0,1 1,1 1,0 1,-1 1,-1 l 4,0 c 0,0 0,1 1,1 1,0 1,-1 1,-1 l 1,0 0,-3 c 0,-0.520606 -0.479394,-1 -1,-1 L 11,7 z m 1,1 4,0 0.625,2 -5.25,0 z m -1,3.25 c 0.4142136,0 0.75,0.335786 0.75,0.75 0,0.414214 -0.3357864,0.75 -0.75,0.75 -0.4142136,0 -0.75,-0.335786 -0.75,-0.75 0,-0.414214 0.3357864,-0.75 0.75,-0.75 z m 6,0 c 0.414214,0 0.75,0.335786 0.75,0.75 0,0.414214 -0.335786,0.75 -0.75,0.75 -0.414214,0 -0.75,-0.335786 -0.75,-0.75 0,-0.414214 0.335786,-0.75 0.75,-0.75 z"
         inkscape:connector-curvature="0" />
    </g>
    <g
       id="g3209"
       transform="translate(104,1004.3622)">
      <rect
         style="fill:none;stroke:none;visibility:hidden"
         id="canvas-89"
         y="0"
         x="0"
         height="16"
         width="16" />
      <path
         style="fill:#1a1a1a;fill-opacity:1;stroke:none"
         id="fuel"
         d="m 11.78125,1 -0.625,0.71875 1.1875,1.09375 c 0.03621,0.036212 0.0856,0.084693 0.125,0.125 l -0.25,0.28125 C 11.818532,3.6189681 12.105689,4.1369332 12.25,4.28125 L 13,5.03125 13,11 c 0,1 -0.392136,1 -0.5,1 C 12.392136,12 12,12 12,11 L 12,7 C 12,5.7190916 11,5 10,5 L 10,3 C 10,2.4486964 9.5752733,2 9,2 L 3,2 C 2.400757,2 2,2.4247267 2,3 l 0,12 8,0 0,-9 c 0,0 1,0 1,1 l 0,4 c 0,2 1.239698,2 1.5,2 0.275652,0 1.5,0 1.5,-2 L 14,4 C 14,3 13.713983,2.7907839 13.375,2.46875 L 11.78125,1 z M 3,4 9,4 9,7 3,7 3,4 z"
         inkscape:connector-curvature="0" />
    </g>
  </g>
</svg>
