<?xml version="1.0" encoding="UTF-8" standalone="no"?>
<!-- Created with Inkscape (http://www.inkscape.org/) -->

<svg
   xmlns:dc="http://purl.org/dc/elements/1.1/"
   xmlns:cc="http://creativecommons.org/ns#"
   xmlns:rdf="http://www.w3.org/1999/02/22-rdf-syntax-ns#"
   xmlns:svg="http://www.w3.org/2000/svg"
   xmlns="http://www.w3.org/2000/svg"
   xmlns:sodipodi="http://sodipodi.sourceforge.net/DTD/sodipodi-0.dtd"
   xmlns:inkscape="http://www.inkscape.org/namespaces/inkscape"
   width="200"
   height="152"
   id="svg2"
   version="1.1"
   inkscape:version="0.48.4 r9939"
   sodipodi:docname="icons.svg">
  <defs
     id="defs4" />
  <sodipodi:namedview
     id="base"
     pagecolor="#ffffff"
     bordercolor="#666666"
     borderopacity="1.0"
     inkscape:pageopacity="0.0"
     inkscape:pageshadow="2"
     inkscape:zoom="11.2"
     inkscape:cx="-3.7933317"
     inkscape:cy="127.88366"
     inkscape:document-units="px"
     inkscape:current-layer="layer1"
     showgrid="true"
     inkscape:window-width="1920"
     inkscape:window-height="1023"
     inkscape:window-x="0"
     inkscape:window-y="0"
     inkscape:window-maximized="1">
    <inkscape:grid
       type="xygrid"
       id="grid2985"
       empspacing="5"
       visible="true"
       enabled="true"
       snapvisiblegridlinesonly="true" />
  </sodipodi:namedview>
  <metadata
     id="metadata7">
    <rdf:RDF>
      <cc:Work
         rdf:about="">
        <dc:format>image/svg+xml</dc:format>
        <dc:type
           rdf:resource="http://purl.org/dc/dcmitype/StillImage" />
        <dc:title />
      </cc:Work>
    </rdf:RDF>
  </metadata>
  <g
     inkscape:groupmode="layer"
     id="layer2"
     inkscape:label="Outlines"
     style="display:none"
     transform="translate(0,48)"
     sodipodi:insensitive="true">
    <rect
       style="fill:#e6e6e6;fill-opacity:1;stroke:none"
       id="rect3094"
       width="16"
       height="16"
       x="8"
       y="-40" />
    <rect
       y="-40"
       x="32"
       height="16"
       width="16"
       id="rect3096"
       style="fill:#e6e6e6;fill-opacity:1;stroke:none" />
    <rect
       style="fill:#e6e6e6;fill-opacity:1;stroke:none"
       id="rect3142"
       width="16"
       height="16"
       x="56"
       y="-40" />
    <rect
       y="-40"
       x="80"
       height="16"
       width="16"
       id="rect3144"
       style="fill:#e6e6e6;fill-opacity:1;stroke:none" />
    <rect
       style="fill:#e6e6e6;fill-opacity:1;stroke:none"
       id="rect3190"
       width="16"
       height="16"
       x="104"
       y="-40" />
    <rect
       y="-40"
       x="128"
       height="16"
       width="16"
       id="rect3236"
       style="fill:#e6e6e6;fill-opacity:1;stroke:none" />
    <rect
       style="fill:#e6e6e6;fill-opacity:1;stroke:none"
       id="rect3282"
       width="16"
       height="16"
       x="152"
       y="-40" />
    <rect
       y="-40"
       x="176"
       height="16"
       width="16"
       id="rect3347"
       style="fill:#e6e6e6;fill-opacity:1;stroke:none" />
    <rect
       y="-16"
       x="8"
       height="16"
       width="16"
       id="rect3393"
       style="fill:#e6e6e6;fill-opacity:1;stroke:none" />
    <rect
       style="fill:#e6e6e6;fill-opacity:1;stroke:none"
       id="rect3395"
       width="16"
       height="16"
       x="32"
       y="-16" />
    <rect
       y="-16"
       x="56"
       height="16"
       width="16"
       id="rect3397"
       style="fill:#e6e6e6;fill-opacity:1;stroke:none" />
    <rect
       style="fill:#e6e6e6;fill-opacity:1;stroke:none"
       id="rect3399"
       width="16"
       height="16"
       x="80"
       y="-16" />
    <rect
       y="-16"
       x="104"
       height="16"
       width="16"
       id="rect3401"
       style="fill:#e6e6e6;fill-opacity:1;stroke:none" />
    <rect
       y="-16"
       x="152"
       height="16"
       width="16"
       id="rect3405"
       style="fill:#e6e6e6;fill-opacity:1;stroke:none" />
    <rect
       style="fill:#e6e6e6;fill-opacity:1;stroke:none"
       id="rect3407"
       width="16"
       height="16"
       x="176"
       y="-16" />
    <rect
       style="fill:#e6e6e6;fill-opacity:1;stroke:none"
       id="rect3837"
       width="16"
       height="16"
       x="8"
       y="8" />
    <rect
       y="8"
       x="32"
       height="16"
       width="16"
       id="rect3839"
       style="fill:#e6e6e6;fill-opacity:1;stroke:none" />
    <rect
       style="fill:#e6e6e6;fill-opacity:1;stroke:none"
       id="rect3841"
       width="16"
       height="16"
       x="56"
       y="8" />
    <rect
       y="8"
       x="80"
       height="16"
       width="16"
       id="rect3843"
       style="fill:#e6e6e6;fill-opacity:1;stroke:none" />
    <rect
       style="fill:#e6e6e6;fill-opacity:1;stroke:none"
       id="rect3845"
       width="16"
       height="16"
       x="104"
       y="8" />
    <rect
       y="8"
       x="128"
       height="16"
       width="16"
       id="rect3847"
       style="fill:#e6e6e6;fill-opacity:1;stroke:none" />
    <rect
       style="fill:#e6e6e6;fill-opacity:1;stroke:none"
       id="rect3849"
       width="16"
       height="16"
       x="152"
       y="8" />
    <rect
       y="8"
       x="176"
       height="16"
       width="16"
       id="rect3851"
       style="fill:#e6e6e6;fill-opacity:1;stroke:none" />
    <rect
       y="32"
       x="8"
       height="16"
       width="16"
       id="rect4224"
       style="fill:#e6e6e6;fill-opacity:1;stroke:none" />
    <rect
       style="fill:#e6e6e6;fill-opacity:1;stroke:none"
       id="rect4226"
       width="16"
       height="16"
       x="32"
       y="32" />
    <rect
       y="32"
       x="56"
       height="16"
       width="16"
       id="rect4228"
       style="fill:#e6e6e6;fill-opacity:1;stroke:none" />
    <rect
       style="fill:#e6e6e6;fill-opacity:1;stroke:none"
       id="rect4230"
       width="16"
       height="16"
       x="80"
       y="32" />
    <rect
       y="32"
       x="104"
       height="16"
       width="16"
       id="rect4232"
       style="fill:#e6e6e6;fill-opacity:1;stroke:none" />
    <rect
       style="fill:#e6e6e6;fill-opacity:1;stroke:none"
       id="rect4234"
       width="16"
       height="16"
       x="128"
       y="32" />
    <rect
       y="32"
       x="152"
       height="16"
       width="16"
       id="rect4236"
       style="fill:#e6e6e6;fill-opacity:1;stroke:none" />
    <rect
       style="fill:#e6e6e6;fill-opacity:1;stroke:none"
       id="rect4238"
       width="16"
       height="16"
       x="176"
       y="32" />
    <rect
       style="fill:#e6e6e6;fill-opacity:1;stroke:none"
       id="rect3403"
       width="16"
       height="16"
       x="128"
       y="-16" />
    <rect
       style="fill:#e6e6e6;fill-opacity:1;stroke:none"
       id="rect3048"
       width="16"
       height="16"
       x="8"
       y="56" />
    <rect
       y="56"
       x="32"
       height="16"
       width="16"
       id="rect3050"
       style="fill:#e6e6e6;fill-opacity:1;stroke:none" />
    <rect
       style="fill:#e6e6e6;fill-opacity:1;stroke:none"
       id="rect3052"
       width="16"
       height="16"
       x="56"
       y="56" />
    <rect
       y="56"
       x="80"
       height="16"
       width="16"
       id="rect3054"
       style="fill:#e6e6e6;fill-opacity:1;stroke:none" />
    <rect
       style="fill:#e6e6e6;fill-opacity:1;stroke:none"
       id="rect3056"
       width="16"
       height="16"
       x="104"
       y="56" />
    <rect
       y="56"
       x="128"
       height="16"
       width="16"
       id="rect3058"
       style="fill:#e6e6e6;fill-opacity:1;stroke:none" />
    <rect
       style="fill:#e6e6e6;fill-opacity:1;stroke:none"
       id="rect3060"
       width="16"
       height="16"
       x="152"
       y="56" />
    <rect
       y="56"
       x="176"
       height="16"
       width="16"
       id="rect3062"
       style="fill:#e6e6e6;fill-opacity:1;stroke:none" />
    <rect
       y="80"
       x="8"
       height="16"
       width="16"
       id="rect3481"
       style="fill:#e6e6e6;fill-opacity:1;stroke:none" />
    <rect
       style="fill:#e6e6e6;fill-opacity:1;stroke:none"
       id="rect3483"
       width="16"
       height="16"
       x="32"
       y="80" />
    <rect
       y="80"
       x="56"
       height="16"
       width="16"
       id="rect3485"
       style="fill:#e6e6e6;fill-opacity:1;stroke:none" />
    <rect
       style="fill:#e6e6e6;fill-opacity:1;stroke:none"
       id="rect3487"
       width="16"
       height="16"
       x="80"
       y="80" />
    <rect
       y="80"
       x="104"
       height="16"
       width="16"
       id="rect3489"
       style="fill:#e6e6e6;fill-opacity:1;stroke:none" />
    <rect
       style="fill:#e6e6e6;fill-opacity:1;stroke:none"
       id="rect3491"
       width="16"
       height="16"
       x="128"
       y="80" />
    <rect
       y="80"
       x="152"
       height="16"
       width="16"
       id="rect3493"
       style="fill:#e6e6e6;fill-opacity:1;stroke:none" />
    <rect
       style="fill:#e6e6e6;fill-opacity:1;stroke:none"
       id="rect3495"
       width="16"
       height="16"
       x="176"
       y="80" />
  </g>
  <g
     inkscape:label="Icons"
     inkscape:groupmode="layer"
     id="layer1"
     transform="translate(0,-900.36217)"
     style="display:inline">
    <path
       style="fill:#1a1a1a;fill-opacity:1;stroke:none"
       id="path3096"
       d="m 21.000003,910.51841 -2.34375,0.625 0.59375,2 2.34375,-0.625 z m -4.3125,1.1875 -2.1875,0.59375 0.59375,1.96875 2.1875,-0.59375 z m -4.15625,1.125 -1.75,0.46875 C 10.15413,913.50305 10,913.88758 10,914.36216 l 0,7 c 0,0.50336 0.448693,1 1.000003,1 l 10,0 c 0.5513,0 1,-0.40076 1,-1 l 0,-6 -11,0 2.125,-0.5625 z m -0.53125,4.53125 8,0 0,1 -8,0 z"
       inkscape:connector-curvature="0" />
    <path
       style="fill:#1a1a1a;fill-opacity:1;stroke:none"
       id="path2987"
       d="m 60,909.36216 c -0.610169,0 -1,0.38983 -1,1 l 0,10 2.272288,0 1.727712,-4 z m 2,0 3,7 -1.706,4 5.706,0 0,-10 c 0,-0.61017 -0.474576,-1 -1,-1 z m -4,10 c -0.511382,0 -1,0.48571 -1,1 l 0,2 c 0,0.54237 0.491525,1 1,1 l 12,0 c 0.542373,0 1,-0.45763 1,-1 l 0,-2 c 0,-0.55932 -0.488618,-1 -1,-1 l 0,2 -12,0 z"
       inkscape:connector-curvature="0" />
    <path
       style="fill:#1a1a1a;fill-opacity:1;stroke:none"
       id="path2987-3"
       d="m 81,911.36216 0,1 7,4 7,-4 0,-1 z m 0,3 0,7 14,0 0,-7 -7,4 z"
       inkscape:connector-curvature="0" />
    <path
       style="fill:#1a1a1a;fill-opacity:1;stroke:none"
       id="flowRoot3192"
       d="m 110.06112,918.05279 -1.59777,-2.88658 -3.21335,0 1.30621,0.78403 -0.80753,1.44302 c -0.0689,0.13086 -0.1033,0.26751 -0.1033,0.40996 0,0.14246 0.0344,0.27911 0.1033,0.40996 l 1.27108,2.29828 c 0.0573,-0.16637 0.11466,-0.30901 0.17199,-0.4279 l 1.58098,-2.81481 1.28839,0.78404 z m -2.38799,2.31622 c -0.0919,0.15442 -0.13792,0.32061 -0.13791,0.49859 -10e-6,0.2733 0.0946,0.50493 0.28368,0.69486 0.18912,0.18994 0.4153,0.28491 0.67854,0.28491 l 3.16196,0 0,-2.65441 -3.33343,0 c -0.0231,0.0475 -0.10908,0.2019 -0.25799,0.46324 l -0.39485,0.71281 z m 4.27835,-6.57459 3.19604,0 1.61507,-2.88604 -1.30569,0.78404 -0.80805,-1.44357 c -0.14894,-0.27293 -0.37791,-0.4094 -0.68693,-0.40941 l -2.54321,0 c 0.10312,0.11854 0.18912,0.23725 0.258,0.35613 l 1.56315,2.81481 -0.25747,0.1604 -1.03091,0.62364 z m -1.56368,-3.81253 c -0.36672,10e-6 -0.64166,0.16621 -0.82484,0.49859 l -1.59776,2.85069 c 0.60687,0.36828 1.34571,0.80779 2.21652,1.31851 0.51528,-0.91452 1.07076,-1.91224 1.66646,-2.99315 l -0.63554,-1.17605 c -0.18319,-0.33238 -0.45814,-0.49858 -0.82484,-0.49859 l 0,0 z m 4.10688,9.17518 0,-0.32079 0,-1.2288 -1.59828,2.88604 1.59828,2.86864 0,-1.55013 1.59776,0 c 0.30937,0 0.54411,-0.13665 0.70423,-0.40996 l 1.27161,-2.29828 c -0.17166,0.0475 -0.31482,0.0712 -0.42946,0.0712 l -3.14414,-0.018 z m 2.37121,-4.88147 c -0.0573,0.0355 -0.79636,0.47504 -2.21704,1.31851 0.71033,1.27085 1.27176,2.27454 1.68428,3.01109 l 1.28838,0 c 0.37823,0 0.65895,-0.16637 0.84214,-0.49913 0.17163,-0.32079 0.16587,-0.64738 -0.0173,-0.97977 l -1.58045,-2.8507 z"
       inkscape:connector-curvature="0" />
    <path
       style="fill:#1a1a1a;fill-opacity:1;stroke:none"
       id="path3022"
       d="m 131.84375,909.86216 a 2,2 0 0 0 -1.84375,2 2,2 0 0 0 4,0 2,2 0 0 0 -2.15625,-2 z m 8,0 a 2,2 0 0 0 -1.84375,2 2,2 0 0 0 4,0 2,2 0 0 0 -2.15625,-2 z m -8.84375,4.5 c 0,0 -1,0.5 -1,1.5 0,1 1,1.5 1,1.5 0,0 -2,1 -2,4 l 2.1875,0 0.3125,1.5 1,0 0.3125,-1.5 2.1875,0 c 0,-3 -2,-4 -2,-4 0,0 1,-0.54794 1,-1.5 0,-0.95206 -1,-1.5 -1,-1.5 l -1,1 -1,-1 z m 7,0 c -0.73633,0 -1.09588,0.35282 -1,1 l 1,4.5 c 0.0847,0.25424 0.19492,0.5 0.5,0.5 l 0.5,0 0.5,2.5 1,0 0.5,-2.5 0.5,0 c 0.27119,0 0.4322,-0.21187 0.5,-0.5 l 1,-4.5 c 0.0959,-0.71909 -0.35282,-1 -1,-1 l -1,0 -1,1 -1,-1 -1,0 z"
       inkscape:connector-curvature="0" />
    <path
       style="fill:#1a1a1a;fill-opacity:1;stroke:none"
       id="path3875"
       d="m 112,933.36216 -3,5 -2,-3 c 0,0 -2,3 -2,6 0,3 3,6 7,6 4,0 7,-3 7,-6 0,-3 -2,-6 -2,-6 l -2,3 -3,-5 z m 0,6 c 0,0 3.3908,2.33558 3.03125,4 -0.35954,1.66442 -2,2 -3,2 -1,0 -2.56854,-0.35955 -3,-2 -0.43145,-1.64045 2.96875,-4 2.96875,-4 z"
       inkscape:connector-curvature="0" />
    <path
       style="color:#000000;fill:#1a1a1a;fill-opacity:1;stroke:none;stroke-width:2;marker:none;visibility:visible;display:inline;overflow:visible;enable-background:accumulate"
       id="rect7805-5-4"
       d="m 134,933.36216 -1,1 0,1 6,0 0,-1 -1,-1 z m -1,3 c -0.0333,0.16873 0,0.33953 0,0.51852 0,1.43184 1.61931,2.48148 3,2.48148 1.38069,0 3,-1.04964 3,-2.48148 0,-0.17899 0,-0.51852 0,-0.51852 z m 0,4 c -1.4189,0 -1.98585,1.87658 -2,3 l 0,4 1.53125,0 5.46875,-7 z m 6.5,0 -5.46875,7 6.96875,0 0,-4 c 0,-1.12353 -0.27284,-3 -1.5,-3 z"
       inkscape:connector-curvature="0" />
    <path
       style="color:#000000;fill:#1a1a1a;fill-opacity:1"
       id="rect13326-2-5-2-3-6"
       d="m 38,936.36216 c -3,0 -4.03996,2.0008 -4,3 l 0,1 12,0 0,-1 c 0,-1 -1,-3 -4,-3 z m -4,5 c -1,0 -1,1 0,1 l 12,0 c 1,0 1,-1 0,-1 z m 0,2.03125 0,0.625 c 0,0.6842 0.81579,1.34375 1.5,1.34375 l 9,0 c 0.68421,0 1.5,-0.65955 1.5,-1.34375 l 0,-0.625 z"
       inkscape:connector-curvature="0" />
    <path
       style="fill:#1a1a1a;fill-opacity:1"
       id="path16925"
       d="m 160,941.36216 c 2,0 2,1 2,3 0,1 -1.00912,3 0,3 1,0 1.75136,-1.14296 2,-3 0.24864,-1.85704 0,-3 0,-4 0,-2 1,-4 1,-5 0,-1 -0.40024,-1.78258 -1,-2 -2,0 -2,1 -4,1 -2,0 -2,-1 -4,-1 -0.5992,0.21742 -1,1 -1,2 0,1 1,3 1,5 0,1 -0.12239,2.57334 0,4 0.12239,1.42666 1,3 2,3 1.0087,0 0,-2 0,-3 0,-2 0,-3 2,-3 z"
       inkscape:connector-curvature="0" />
    <path
       style="fill:#1a1a1a;fill-opacity:1;stroke:none"
       id="rect4125"
       d="m 184,934.36216 c -1.16071,0 -2.33217,0.50471 -3.125,1.5 -0.68749,0.86304 -0.875,1.5 -0.96875,2.5 -2.89616,0.0238 -2.90625,1.08171 -2.90625,8 l 14,0 c 0,-6.91829 -0.0101,-7.97625 -2.90625,-8 -0.0937,-1 -0.29821,-1.6539 -0.96875,-2.5 -0.79035,-0.99727 -1.96429,-1.5 -3.125,-1.5 z m 0,2 c 1.28141,-0.005 2,1 2.0625,2 l -4.125,0 c 0.0625,-1 0.78109,-1.99511 2.0625,-2 z m -1,3 2,0 0,2 2,0 0,2 -2,0 0,2 -2,0 0,-2 -2,0 0,-2 2,0 z"
       inkscape:connector-curvature="0" />
    <path
       style="fill:#1a1a1a;fill-opacity:1;stroke:none"
       id="path2989"
       d="m 15.96875,957.29967 c -3.80542,0 -6.96875,3.10268 -6.96875,7.03125 0,3.92857 3.16333,7.03125 6.96875,7.03125 3.80542,0 6.96875,-3.10268 6.96875,-7.03125 0,-3.92857 -3.16333,-7.03125 -6.96875,-7.03125 z m 0,1.0625 c 3.374279,0 6.03125,2.71762 6.03125,5.96875 0,3.25113 -2.656971,5.96875 -6.03125,5.96875 -3.37428,0 -6.03125,-2.71762 -6.03125,-5.96875 0,-3.25113 2.65697,-5.96875 6.03125,-5.96875 z m -2,0.96875 0,3 -3,0 0,4 3,0 0,3 4,0 0,-3 3,0 0,-4 -3,0 0,-3 -4,0 z"
       inkscape:connector-curvature="0" />
    <path
       style="fill:#1a1a1a;fill-opacity:1;stroke:none"
       id="path4199"
       d="m 37,961.36219 -2,2 0,8 10,0 0,-8 -2,-2 z m 2,2 2,0 0,2 2,0 0,2 -2,0 0,2 -2,0 0,-2 -2,0 0,-2 2,0 z m -2,-6 0,3 6,0 0,-3 z"
       inkscape:connector-curvature="0" />
    <path
       style="fill:#1a1a1a;fill-opacity:1;stroke:none"
       id="path2987-38"
       d="m 81,959.36219 0,7 c 0,0.6272 0.42373,1 1,1 l 12,0 c 0.57627,0 1,-0.4237 1,-1 l 0,-7 -14,0 z m 3,1 8,0 c 0,1 1,2 2,2 l 0,2 c -1,0 -2,1 -2,2 l -8,0 c 0,-1 -1,-2 -2,-2 l 0,-2 c 1,0 2,-1 2,-2 z m 4,1 c -1.65685,0 -3,0.8955 -3,2 0,1.1046 1.34315,2 3,2 1.65686,0 3,-0.8954 3,-2 0,-1.1045 -1.34314,-2 -3,-2 z m -7,6.5 c 0,1.1266 0.4487,1.5 1,1.5 l 12,0 c 0.55131,0 1,-0.4453 1,-1.5 -0.28813,0.2712 -0.55932,0.5 -1,0.5 l -12,0 c -0.44068,0 -0.72881,-0.2457 -1,-0.5 z"
       inkscape:connector-curvature="0" />
    <path
       style="fill:#1a1a1a;fill-opacity:1;stroke:none"
       id="path2987-5"
       d="m 111.95921,957.38929 c -0.24614,0 -0.48457,0.3251 -0.5,0.9688 -2.89702,0.2545 -5.24369,2.6024 -5.5,5.5 -1.2704,0 -1.28747,0.9691 0,1 0.22832,2.9166 2.58482,5.2193 5.5,5.4687 0,1.4047 1,1.3561 1,0 2.93539,-0.2223 5.24644,-2.5319 5.46875,-5.4687 1.39463,0 1.35593,-1 0,-1 -0.24961,-2.9178 -2.55172,-5.2732 -5.46875,-5.5 0,-0.6352 -0.25386,-0.9666 -0.5,-0.9688 z m -0.5,2.2813 0,3.5 -2.46875,-2.4688 c 0.68849,-0.5601 1.53653,-0.9285 2.46875,-1.0312 z m 1,0 c 0.93137,0.099 1.77401,0.4754 2.46875,1.0312 l -2.46875,2.4688 0,-3.5 z m 3.1875,1.7187 c 0.55874,0.6877 0.9282,1.5367 1.03125,2.4688 l -3.5,0 2.46875,-2.4688 z m -7.34375,0.031 2.4375,2.4375 -3.46875,0 c 0.10768,-0.9146 0.48288,-1.7563 1.03125,-2.4375 z m 3.65625,2.1876 c 0.41421,0 0.75,0.3358 0.75,0.75 0,0.4142 -0.33579,0.75 -0.75,0.75 -0.41422,0 -0.75,-0.3358 -0.75,-0.75 0,-0.4142 0.33578,-0.75 0.75,-0.75 z m -4.6875,1.25 3.53125,0 -2.5,2.5 c -0.56383,-0.6972 -0.9343,-1.5589 -1.03125,-2.5 z m 5.84375,0 3.5625,0 c -0.10016,0.952 -0.49367,1.8015 -1.0625,2.5 l -2.5,-2.5 z m -1.65625,0.7187 0,3.5 c -0.93209,-0.103 -1.78111,-0.4725 -2.46875,-1.0312 l 2.46875,-2.4688 z m 1,0 2.46875,2.5 c -0.68769,0.5444 -1.53884,0.9053 -2.46875,1 l 0,-3.5 z"
       inkscape:connector-curvature="0" />
    <path
       style="color:#000000;fill:#1a1a1a;fill-opacity:1"
       id="rect7432-3-9"
       d="m 136,957.36219 c -1,0 -1,1 -1,1 l 0,3 -4,0 0,2 4,0 0,8 2,0 0,-8 4,0 0,-2 -4,0 0,-3 c 0,0 0,-1 -1,-1 z"
       inkscape:connector-curvature="0" />
    <path
       style="fill:#1a1a1a;fill-opacity:1;stroke:none"
       id="path9933"
       d="m 183,959.36217 c 0,0 1.59835,2.8202 4,0.5 0.33098,0.5 1,1.5 1,1.5 0,0 -3.44337,2.3559 -5,-2 z m -5,2 c 0.28862,0.6088 0.66053,1.3573 1,2 0.50445,-1 2,-1 2,-1 1,0 1.73386,0.3918 1.73386,1.0271 0,0.6353 -0.73386,0.9729 -1.73386,0.9729 0,0 0,1 0,1.5 1.31086,-0.2487 2.00263,0.7895 1.68215,1.507 -0.6072,1.3593 -4.17822,1.5196 -5.68215,-1.007 0,3.9878 3.44149,4 4,4 2,0 3,-2 3,-4 0.5208,0.543 1.35486,0.5456 2,0 0.9048,-0.7653 1.2587,-2.0101 2.5,-2 1.51371,0.012 1.5,3 0.5,4 -1,1 -3.39404,0.6447 -4,-1 0,1 0,3.0013 3,3 3,-10e-4 3.60813,-3.384 2.5,-6 -0.68487,-1.6169 -1.96711,-2.0501 -3.34998,-1.6217 -1.06811,0.3309 -1.01923,0.8043 -1.65002,1.6217 -0.32944,0.3957 -0.5,1 -1.5,1 -0.34712,0 -0.77168,-0.2745 -1,-0.5 1.23814,-0.8849 1.0558,-2.5871 0,-3.5 -1.38785,-1.2001 -3.84013,-0.9548 -5,0 z m 6,-2 1,-1 1,1 -1,1 z"
       inkscape:connector-curvature="0" />
    <path
       style="color:#000000;fill:#1a1a1a;fill-opacity:1"
       id="path7552-2-1"
       d="m 39,982.3622 c -3.39042,0 -6,2.6096 -6,6 0,3.3904 2.60958,6 6,6 1.89566,0 3.87391,-0.6497 5,-2 -0.7358,0.479 -2.0566,1 -3,1 -2.59267,0 -5,-2.4073 -5,-5 0,-2.5927 2.40733,-5 5,-5 0.9434,0 2.2642,0.5211 3,1 -1.12609,-1.3502 -3.10434,-2 -5,-2 z m 4.5,3 -1,2 -2.5,0 2,1.5 -1,2.5 2.5,-1.5 2.5,1.5 -1,-2.5 2,-1.5 -2.5,0 -1,-2 z"
       inkscape:connector-curvature="0" />
    <path
       style="fill:#1a1a1a;fill-opacity:1;stroke:none"
       id="path3117"
       d="m 63.923651,981.3623 c -0.82843,0 -1.5,0.6715 -1.5,1.5 0,0.8284 0.67157,1.5 1.5,1.5 0.82842,0 1.5,-0.6716 1.5,-1.5 0,-0.8285 -0.67158,-1.5 -1.5,-1.5 z m -5.33222,4.5731 1.33222,2.4269 3,-1 1,4 -2,2 c -0.27119,0.305 -0.46611,0.4587 -0.5,1 0,0.9999 1,0.9999 1,0.9999 l 6,0 c 0,0 1,0 1,-0.9999 0,-1 -1,-1 -1,-1 l -3,0 1,-1 c 1,-1 0.92898,-1.4727 0.8125,-2 l -0.8125,-4 c -0.23939,-0.8935 -0.86222,-1.3297 -2,-1.15 l -1,0.15 -3,1.5 -1,-1.5 c -0.44117,-0.5877 -1.18322,-0.082 -0.83222,0.5731 z"
       inkscape:connector-curvature="0" />
    <path
       style="fill:#1a1a1a;fill-opacity:1"
       id="path2051"
       d="m 81,981.3465 c 0,1 0.65455,1.6549 1,2 0.345461,0.3451 0.842681,0.2122 0.842681,0.4725 0,0 0.15732,0.5275 0.65732,0.5275 l 1.25,0 c 0,0.2876 0.25,0.5 0.25,0.5 0,0 -0.25,0.1405 -0.25,0.5 l -1.25,0 c -0.5,0 -0.5,0.25 -0.5,0.5 0,0.5273 0,1 0,1 0,0.2397 0.2311,0.5 0.5,0.5 0.2689,0 1.25,0 1.25,0 l 0,1 -0.75,0 c 0,0.406 0.27061,0.7316 0.75,1 0,0.3164 0,5.5 0,5.5 0,0.6587 1.5,0.7158 1.5,0 l 0,-7.5 3.5,0 0,7.5 c 0,0.6918 1.5,0.6439 1.5,0 0,0 0,-5.1836 0,-5.5 0.4794,-0.3116 0.75,-0.5925 0.75,-1 l -0.75,0 0,-1 c 0,0 0.9811,0 1.25,0 0.22096,0 0.5,-0.2603 0.5,-0.5 0,0 0,-0.5 0,-1 0,-0.5 -0.27434,-0.5 -0.5,-0.5 l -1.25,0 c 0.024,-0.2637 -0.25,-0.5 -0.25,-0.5 0,0 0.25,-0.2124 0.25,-0.5 l 1.25,0 c 0.5,0 0.5,-0.5 0.5,-0.5 0,-0.2363 0.58285,-0.1386 1,-0.5 0.41716,-0.3614 1,-1 1,-2 -6,1 -9,1 -14.000001,0 z m 5.250001,3 c -1.4e-4,0 1,0 1,0 l 0,1 -1,0 c 0,-0.2876 -0.25,-0.5 -0.25,-0.5 0,0 0.25,-0.1884 0.25,-0.5 z m 2.5,0 1,0 c 0,0.2648 0.25,0.5 0.25,0.5 0,0 -0.25,0.2363 -0.25,0.5 l -1,0 z"
       inkscape:connector-curvature="0" />
    <path
       style="fill:#1a1a1a;fill-opacity:1;stroke:none"
       id="path2978"
       d="m 111.98433,981.3622 -1.00261,1 c 0.0626,0.4367 0.0784,0.7749 0.12533,1.1562 -1.2244,0.3798 -2.13055,1.4976 -2.13055,2.8438 0,1.3565 0.9229,2.4728 2.16188,2.8437 -0.051,0.3761 -0.0854,0.7295 -0.15666,1.1563 l 0.50131,0.5 0,0.4062 c -0.92163,-0.6207 -1.90152,-1.311 -2.50653,-1.9062 -2.03281,-2 -1.49618,-5.5 1.00261,-7 -1.99903,0.5 -3.97911,2.3084 -3.97911,5 0,3 2.9765,4 2.9765,5 l 1.00261,-1 1.2846,0.7187 c -0.61417,0.3796 -1.2846,0.7813 -1.2846,0.7813 l 0.50131,0.5 1.06527,-0.5938 0,0.7188 c -0.32543,0.1652 -0.56397,0.4858 -0.56397,0.875 0,0.5523 0.44889,1 1.00261,1 0.55373,0 1.00261,-0.4477 1.00261,-1 0,-0.3892 -0.2072,-0.7098 -0.53263,-0.875 l 0,-0.7188 1.03394,0.5938 0.50131,-0.5 c 0,0 -0.70672,-0.4427 -1.25327,-0.7813 l 1.25327,-0.7187 1.00261,1 c 0,-1 3.00783,-2 3.00783,-5 0,-2.6916 -2.00522,-4.5 -4.01044,-5 2.50652,1.5 3.04172,5 1.00261,7 -0.6148,0.603 -1.57122,1.3109 -2.50653,1.9375 l 0,-0.4375 0.5013,-0.5 c -0.0692,-0.4143 -0.10655,-0.7749 -0.15665,-1.1563 1.23898,-0.3709 2.16188,-1.4872 2.16188,-2.8437 0,-1.3566 -0.9229,-2.4728 -2.16188,-2.8438 0.0501,-0.3814 0.0874,-0.742 0.15665,-1.1562 l -1.00261,-1 z m 0.72063,3.125 c 0.75333,0.2877 1.2846,1.0224 1.2846,1.875 0,0.8525 -0.53127,1.5872 -1.2846,1.875 -0.12126,-1.2891 -0.12126,-2.461 0,-3.75 z m -1.50392,0.031 c 0.009,0 0.0223,0 0.0313,0 0.13493,1.3899 0.15102,2.4826 0.0313,3.7187 -0.75333,-0.2878 -1.28459,-1.0224 -1.28459,-1.875 0,-0.8284 0.50223,-1.5401 1.22193,-1.8437 z m -1.72323,8.8437 c -0.27687,0 -0.50131,0.2239 -0.50131,0.5 0,0.2762 0.22444,0.5 0.50131,0.5 0.27686,0 0.5013,-0.2238 0.5013,-0.5 0,-0.2761 -0.22444,-0.5 -0.5013,-0.5 z m 5.01305,0 c -0.27686,0 -0.5013,0.2239 -0.5013,0.5 0,0.2762 0.22444,0.5 0.5013,0.5 0.27686,0 0.50131,-0.2238 0.50131,-0.5 0,-0.2761 -0.22445,-0.5 -0.50131,-0.5 z"
       inkscape:connector-curvature="0" />
    <path
       style="fill:#1a1a1a;fill-opacity:1;stroke:none"
       id="path2987-57"
       d="m 136,995.3622 c 3.85808,0 7,-3.1691 7,-7 0,-3.8309 -3.12273,-6.9999 -7,-6.9999 -3.87728,0 -7,3.1398 -7,6.9999 0,3.8601 3.14192,7 7,7 z m 0,-1 c -3.31963,0 -6,-2.6804 -6,-6 0,-3.3196 2.68037,-5.9999 6,-5.9999 3,0 4,5.4793 0,5.9999 -4,0.5206 -2.91526,6 0,6 z m 0,-2 c -0.55229,0 -1,-0.4477 -1,-1 0,-0.5523 0.44771,-1 1,-1 0.55228,0 1,0.4477 1,1 0,0.5523 -0.44772,1 -1,1 z m 0,-6 c 0.55228,0 1,-0.4477 1,-1 0,-0.5523 -0.44772,-1 -1,-1 -0.55229,0 -1,0.4477 -1,1 0,0.5523 0.44771,1 1,1 z"
       inkscape:connector-curvature="0" />
    <path
       style="fill:#1a1a1a;fill-opacity:1;stroke:none"
       id="path4964"
       d="m 160.90625,984.3312 c -0.2893,10e-4 -0.59375,0.01 -0.90625,0.031 l 0,4 -1,0 0,-3.875 c -0.74185,0.1106 -1.40372,0.2633 -2,0.4687 l 0,3.4063 -1,0 0,-3 c -2.09509,1.0363 -3,2.6603 -3,4 l 0,2 c 0,0.5932 0.42373,1 1,1 l 12,0 c 0.57627,0 1,-0.4238 1,-1 l 0,-2 c 0,-1.5399 -1.17337,-4.2794 -4,-4.8438 l 0,3.8438 -1,0 0,-3.9688 c -0.34827,-0.032 -0.70447,-0.064 -1.09375,-0.062 z"
       inkscape:connector-curvature="0" />
    <path
       style="fill:#1a1a1a;fill-opacity:1"
       id="path7042"
       d="m 191,995.3622 -6,-11 1,-3 -1,0 -1,2 -1,-2 -1,0 1,3 -6,11 z m -7,-7 3,6 -6,0 z"
       inkscape:connector-curvature="0" />
    <path
       style="fill:#1a1a1a;fill-opacity:1;stroke:none"
       id="path2988"
       d="m 16.000001,1006.3622 -6.0000013,2 0,1 12.0000013,0 0,-1 z m -6.0000013,4 0,1 1.0000003,0 0,5 -1.0000003,0 -0.9999997,2 14.000001,0 -1,-2 -1,0 0,-5 1,0 0,-1 z m 4.0000013,1 c 0.49737,0 1,0.5326 1,1 l 0,4 -2,0 0,-4 c 0,-0.5274 0.50263,-1 1,-1 z m 4,0 c 0.50336,0 1,0.4726 1,1 l 0,4 -2,0 0,-4 c 0,-0.5274 0.49664,-1 1,-1 z"
       inkscape:connector-curvature="0" />
    <path
       style="fill:#1a1a1a;fill-opacity:1;stroke:none;display:inline"
       id="path7712-0"
       d="m 47,1013.3622 0,1 -6,-1 0,3 2,2 0,1 -3,-1 -3,1 0,-1 2,-2 0,-3 -6,1 0,-1 6,-3 0,-3 c 0,-1 0.22222,-2 1,-2 0.77777,0 1,1 1,2 l 0,3 z"
       inkscape:connector-curvature="0" />
    <path
       style="fill:#1a1a1a;fill-opacity:1;stroke:none"
       id="path2987-39"
       d="m 58,957.36219 c -0.54237,0 -1,0.4576 -1,1 l 0,2 c 0,0.5593 0.48862,1 1,1 l 0,-2 12,0 0,2 c 0.51138,0 1,-0.4857 1,-1 l 0,-2 c 0,-0.5424 -0.49152,-1 -1,-1 z m 1,3 0,8 c 0,0.5992 0.40076,1 1,1 l 8,0 c 0.52733,0 1,-0.4487 1,-1 l 0,-8 -1,0 0,6 c -1,0 -2,1 -2,2 l -4,0 c 0,-1 -1,-2 -2,-2 l 0,-6 z m 5,1 c -1.5708,0 -3,0.9528 -3,2 0,1.0472 1.4292,2 3,2 1.5708,0 3,-0.9528 3,-2 0,-1.0472 -1.4292,-2 -3,-2 z m -5,8.5 c 0,1.0547 0.42473,1.5 1,1.5 l 8,0 c 0.52733,0 1,-0.4453 1,-1.5 -0.30508,0.2712 -0.49664,0.4927 -1,0.4688 l -8,0.062 c -0.47939,-0.024 -0.69491,-0.2262 -1,-0.5313 z"
       inkscape:connector-curvature="0" />
    <path
       style="fill:#1a1a1a;fill-opacity:1;stroke:none"
       id="path4639"
       d="m 84.000001,933.36216 c -1,0 -3.000001,2 -3.000001,5 0,3 2.000001,4 2.000001,4 l -0.5,5 3,0 -0.5,-5 c 0,0 2,-1 2,-4 0,-3 -2,-5 -3,-5 z m 6,0 0,7 c 0,1 1.5,1 1.5,2 l -0.5,5 3,0 -0.5,-5 c 0,-1 1.5,-1 1.5,-2 l 0,-7 -1,0 0,6 c 0,0.56329 -1,0.56329 -1,0 l 0,-6 -1,0 0,6 c 0,0.52733 -1,0.52733 -1,0 l 0,-6 -1,0 z"
       inkscape:connector-curvature="0" />
    <path
       style="color:#000000;fill:#1a1a1a;fill-opacity:1"
       id="rect9826-2-1-5-9"
       d="m 10,934.36217 0,6 c 0,2 2,3 4.5,3 2.5,0 4.5,-1 4.5,-3 l 2,0 c 1,0 2,-1 2,-2 l 0,-1 c 0,-1 -1,-2 -2,-2 l -2,0 0,-1 z m 9,2.25 1.75,0 c 0.66779,0 1,0.56284 1,1.25 0,0.68716 -0.3882,1.25 -1,1.25 l -1.75,0 z m -10,7.75 c 0,1 1.000001,2 2.000001,2 l 6.999999,0 c 1,0 2,-1 2,-2 z"
       inkscape:connector-curvature="0" />
    <path
       style="fill:#1a1a1a;fill-opacity:1;stroke:none"
       id="path3058"
       d="m 154,910.36216 5.5,6 0,4 c 0,0 -4.5,1 -4.5,2 l 10,0 c 0,-1 -4.5,-2 -4.5,-2 l 0,-4 5.5,-6 z"
       inkscape:connector-curvature="0" />
    <path
       style="fill:#1a1a1a;fill-opacity:1;stroke:none"
       id="path4454"
       d="m 59,934.36216 2,12 6,0 2,-12 z m 1.25,1 7.5,0 -0.5,3.0938 c -1.1861,0.5903 -2.30064,0.5517 -3.25,-0.094 -0.99316,-0.6399 -1.90817,-0.6686 -3.25,0 z"
       inkscape:connector-curvature="0" />
    <path
       style="fill:#1a1a1a;fill-opacity:1;stroke:none"
       id="path4470"
       d="m 180,909.36217 c -1,0 -2,1 -2,2 l 0,10 c 0,1 -1,2 -1,2 l 11,0 c 0,0 -1,-1 -1,-2 l 3,0 c 1,0 1,-1 1,-1 l 0,-6 c 0,-1 -1,-2 -2,-2 l -2,0 0,-1 c 0,-1.2397 -0.73633,-2 -2,-2 z m 1,1 3,0 c 1.38098,0 2,0.3528 2,1 -3,0 -5.14541,0.1977 -5,3 0,2 -2,2 -2,0 l 0,-2 c 0,-1.5033 0.49663,-2 2,-2 z m 6,3.5 1,0 c 0.69025,0 1.5,0.027 1.5,1.5 l 0,4.5 -2.5,0 z m -8,7.5 7,0 0,1 -7,0 z"
       inkscape:connector-curvature="0" />
    <path
       style="color:#000000;fill:#1a1a1a;fill-opacity:1"
       id="path3"
       d="m 61,1005.3622 c -2,0 -3,3 -3,7 l 0,5.5 1,0 c 0,0.5157 0,1.5 1,1.5 1,0 1,-0.9843 1,-1.5 l 6,0 c 0,0.4844 0,1.5 1,1.5 1,0 1,-1.0156 1,-1.5 l 1,0 0,-5.5 c 0,-4 -1,-7 -3,-7 z m 0,2 6,0 c 0.52733,0 1,2 1,5 l -8,-0.031 c 0,-2.9687 0.50336,-4.9687 1,-4.9687 z m -1,7.25 3,0 0,1.5 -3,0 z m 5,0 3,0 0,1.5 -3,0 z"
       inkscape:connector-curvature="0" />
    <path
       id="path3252"
       style="color:#000000;fill:#1a1a1a;fill-opacity:1"
       d="m 84,1005.3622 c -1,0 -2,1 -2,2 l 0,10.4844 1,0 c 0,0.5156 0,1.5156 1,1.5156 1,0 1,-1 1,-1.5156 l 6,0.031 c 0,0.4844 0,1.4844 1,1.4844 1,0 1,-1 1,-1.4844 l 1,0 0,-10.5156 c 0,-1 -1,-2 -2,-2 z m 1,1 6,0 0,1 -6,0 z m -1,1.9688 8,0.031 0,4 -8,-0.031 z m 1,6.0312 c 0.552285,0 1,0.4478 1,1 0,0.5523 -0.447715,1 -1,1 -0.552284,0 -1,-0.4477 -1,-1 0,-0.5522 0.447716,-1 1,-1 z m 6,0 c 0.552285,0 1,0.4478 1,1 0,0.5523 -0.447715,1 -1,1 -0.552285,0 -1,-0.4477 -1,-1 0,-0.5522 0.447715,-1 1,-1 z"
       inkscape:connector-curvature="0" />
    <path
       style="fill:#1a1a1a;fill-opacity:1;stroke:none"
       id="path3150"
       d="m 107,1006.3622 1,1 5,0 0,2 -4.71875,0 c -0.35147,-0.3031 -0.78552,-0.5 -1.28125,-0.5 -1.09865,0 -2,0.9014 -2,2 0,1.0987 0.90135,2 2,2 0.42707,0 0.79829,-0.1433 1.125,-0.375 l 1.875,1.875 c 0,1 1,2 2,2 l 5,0 c 1,0 2,-1 2,-2 -0.0454,-2.4333 -2,-5 -5,-5 l 0,-2 4,0 1,-1 -12,0 z m 0,3.5 c 0.55821,0 1,0.4418 1,1 0,0.5583 -0.44179,1 -1,1 -0.55821,0 -1,-0.4417 -1,-1 0,-0.5582 0.44179,-1 1,-1 z m 7,0.5 c 2,0 4,2 4,4 l -3,0 c -0.52733,0 -1,-0.4915 -1,-1 l 0,-3 z m -3,7 c -0.52542,0 -0.49152,1 0,1 l 7,0 c 0.59322,0 0.55932,-1 0,-1 l -7,0 z"
       inkscape:connector-curvature="0" />
    <path
       style="fill:#1a1a1a;fill-opacity:1;stroke:none"
       id="rect4041"
       d="m 136,1005.3622 c -7,0 -7,6 -7,7 l 0,5 3,0 -1,2 3,0 1,-2 2,0 1,2 3,0 -1,-2 3,0 0,-5 c 0,-1 0,-7 -7,-7 z m -3,2 6,0 2,2 0,5 c 0,0.5763 -0.38983,1 -1,1 l -8,0 c -0.54237,0 -1,-0.4237 -1,-1 l 0,-5 2,-2 z m 1,1 c -1,0 -2,1 -2,2 l 0,2 8,0 0,-2 c 0,-1 -1,-2 -2,-2 l -4,0 z m -1.25,4.75 c -0.41421,0 -0.75,0.3358 -0.75,0.75 0,0.4142 0.33579,0.75 0.75,0.75 0.41421,0 0.75,-0.3358 0.75,-0.75 0,-0.4142 -0.33579,-0.75 -0.75,-0.75 z m 6.5,0 c -0.41421,0 -0.75,0.3358 -0.75,0.75 0,0.4142 0.33579,0.75 0.75,0.75 0.41421,0 0.75,-0.3358 0.75,-0.75 0,-0.4142 -0.33579,-0.75 -0.75,-0.75 z"
       inkscape:connector-curvature="0" />
    <path
       style="fill:#1a1a1a;fill-opacity:1;stroke:none"
       id="rect3226"
       d="m 158,1005.3622 c -1.97409,-0.01 -4,3 -4,7 l 0,2 c 0,1 1,2 2,2 l 8,0 c 1,0 2,-1 2,-2 l 0,-2 c 0,-4 -2,-7 -4,-7 z m -1,3 6,0 c 0,0 1,1 1,3 l -7.96875,0 c -0.0366,-2.0084 0.96875,-3 0.96875,-3 z m -1,5 3,0 0,1 -3,0 z m 5,0 3,0 0,1 -3,0 z m -6,4 -1,2 3,0 1,-2 z m 7,0 1,2 3,0 -1,-2 z"
       inkscape:connector-curvature="0" />
    <path
       style="fill:#1a1a1a;fill-opacity:1;stroke:none"
       id="rect3226-6"
       d="m 180.97059,1005.3622 -2.96875,3 0,7 c -0.0366,0.5753 0.47725,1.0005 1.03125,1 l 9.96875,0 c 0.554,-5e-4 1,-0.4007 1,-1 l 0,-7 -3,-3 z m 1.0625,1 3.96875,0 0,1 -3.96875,0 z m -2,2 7.96875,0 0,4 -7.96875,0 z m 0.78125,5 c 0.0104,-10e-5 0.0208,-10e-5 0.0312,0 0.57289,-0.091 1.16338,0.42 1.15625,1 0,0.5236 -0.4764,1 -1,1 -0.52359,0 -1,-0.4764 -1,-1 -0.008,-0.4666 0.35408,-0.9126 0.8125,-1 z m 6.03125,0 c 0.57289,-0.091 1.16338,0.42 1.15625,1 0,0.5236 -0.4764,1 -1,1 -0.5236,0 -1,-0.4764 -1,-1 -0.006,-0.4754 0.37417,-0.9257 0.84375,-1 z m -7.84375,4 -1,2 3,0 1,-2 z m 7,0 1,2 3,0 -1,-2 z"
       inkscape:connector-curvature="0" />
    <path
       style="fill:#1a1a1a;fill-opacity:1;stroke:none"
       id="rect4041-7"
       d="m 13.999999,1029.3466 c -1,0 -2,1 -2,2 l 0,7 c 0,1 1,2 2,2 l 4,0 c 1,0 2,-1 2,-2 l 0,-7 c 0,-1 -1,-2 -2,-2 z m 0,1 4,0 0,1 -4,0 z m 0,2 4,0 c 0.55362,0 1,0.446 1,1 l 0,2 c 0,0.6271 -0.42373,1 -1,1 l -4,0 c -0.55932,0 -1,-0.4068 -1,-1 l 0,-2 c 0,-0.554 0.44638,-1 1,-1 z m 2,5 c 0.55229,0 1,0.4477 1,1 0,0.5523 -0.44771,1 -1,1 -0.55228,0 -1,-0.4477 -1,-1 0,-0.5523 0.44772,-1 1,-1 z m -4,3.9843 -0.999999,2.0313 2.999999,-0.016 1,-2.0156 z m 5,0.016 1,2 3,0 -1,-2 z"
       inkscape:connector-curvature="0" />
    <path
       style="color:#000000;fill:#1a1a1a;fill-opacity:1"
       id="rect7432-3-9-6"
       d="m 160,957.36217 c -1,0 -1,1 -1,1 l 0,1 -2,0 0,2 2,0 0,1 -4,0 0,2 4,0 0,2.34375 -2,-0.34375 0,2 2,0.34375 0,2.65625 2,0 0,-2.34375 2,0.34375 0,-2 -2,-0.34375 0,-2.65625 4,0 0,-2 -4,0 0,-1 2,0 0,-2 -2,0 0,-1 c 0,0 0,-1 -1,-1 z"
       inkscape:connector-curvature="0" />
    <path
       style="fill:#1a1a1a;fill-opacity:1;stroke:none"
       id="t"
       d="M 16.03125,981.29967 14,984.83092 l -4,0 2,3.5 -2,3.5 4,0 2.03125,3.53125 2,-3.53125 3.96875,0 -1.96875,-3.5 1.96875,-3.5 -3.96875,0 -2,-3.53125 z m 0,2.5 0.59375,1.03125 -1.1875,0 0.59375,-1.03125 z m -3.90625,2.1875 1.21875,0 -0.625,1.0625 -0.59375,-1.0625 z m 2.65625,0 2.5,0 1.3125,2.34375 -1.3125,2.34375 -2.5,0 -1.3125,-2.34375 1.3125,-2.34375 z m 3.90625,0 1.25,0 -0.625,1.09375 -0.625,-1.09375 z m 0.625,3.59375 0.625,1.09375 -1.25,0 0.625,-1.09375 z m -6.59375,0.0312 0.625,1.0625 -1.21875,0 0.59375,-1.0625 z m 2.71875,2.21875 1.1875,0 -0.59375,1.03125 -0.59375,-1.03125 z"
       inkscape:connector-curvature="0" />
    <path
       style="fill:#1a1a1a;fill-opacity:1;stroke:none"
       id="path4885"
       d="m 36.40625,910.36217 c -0.75363,0.0472 -1.407726,0.7449 -1.40625,1.5 2.87e-4,0.78522 0.714784,1.49945 1.5,1.49945 0.785215,0 1.499713,-0.71423 1.5,-1.49945 0.0016,-0.81765 -0.777702,-1.5511 -1.59375,-1.5 z m 8,3 c -0.75363,0.0472 -1.407726,0.7449 -1.40625,1.5 2.87e-4,0.78522 0.714784,1.49945 1.5,1.49945 0.785216,0 1.499713,-0.71423 1.5,-1.49945 0.0016,-0.81765 -0.777702,-1.5511 -1.59375,-1.5 z m -8.40625,0.5 c -1.47099,0 -1.865835,1.87341 -1.96875,2.875 L 33,916.36217 l 0,1 5.96875,2.125 -0.96875,3.875 4,0 -0.9375,-3.125 5.9375,2.125 0,-1 -0.9375,-0.34375 c 0.164062,-0.86133 0.6875,-4.15625 -1.0625,-4.15625 -1.638462,0 -1.915209,2.2445 -1.96875,3.09375 l -5.9375,-2.125 C 37.285012,916.6997 37.614,913.86217 36,913.86217 z"
       inkscape:connector-curvature="0" />
  </g>
</svg>
