<?xml version="1.0" encoding="UTF-8" standalone="no"?>
<!-- Created with Inkscape (http://www.inkscape.org/) -->

<svg
   xmlns:dc="http://purl.org/dc/elements/1.1/"
   xmlns:cc="http://creativecommons.org/ns#"
   xmlns:rdf="http://www.w3.org/1999/02/22-rdf-syntax-ns#"
   xmlns:svg="http://www.w3.org/2000/svg"
   xmlns="http://www.w3.org/2000/svg"
   version="1.1"
   width="100%"
   height="100%"
   viewBox="0 0 18 18"
   id="svg2">
  <metadata
     id="metadata8">
    <rdf:RDF>
      <cc:Work
         rdf:about="">
        <dc:format>image/svg+xml</dc:format>
        <dc:type
           rdf:resource="http://purl.org/dc/dcmitype/StillImage" />
        <dc:title></dc:title>
      </cc:Work>
    </rdf:RDF>
  </metadata>
  <defs
     id="defs6" />
  <rect
     width="18"
     height="18"
     x="0"
     y="0"
     id="canvas"
     style="fill:none;stroke:none;visibility:hidden" />
  <g
     id="spring">
    <path
       d="M 10,2 C 8.46875,2 7,2.9998209 7,4.5 7,6.0001791 8,6.53125 9,10 10,6.5625 12.375,6 12.5,4.5 12.625,3 11.53125,2 10,2 z M 4.5,8.5 c -2.0182998,0 -2.4168338,2.697459 -1,4 C 4.916834,13.802541 6.387622,13.599599 8,16 8.400102,14 8.282636,13 8,12 7.717364,11 6.5183,8.5 4.5,8.5 z m 9,0.5 c -2.0183,0 -3.217364,2 -3.5,3 -0.2826361,1 -0.4001019,2 0,4 1.612378,-2.400401 3.583166,-1.697459 5,-3 1.416834,-1.302541 0.5183,-4 -1.5,-4 z"
       id="halo"
       style="opacity:0.3;fill:#ffffff;fill-opacity:1;stroke:#ffffff;stroke-width:2;stroke-miterlimit:4;stroke-opacity:1;stroke-dasharray:none" />
    <path
       d="M 10,2 C 8.46875,2 7,2.9998209 7,4.5 7,6.0001791 8,6.53125 9,10 10,6.5625 12.375,6 12.5,4.5 12.625,3 11.53125,2 10,2 z M 4.5,8.5 c -2.0183,0 -2.416834,2.697459 -1,4 C 4.916834,13.802541 6.387622,13.599599 8,16 8.400102,14 8.282636,13 8,12 7.717364,11 6.5183,8.5 4.5,8.5 z m 9,0.5 c -2.0183,0 -3.217364,2 -3.5,3 -0.282636,1 -0.400102,2 0,4 1.612378,-2.400401 3.583166,-1.697459 5,-3 1.416834,-1.302541 0.5183,-4 -1.5,-4 z"
       id="icon"
       style="fill:#1a1a1a;fill-opacity:1;stroke:none" />
  </g>
</svg>
