<?xml version="1.0" encoding="UTF-8" standalone="no"?>
<!-- Created with Inkscape (http://www.inkscape.org/) -->

<svg
   xmlns:dc="http://purl.org/dc/elements/1.1/"
   xmlns:cc="http://creativecommons.org/ns#"
   xmlns:rdf="http://www.w3.org/1999/02/22-rdf-syntax-ns#"
   xmlns:svg="http://www.w3.org/2000/svg"
   xmlns="http://www.w3.org/2000/svg"
   version="1.1"
   width="100%"
   height="100%"
   viewBox="0 0 18 18"
   id="svg2">
  <metadata
     id="metadata8">
    <rdf:RDF>
      <cc:Work
         rdf:about="">
        <dc:format>image/svg+xml</dc:format>
        <dc:type
           rdf:resource="http://purl.org/dc/dcmitype/StillImage" />
        <dc:title></dc:title>
      </cc:Work>
    </rdf:RDF>
  </metadata>
  <defs
     id="defs6" />
  <rect
     width="18"
     height="18"
     x="0"
     y="0"
     id="canvas"
     style="fill:none;stroke:none;visibility:hidden" />
  <g
     id="alcohol">
    <path
       d="M 5,2 C 4,2 4,2.4670568 4,3 L 4,5 C 4,6 2,6 2,8 l 0,7 c 0,0.566252 0.4670568,1 1,1 l 4,0 c 0.5995611,0 1,-0.400439 1,-1 L 8,8 C 8,6 6,6 6,5 L 6,3 C 6,2.4337479 6,2 5,2 z m 4,5 c 0,3 0.4710597,5 3,5 l 0,2 c 0,0.666911 -1,1 -1.5,1 -1,0 -1.5,0 -1.5,1 l 7,0 C 16,15 15.5,15 14.5,15 14,15 13,14.633602 13,14 l 0,-2 c 2.47106,0 3,-2 3,-5 L 9,7 z"
       id="halo"
       style="opacity:0.3;fill:#ffffff;fill-opacity:1;stroke:#ffffff;stroke-width:2;stroke-miterlimit:4;stroke-opacity:1;stroke-dasharray:none" />
    <path
       d="M 5,2 C 4,2 4,2.4670568 4,3 L 4,5 C 4,6 2,6 2,8 l 0,7 c 0,0.566252 0.467057,1 1,1 l 4,0 c 0.599561,0 1,-0.400439 1,-1 L 8,8 C 8,6 6,6 6,5 L 6,3 C 6,2.4337479 6,2 5,2 z m 4,5 c 0,3 0.47106,5 3,5 l 0,2 c 0,0.666911 -1,1 -1.5,1 -1,0 -1.5,0 -1.5,1 l 7,0 C 16,15 15.5,15 14.5,15 14,15 13,14.633602 13,14 l 0,-2 c 2.47106,0 3,-2 3,-5 L 9,7 z"
       id="icon"
       style="fill:#1a1a1a;fill-opacity:1;stroke:none" />
  </g>
</svg>
