<?xml version="1.0" encoding="UTF-8" standalone="no"?>
<!-- Created with Inkscape (http://www.inkscape.org/) -->

<svg
   xmlns:dc="http://purl.org/dc/elements/1.1/"
   xmlns:cc="http://creativecommons.org/ns#"
   xmlns:rdf="http://www.w3.org/1999/02/22-rdf-syntax-ns#"
   xmlns:svg="http://www.w3.org/2000/svg"
   xmlns="http://www.w3.org/2000/svg"
   version="1.1"
   width="100%"
   height="100%"
   viewBox="0 0 18 18"
   id="svg2">
  <metadata
     id="metadata8">
    <rdf:RDF>
      <cc:Work
         rdf:about="">
        <dc:format>image/svg+xml</dc:format>
        <dc:type
           rdf:resource="http://purl.org/dc/dcmitype/StillImage" />
        <dc:title></dc:title>
      </cc:Work>
    </rdf:RDF>
  </metadata>
  <defs
     id="defs6" />
  <rect
     width="18"
     height="18"
     x="0"
     y="0"
     id="canvas"
     style="fill:none;stroke:none;visibility:hidden" />
  <g
     id="books">
    <path
       d="M 4,2 C 2.4915254,2 2,3 2,4 2.02381,5 2.5423729,6 4,6 L 14,6 13,5 4,5 C 3,5 3,4 3,4 3,4 3,3 4,3 L 13,3 14,2 4,2 z m 0,1.75 0,0.5 9,0 0,-0.5 -9,0 z M 6,7 C 4.4915254,7 4,8 4,9 c 0.02381,1 0.5423729,2 2,2 l 10,0 -1,-1 -9,0 C 5,10 5,9 5,9 5,9 5,8 6,8 L 15,8 16,7 6,7 z m 0,1.75 0,0.5 9,0 0,-0.5 -9,0 z M 4,12 c -1.5084746,0 -2,1 -2,2 0.02381,1 0.5423729,2 2,2 l 10,0 -1,-1 -9,0 C 3,15 3,14 3,14 3,14 3,13 4,13 l 9,0 1,-1 -10,0 z m 0,1.75 0,0.5 9,0 0,-0.5 -9,0 z"
       id="halo"
       style="opacity:0.3;fill:#ffffff;fill-opacity:1;fill-rule:evenodd;stroke:#ffffff;stroke-width:2;stroke-miterlimit:4;stroke-opacity:1;stroke-dasharray:none" />
    <path
       d="M 4,2 C 2.491525,2 2,3 2,4 2.02381,5 2.542373,6 4,6 L 14,6 13,5 4,5 C 3,5 3,4 3,4 3,4 3,3 4,3 L 13,3 14,2 4,2 z m 0,1.75 0,0.5 9,0 0,-0.5 -9,0 z M 6,7 C 4.491525,7 4,8 4,9 c 0.02381,1 0.542373,2 2,2 l 10,0 -1,-1 -9,0 C 5,10 5,9 5,9 5,9 5,8 6,8 L 15,8 16,7 6,7 z m 0,1.75 0,0.5 9,0 0,-0.5 -9,0 z M 4,12 c -1.508475,0 -2,1 -2,2 0.02381,1 0.542373,2 2,2 l 10,0 -1,-1 -9,0 C 3,15 3,14 3,14 3,14 3,13 4,13 l 9,0 1,-1 -10,0 z m 0,1.75 0,0.5 9,0 0,-0.5 -9,0 z"
       id="icon"
       style="fill:#1a1a1a;fill-opacity:1;fill-rule:evenodd;stroke:none" />
  </g>
</svg>
