<?xml version="1.0" encoding="UTF-8" standalone="no"?>
<!-- Created with Inkscape (http://www.inkscape.org/) -->

<svg
   xmlns:dc="http://purl.org/dc/elements/1.1/"
   xmlns:cc="http://creativecommons.org/ns#"
   xmlns:rdf="http://www.w3.org/1999/02/22-rdf-syntax-ns#"
   xmlns:svg="http://www.w3.org/2000/svg"
   xmlns="http://www.w3.org/2000/svg"
   version="1.1"
   width="100%"
   height="100%"
   viewBox="0 0 14 14"
   id="svg2">
  <metadata
     id="metadata8">
    <rdf:RDF>
      <cc:Work
         rdf:about="">
        <dc:format>image/svg+xml</dc:format>
        <dc:type
           rdf:resource="http://purl.org/dc/dcmitype/StillImage" />
        <dc:title></dc:title>
      </cc:Work>
    </rdf:RDF>
  </metadata>
  <defs
     id="defs6" />
  <rect
     width="14"
     height="14"
     x="0"
     y="0"
     id="canvas"
     style="fill:none;stroke:none;visibility:hidden" />
  <path
     d="M 9.700862,0.50000006 4.691951,6.794002 7.60338,9.154253 11.360063,4.4337513 12.361845,5.2205015 8.605162,9.941003 l 0.782643,0.6294 4.382797,-5.5072515 C 14.104961,4.6435072 14.091164,4.0311329 13.614073,3.647001 L 9.700862,0.50000006 z M 9.85739,1.8532105 c 0.19112,-0.021234 0.370261,0.058436 0.532197,0.1888202 0.323872,0.2607681 0.384629,0.712938 0.125223,1.0385102 C 10.255403,3.406113 9.774288,3.4671891 9.450416,3.2064209 9.126544,2.9456527 9.065787,2.4620128 9.325193,2.1364406 9.454897,1.9736546 9.66627,1.8744445 9.85739,1.8532105 z M 4.065837,7.5807523 0.30915399,12.269784 c -0.238829,0.299746 -0.625368,0.786601 0.156529,1.41615 C 1.247579,14.315484 1.611727,13.858305 1.874439,13.528585 L 5.631122,8.839553 4.065837,7.5807523 z"
     id="butcher"
     style="fill:#000000;fill-opacity:1;stroke:none" />
</svg>
