<?xml version="1.0" encoding="UTF-8" standalone="no"?>
<!-- Created with Inkscape (http://www.inkscape.org/) -->

<svg
   xmlns:dc="http://purl.org/dc/elements/1.1/"
   xmlns:cc="http://creativecommons.org/ns#"
   xmlns:rdf="http://www.w3.org/1999/02/22-rdf-syntax-ns#"
   xmlns:svg="http://www.w3.org/2000/svg"
   xmlns="http://www.w3.org/2000/svg"
   version="1.1"
   width="100%"
   height="100%"
   viewBox="0 0 18 18"
   id="svg2">
  <metadata
     id="metadata8">
    <rdf:RDF>
      <cc:Work
         rdf:about="">
        <dc:format>image/svg+xml</dc:format>
        <dc:type
           rdf:resource="http://purl.org/dc/dcmitype/StillImage" />
        <dc:title></dc:title>
      </cc:Work>
    </rdf:RDF>
  </metadata>
  <defs
     id="defs6" />
  <rect
     width="18"
     height="18"
     x="0"
     y="0"
     id="canvas"
     style="fill:none;stroke:none;visibility:hidden" />
  <g
     id="florist">
    <path
       d="M 5,2 C 5.944406,4.8332196 4.233819,8.4334035 8.25,8.938 l 0,5.562 C 8.25,13.033993 5.997226,10 3,10 c 3,2 1,6 5,6 2,0 0,0 2,0 4,0 2,-4 5,-6 -2.997226,0 -5.25,2.944994 -5.25,4.5 l 0,-5.562 C 13.753428,8.4504075 12.055593,4.8332196 13,2 12,2 10.75,5 10.75,5 10.75,5 10,3 9,2 8,3 7.25,5 7.25,5 7.25,5 6,2 5,2 z"
       id="halo"
       style="opacity:0.3;fill:#ffffff;fill-opacity:1;stroke:#ffffff;stroke-width:2;stroke-miterlimit:4;stroke-opacity:1;stroke-dasharray:none" />
    <path
       d="M 5,2 C 5.944406,4.8332196 4.233819,8.4334035 8.25,8.938 l 0,5.562 C 8.25,13.033993 5.997226,10 3,10 c 3,2 1,6 5,6 2,0 0,0 2,0 4,0 2,-4 5,-6 -2.997226,0 -5.25,2.944994 -5.25,4.5 l 0,-5.562 C 13.753428,8.4504075 12.055593,4.8332196 13,2 12,2 10.75,5 10.75,5 10.75,5 10,3 9,2 8,3 7.25,5 7.25,5 7.25,5 6,2 5,2 z"
       id="icon"
       style="fill:#1a1a1a;fill-opacity:1;stroke:none" />
  </g>
</svg>
