<?xml version="1.0" encoding="UTF-8" standalone="no"?>
<!-- Created with Inkscape (http://www.inkscape.org/) -->

<svg
   xmlns:dc="http://purl.org/dc/elements/1.1/"
   xmlns:cc="http://creativecommons.org/ns#"
   xmlns:rdf="http://www.w3.org/1999/02/22-rdf-syntax-ns#"
   xmlns:svg="http://www.w3.org/2000/svg"
   xmlns="http://www.w3.org/2000/svg"
   version="1.1"
   width="100%"
   height="100%"
   viewBox="0 0 18 18"
   id="svg2">
  <metadata
     id="metadata8">
    <rdf:RDF>
      <cc:Work
         rdf:about="">
        <dc:format>image/svg+xml</dc:format>
        <dc:type
           rdf:resource="http://purl.org/dc/dcmitype/StillImage" />
        <dc:title></dc:title>
      </cc:Work>
    </rdf:RDF>
  </metadata>
  <defs
     id="defs6" />
  <rect
     width="18"
     height="18"
     x="0"
     y="0"
     id="canvas"
     style="fill:none;stroke:none;visibility:hidden" />
  <g
     id="furniture">
    <path
       d="M 5,4 C 4,4 3,5 3,6 5,6 6,7.5760463 6,9 l 6,0 C 12,7.4818344 13,6 15,6 15,5 14,4 13,4 z M 3,7 C 2,7 2,8 2,8 2,8.5181656 2.4818344,9 3,9 l 0,3 c 0,0.645252 0.4233506,1 1,1 l 0.5,0 c 0,0 0,1 1,1 1,0 1,-1 1,-1 l 5,0 c 0,0 0,1 1,1 1,0 1,-1 1,-1 l 0.5,0 c 0.509491,0 1,-0.48425 1,-1 l 0,-3 c 0.494613,0 1,-0.3876224 1,-1 0,0 0,-1 -1,-1 -1,0 -2,1 -2,3 L 5,10 C 5,8 4,7 3,7 z"
       id="halo"
       style="opacity:0.3;fill:#ffffff;fill-opacity:1;stroke:#ffffff;stroke-width:2;stroke-miterlimit:4;stroke-opacity:1;stroke-dasharray:none" />
    <path
       d="M 5,4 C 4,4 3,5 3,6 5,6 6,7.5760463 6,9 l 6,0 C 12,7.4818344 13,6 15,6 15,5 14,4 13,4 z M 3,7 C 2,7 2,8 2,8 2,8.5181656 2.481834,9 3,9 l 0,3 c 0,0.645252 0.423351,1 1,1 l 0.5,0 c 0,0 0,1 1,1 1,0 1,-1 1,-1 l 5,0 c 0,0 0,1 1,1 1,0 1,-1 1,-1 l 0.5,0 c 0.509491,0 1,-0.48425 1,-1 l 0,-3 c 0.494613,0 1,-0.3876224 1,-1 0,0 0,-1 -1,-1 -1,0 -2,1 -2,3 L 5,10 C 5,8 4,7 3,7 z"
       id="icon"
       style="fill:#1a1a1a;fill-opacity:1;stroke:none" />
  </g>
</svg>
