<?xml version="1.0" encoding="UTF-8" standalone="no"?>
<!-- Created with Inkscape (http://www.inkscape.org/) -->

<svg
   xmlns:dc="http://purl.org/dc/elements/1.1/"
   xmlns:cc="http://creativecommons.org/ns#"
   xmlns:rdf="http://www.w3.org/1999/02/22-rdf-syntax-ns#"
   xmlns:svg="http://www.w3.org/2000/svg"
   xmlns="http://www.w3.org/2000/svg"
   version="1.1"
   width="100%"
   height="100%"
   viewBox="0 0 18 18"
   id="svg2">
  <metadata
     id="metadata8">
    <rdf:RDF>
      <cc:Work
         rdf:about="">
        <dc:format>image/svg+xml</dc:format>
        <dc:type
           rdf:resource="http://purl.org/dc/dcmitype/StillImage" />
        <dc:title></dc:title>
      </cc:Work>
    </rdf:RDF>
  </metadata>
  <defs
     id="defs6" />
  <rect
     width="18"
     height="18"
     x="0"
     y="0"
     id="canvas"
     style="fill:none;stroke:none;visibility:hidden" />
  <g
     id="hairdresser">
    <path
       d="m 6,2 0,9.53125 C 5.580263,11.212414 5.064535,11 4.5,11 3.12521,11 2,12.12521 2,13.5 2,14.87479 3.12521,16 4.5,16 5.702941,16 6.703332,15.136374 6.9375,14 l 0.125,0 C 7.296668,15.136374 8.297059,16 9.5,16 10.87479,16 12,14.87479 12,13.5 12,12.12521 10.87479,11 9.5,11 8.935465,11 8.419737,11.212414 8,11.53125 L 8,2 z m 4,0 0,2 4,0 0,1 -4,0 0,1 4,0 0,1 -4,0 0,1 4,0 0,1 -4,0 0,1 4,0 0,6 2,0 0,-12 C 16,3 15,2 14,2 z M 4.5,12 C 5.334349,12 6,12.665651 6,13.5 6,14.334349 5.334349,15 4.5,15 3.665651,15 3,14.334349 3,13.5 3,12.665651 3.665651,12 4.5,12 z m 5,0 C 10.334349,12 11,12.665651 11,13.5 11,14.334349 10.334349,15 9.5,15 8.665651,15 8,14.334349 8,13.5 8,12.665651 8.665651,12 9.5,12 z"
       id="halo"
       style="opacity:0.3;fill:#ffffff;fill-opacity:1;stroke:#ffffff;stroke-width:2;stroke-miterlimit:4;stroke-opacity:1;stroke-dasharray:none" />
    <path
       d="m 6,2 0,9.53125 C 5.580263,11.212414 5.064535,11 4.5,11 3.12521,11 2,12.12521 2,13.5 2,14.87479 3.12521,16 4.5,16 5.702941,16 6.703332,15.136374 6.9375,14 l 0.125,0 C 7.296668,15.136374 8.297059,16 9.5,16 10.87479,16 12,14.87479 12,13.5 12,12.12521 10.87479,11 9.5,11 8.935465,11 8.419737,11.212414 8,11.53125 L 8,2 z m 4,0 0,2 4,0 0,1 -4,0 0,1 4,0 0,1 -4,0 0,1 4,0 0,1 -4,0 0,1 4,0 0,6 2,0 0,-12 C 16,3 15,2 14,2 z M 4.5,12 C 5.334349,12 6,12.665651 6,13.5 6,14.334349 5.334349,15 4.5,15 3.665651,15 3,14.334349 3,13.5 3,12.665651 3.665651,12 4.5,12 z m 5,0 C 10.334349,12 11,12.665651 11,13.5 11,14.334349 10.334349,15 9.5,15 8.665651,15 8,14.334349 8,13.5 8,12.665651 8.665651,12 9.5,12 z"
       id="icon"
       style="fill:#1a1a1a;fill-opacity:1;stroke:none" />
  </g>
</svg>
