<?xml version="1.0" encoding="UTF-8" standalone="no"?>
<!-- Created with Inkscape (http://www.inkscape.org/) -->

<svg
   xmlns:dc="http://purl.org/dc/elements/1.1/"
   xmlns:cc="http://creativecommons.org/ns#"
   xmlns:rdf="http://www.w3.org/1999/02/22-rdf-syntax-ns#"
   xmlns:svg="http://www.w3.org/2000/svg"
   xmlns="http://www.w3.org/2000/svg"
   version="1.1"
   width="100%"
   height="100%"
   viewBox="0 0 18 18"
   id="svg2">
  <metadata
     id="metadata8">
    <rdf:RDF>
      <cc:Work
         rdf:about="">
        <dc:format>image/svg+xml</dc:format>
        <dc:type
           rdf:resource="http://purl.org/dc/dcmitype/StillImage" />
        <dc:title></dc:title>
      </cc:Work>
    </rdf:RDF>
  </metadata>
  <defs
     id="defs6" />
  <rect
     width="18"
     height="18"
     x="0"
     y="0"
     id="canvas"
     style="fill:none;stroke:none;visibility:hidden" />
  <g
     id="kiosk">
    <path
       d="M 4,2 2,5 C 2,6.0419699 2.2302282,7 3.75,7 5.2697718,7 5.4967755,6.0003095 5.5,5 L 6.75,2 4,2 z M 8,2 7.25,5 c 0,1.0167432 0.1591382,2 1.75,2 1.590862,0 1.746852,-1.0233948 1.75,-2 L 10,2 8,2 z m 3.25,0 1.25,3 c 0,1.0227654 0.323901,2 1.75,2 C 15.676099,7 16,5.9832355 16,5 L 14,2 11.25,2 z M 3,8 3,16 15,16 15,8 3,8 z m 3,2 6,0 c 0.565272,0 1,0.505387 1,1 l 0,2 -8,0 0,-2 c 0,-0.541719 0.5053873,-1 1,-1 z"
       id="halo"
       style="opacity:0.3;fill:#ffffff;fill-opacity:1;stroke:#ffffff;stroke-width:2;stroke-miterlimit:4;stroke-opacity:1;stroke-dasharray:none" />
    <path
       d="M 4,2 2,5 C 2,6.0419699 2.230228,7 3.75,7 5.269772,7 5.496775,6.0003095 5.5,5 L 6.75,2 4,2 z M 8,2 7.25,5 c 0,1.0167432 0.159138,2 1.75,2 1.590862,0 1.746852,-1.0233948 1.75,-2 L 10,2 8,2 z m 3.25,0 1.25,3 c 0,1.0227654 0.323901,2 1.75,2 C 15.676099,7 16,5.9832355 16,5 L 14,2 11.25,2 z M 3,8 3,16 15,16 15,8 3,8 z m 3,2 6,0 c 0.565272,0 1,0.505387 1,1 l 0,2 -8,0 0,-2 c 0,-0.541719 0.505387,-1 1,-1 z"
       id="icon"
       style="fill:#1a1a1a;fill-opacity:1;stroke:none" />
  </g>
</svg>
