<?xml version="1.0" encoding="UTF-8" standalone="no"?>
<!-- Created with Inkscape (http://www.inkscape.org/) -->

<svg
   xmlns:dc="http://purl.org/dc/elements/1.1/"
   xmlns:cc="http://creativecommons.org/ns#"
   xmlns:rdf="http://www.w3.org/1999/02/22-rdf-syntax-ns#"
   xmlns:svg="http://www.w3.org/2000/svg"
   xmlns="http://www.w3.org/2000/svg"
   version="1.1"
   width="100%"
   height="100%"
   viewBox="0 0 18 18"
   id="svg2">
  <metadata
     id="metadata8">
    <rdf:RDF>
      <cc:Work
         rdf:about="">
        <dc:format>image/svg+xml</dc:format>
        <dc:type
           rdf:resource="http://purl.org/dc/dcmitype/StillImage" />
        <dc:title></dc:title>
      </cc:Work>
    </rdf:RDF>
  </metadata>
  <defs
     id="defs6" />
  <rect
     width="18"
     height="18"
     x="0"
     y="0"
     id="canvas"
     style="fill:none;stroke:none;visibility:hidden" />
  <g
     id="mobile-phone">
    <path
       d="M 8,2 C 7.5171638,2 7,2.3876224 7,3 L 7,4 C 5.8815,4.0818 5,4.90528 5,6 l 0,8 c 0,1.1488 0.803333,2 2,2 l 4,0 c 1.196667,0 2,-0.8512 2,-2 L 13,6 C 13,4.8512 12.196667,4 11,4 L 9,4 9,3 C 9,2.3640694 8.4828362,2 8,2 z m -2,4 6,0 0,7 -6,0 0,-7 z m 2,8 2,0 0,1 -2,0 0,-1 z"
       id="halo"
       style="opacity:0.3;fill:#ffffff;fill-opacity:1;stroke:#ffffff;stroke-width:2;stroke-miterlimit:4;stroke-opacity:1;stroke-dasharray:none" />
    <path
       d="M 8,2 C 7.517164,2 7,2.3876224 7,3 L 7,4 C 5.8815,4.0818 5,4.90528 5,6 l 0,8 c 0,1.1488 0.803333,2 2,2 l 4,0 c 1.196667,0 2,-0.8512 2,-2 L 13,6 C 13,4.8512 12.196667,4 11,4 L 9,4 9,3 C 9,2.3640694 8.482836,2 8,2 z m -2,4 6,0 0,7 -6,0 0,-7 z m 2,8 2,0 0,1 -2,0 0,-1 z"
       id="icon"
       style="fill:#1a1a1a;fill-opacity:1" />
  </g>
</svg>
