<?xml version="1.0" encoding="UTF-8" standalone="no"?>
<!-- Created with Inkscape (http://www.inkscape.org/) -->

<svg
   xmlns:dc="http://purl.org/dc/elements/1.1/"
   xmlns:cc="http://creativecommons.org/ns#"
   xmlns:rdf="http://www.w3.org/1999/02/22-rdf-syntax-ns#"
   xmlns:svg="http://www.w3.org/2000/svg"
   xmlns="http://www.w3.org/2000/svg"
   xmlns:sodipodi="http://sodipodi.sourceforge.net/DTD/sodipodi-0.dtd"
   xmlns:inkscape="http://www.inkscape.org/namespaces/inkscape"
   width="12"
   height="12"
   viewBox="0 0 12 12"
   id="svg4149"
   version="1.1"
   inkscape:version="0.91 r13725"
   sodipodi:docname="Parfuemerie-12.svg">
  <defs
     id="defs4151" />
  <sodipodi:namedview
     id="base"
     pagecolor="#ffffff"
     bordercolor="#666666"
     borderopacity="1.0"
     inkscape:pageopacity="0.0"
     inkscape:pageshadow="2"
     inkscape:zoom="11.2"
     inkscape:cx="-11.705087"
     inkscape:cy="6.2027011"
     inkscape:document-units="px"
     inkscape:current-layer="layer1"
     showgrid="false"
     units="px"
     inkscape:window-width="1600"
     inkscape:window-height="848"
     inkscape:window-x="-8"
     inkscape:window-y="-8"
     inkscape:window-maximized="1" />
  <metadata
     id="metadata4154">
    <rdf:RDF>
      <cc:Work
         rdf:about="">
        <dc:format>image/svg+xml</dc:format>
        <dc:type
           rdf:resource="http://purl.org/dc/dcmitype/StillImage" />
        <dc:title></dc:title>
      </cc:Work>
    </rdf:RDF>
  </metadata>
  <g
     inkscape:label="Ebene 1"
     inkscape:groupmode="layer"
     id="layer1"
     transform="translate(0,-1040.3622)">
    <path
       style="fill:#000000;fill-opacity:1;fill-rule:evenodd;stroke:none;stroke-width:1px;stroke-linecap:butt;stroke-linejoin:miter;stroke-opacity:1"
       d="m 4.5,1042.3622 c -0.4714045,0 -1,0.5286 -1,1 l 0,0.5 -1,0 0,1 1.0292969,0 -0.029297,1 -3.5,3.5 1,2 7,0 1,-2 -3.5,-3.5 0.015625,-1 c 1.2200374,-0.1819 2.5058264,0.081 3.9082031,1.9063 0,0 0.00826,1.0529 0.529855,1.7952 1.5485789,1.5051 2.0394019,0.7356 2.0463169,-0.3442 0.0048,-0.7455 -1.298752,-1.652 -1.960938,-1.7264 -0.8300818,-1.8087 -2.4151825,-2.4665 -4.523437,-2.6309 L 5.5,1043.3622 c -0.014724,-0.4712 -0.5285955,-1 -1,-1 z m -1,4 0.25,0 -1.25,3 -1.5,0 z m 0.75,0 0.25,0 0.5,3 -1.5,0 z"
       id="path4697"
       inkscape:connector-curvature="0"
       sodipodi:nodetypes="zscccccccccccccsccszcccccccccc" />
  </g>
</svg>
