<?xml version="1.0" encoding="UTF-8" standalone="no"?>
<!-- Created with Inkscape (http://www.inkscape.org/) -->

<svg
   xmlns:dc="http://purl.org/dc/elements/1.1/"
   xmlns:cc="http://creativecommons.org/ns#"
   xmlns:rdf="http://www.w3.org/1999/02/22-rdf-syntax-ns#"
   xmlns:svg="http://www.w3.org/2000/svg"
   xmlns="http://www.w3.org/2000/svg"
   version="1.1"
   width="100%"
   height="100%"
   viewBox="0 0 18 18"
   id="svg2">
  <metadata
     id="metadata8">
    <rdf:RDF>
      <cc:Work
         rdf:about="">
        <dc:format>image/svg+xml</dc:format>
        <dc:type
           rdf:resource="http://purl.org/dc/dcmitype/StillImage" />
        <dc:title></dc:title>
      </cc:Work>
    </rdf:RDF>
  </metadata>
  <defs
     id="defs6" />
  <rect
     width="18"
     height="18"
     x="0"
     y="0"
     id="canvas"
     style="fill:none;stroke:none;visibility:hidden" />
  <g
     id="pet">
    <path
       d="M 11.411975,2.0001154 C 10.168327,2.1438434 9.4622146,3.5073196 9.3723631,4.691616 9.2254583,5.744458 9.685076,7.0879119 10.790906,7.330002 11.749224,7.4154783 12.511649,6.5151564 12.824835,5.6563289 13.194695,4.5813544 13.205498,3.1458088 12.308054,2.3404706 12.058769,2.1244346 11.738687,1.9931995 11.411975,2.0001154 z M 6.3390413,2.0564819 C 5.3042341,2.1313404 4.7738409,3.3339245 4.8458176,4.2992458 4.8546461,5.5899697 5.5634301,7.041658 6.8560039,7.3480587 7.81996,7.4523035 8.4626655,6.42995 8.5225641,5.5360227 8.6455751,4.1679684 8.0394324,2.5107172 6.6667987,2.0976728 6.560112,2.0682082 6.4494671,2.0535841 6.3390413,2.0564819 z m 8.3150177,4.145106 c -1.388365,0.1017608 -2.266355,1.5813816 -2.326691,2.9184062 -0.07305,0.8707439 0.489487,1.9657609 1.436683,1.9057489 1.416562,-0.150155 2.270601,-1.7289627 2.235395,-3.100723 -0.0091,-0.7897291 -0.509551,-1.6905178 -1.345387,-1.7234321 z M 2.0097718,8.0064896 C 1.8812211,9.4879956 2.9179212,11.162509 4.4239082,11.25579 5.3366858,11.194827 5.767096,10.134698 5.6624839,9.2959551 5.5791191,8.0584036 4.7516663,6.7911191 3.6765852,6.6255612 2.6015045,6.4600032 1.9927264,7.2195313 2.0097718,8.0064896 z M 9.1583814,9.2703105 C 7.746494,9.2735989 6.4556107,10.196779 5.765468,11.445841 c -0.5782346,0.933425 -1.0509475,1.990156 -1.140853,3.105342 0.019666,0.860048 0.8402765,1.575843 1.6631221,1.404534 1.1736829,-0.152345 2.2224853,-0.967418 3.44297,-0.8147 1.0142829,0.08097 1.8507729,0.867483 2.8748439,0.856051 0.994345,0.03734 1.56796,-1.102139 1.188753,-1.994632 C 13.38625,12.724541 12.595123,11.613156 11.745993,10.612209 11.068634,9.8743933 10.181468,9.237645 9.1583814,9.2703105 z"
       id="halo"
       style="opacity:0.3;fill:#ffffff;fill-opacity:1;stroke:#ffffff;stroke-width:2;stroke-miterlimit:4;stroke-opacity:1;stroke-dasharray:none" />
    <path
       d="M 11.411975,2.0001154 C 10.168327,2.1438434 9.462215,3.5073196 9.372363,4.691616 9.225458,5.744458 9.685076,7.0879119 10.790906,7.330002 11.749224,7.415478 12.511649,6.5151564 12.824835,5.6563289 13.194695,4.5813544 13.205498,3.1458088 12.308054,2.3404706 12.058769,2.1244346 11.738687,1.9931995 11.411975,2.0001154 z M 6.339041,2.0564824 C 5.304234,2.1313404 4.773841,3.333925 4.845818,4.2992463 4.854618,5.5899702 5.56343,7.0416585 6.856004,7.3480592 7.81996,7.452304 8.462665,6.4299505 8.522564,5.5360232 8.645575,4.1679689 8.039432,2.5107177 6.666799,2.0976733 6.560112,2.0682083 6.449467,2.0535843 6.339041,2.0564823 z m 8.315018,4.145106 c -1.388365,0.1017608 -2.266355,1.5813816 -2.326691,2.9184062 -0.07305,0.8707439 0.489487,1.9657604 1.436683,1.9057494 1.416562,-0.150155 2.270601,-1.7289632 2.235395,-3.1007235 -0.0091,-0.7897291 -0.509551,-1.6905178 -1.345387,-1.7234321 z M 2.009772,8.0064901 C 1.881221,9.4879961 2.917921,11.16251 4.423908,11.255791 5.336686,11.194831 5.767096,10.134698 5.662484,9.2959556 5.579124,8.0584041 4.751666,6.7911196 3.676585,6.6255617 2.601505,6.4600037 1.992726,7.2195318 2.009772,8.0064901 z M 9.158381,9.270311 c -1.411887,0.00329 -2.70277,0.926469 -3.392913,2.175531 -0.578235,0.933425 -1.050947,1.990156 -1.140853,3.105342 0.01967,0.860048 0.840276,1.575842 1.663122,1.404534 1.173683,-0.152345 2.222485,-0.967418 3.44297,-0.8147 1.014283,0.08097 1.850773,0.867482 2.874844,0.856051 0.994345,0.03734 1.56796,-1.102139 1.188753,-1.994632 C 13.38625,12.724542 12.595123,11.613157 11.745993,10.61221 11.068634,9.8743938 10.181468,9.2376455 9.158381,9.270311 z"
       id="icon"
       style="fill:#1a1a1a;fill-opacity:1;stroke:none" />
  </g>
</svg>
