<?xml version="1.0" encoding="UTF-8" standalone="no"?>
<!-- Created with Inkscape (http://www.inkscape.org/) -->

<svg
   xmlns:dc="http://purl.org/dc/elements/1.1/"
   xmlns:cc="http://creativecommons.org/ns#"
   xmlns:rdf="http://www.w3.org/1999/02/22-rdf-syntax-ns#"
   xmlns:svg="http://www.w3.org/2000/svg"
   xmlns="http://www.w3.org/2000/svg"
   version="1.1"
   width="100%"
   height="100%"
   viewBox="0 0 18 18"
   id="svg2">
  <metadata
     id="metadata8">
    <rdf:RDF>
      <cc:Work
         rdf:about="">
        <dc:format>image/svg+xml</dc:format>
        <dc:type
           rdf:resource="http://purl.org/dc/dcmitype/StillImage" />
        <dc:title></dc:title>
      </cc:Work>
    </rdf:RDF>
  </metadata>
  <defs
     id="defs6" />
  <rect
     width="18"
     height="18"
     x="0"
     y="0"
     id="canvas"
     style="fill:none;stroke:none;visibility:hidden" />
  <g
     id="shoes">
    <path
       d="M 2.75,5 C 2.75,5 2,7.25 2,10.25 l 5.5,0 c 0.5,0 1.3063892,1 1.3,1 l 7.2,0 C 16,8.25 13,8 12,8 L 10,8 C 9,6 7,5 7,5 L 6.75,5 C 6,6.508412 4.016472,6.508412 3,5 z M 7.5,6 C 7.776142,6 8,6.2238577 8,6.5 8,6.7761423 7.776142,7 7.5,7 7.223858,7 7,6.7761423 7,6.5 7,6.2238577 7.223858,6 7.5,6 z m 1,1 C 8.776142,7 9,7.2238577 9,7.5 9,7.7761423 8.776142,8 8.5,8 8.223858,8 8,7.7761423 8,7.5 8,7.2238577 8.223858,7 8.5,7 z m -6.5,4 0,2 5.25,0 0,-2 z m 7.3,1 c 0,0 0.7,1 1.2,1 l 5.5,0 0,-1 z"
       id="halo"
       style="opacity:0.3;fill:#ffffff;fill-opacity:1;stroke:#ffffff;stroke-width:2;stroke-miterlimit:4;stroke-opacity:1;stroke-dasharray:none" />
    <path
       d="M 2.75,5 C 2.75,5 2,7.25 2,10.25 l 5.5,0 c 0.5,0 1.306389,1 1.3,1 l 7.2,0 C 16,8.25 13,8 12,8 L 10,8 C 9,6 7,5 7,5 L 6.75,5 C 6,6.508412 4.016472,6.508412 3,5 z M 7.5,6 C 7.776142,6 8,6.2238577 8,6.5 8,6.7761423 7.776142,7 7.5,7 7.223858,7 7,6.7761423 7,6.5 7,6.2238577 7.223858,6 7.5,6 z m 1,1 C 8.776142,7 9,7.2238577 9,7.5 9,7.7761423 8.776142,8 8.5,8 8.223858,8 8,7.7761423 8,7.5 8,7.2238577 8.223858,7 8.5,7 z m -6.5,4 0,2 5.25,0 0,-2 z m 7.3,1 c 0,0 0.7,1 1.2,1 l 5.5,0 0,-1 z"
       id="icon"
       style="fill:#1a1a1a;fill-opacity:1;stroke:none" />
  </g>
</svg>
