<?xml version="1.0" encoding="UTF-8" standalone="no"?>
<!-- Created with Inkscape (http://www.inkscape.org/) -->

<svg
   xmlns:dc="http://purl.org/dc/elements/1.1/"
   xmlns:cc="http://creativecommons.org/ns#"
   xmlns:rdf="http://www.w3.org/1999/02/22-rdf-syntax-ns#"
   xmlns:svg="http://www.w3.org/2000/svg"
   xmlns="http://www.w3.org/2000/svg"
   version="1.1"
   width="100%"
   height="100%"
   viewBox="0 0 18 18"
   id="svg2">
  <metadata
     id="metadata8">
    <rdf:RDF>
      <cc:Work
         rdf:about="">
        <dc:format>image/svg+xml</dc:format>
        <dc:type
           rdf:resource="http://purl.org/dc/dcmitype/StillImage" />
        <dc:title></dc:title>
      </cc:Work>
    </rdf:RDF>
  </metadata>
  <defs
     id="defs6" />
  <rect
     width="18"
     height="18"
     x="0"
     y="0"
     id="canvas"
     style="fill:none;stroke:none;visibility:hidden" />
  <g
     id="hostel">
    <path
       d="M 2.625,2 C 2.25,2 2,2.25 2,2.75 L 2,16 l 1.25,0 0,-2 11.5,0 0,2 1.25,0 C 16.02275,16 16,2.75 16,2.75 16,2.25 15.75,2 15.375,2 15,2 14.75,2.25 14.75,2.75 l 0,4.25 -11.5,0 0,-4.25 C 3.25,2.25 3,2 2.625,2 z M 5.5,3 C 4.671573,3 4,3.671573 4,4.5 4,5.328427 4.671573,6 5.5,6 6.328427,6 7,5.328427 7,4.5 7,3.671573 6.328427,3 5.5,3 z m 2,1 0,2 6.5,0 C 14,5 12.963825,4 12,4 z m -4.25,4 11.5,0 0,5 -11.5,0 c 0.02355,0 0,-5 0,-5 z M 5.5,9 C 4.671573,9 4,9.671573 4,10.5 4,11.328427 4.671573,12 5.5,12 6.328427,12 7,11.328427 7,10.5 7,9.671573 6.328427,9 5.5,9 z m 2,1 0,2 6.5,0.01288 C 14,11 12.963825,10 12,10 z"
       id="halo"
       style="opacity:0.3;fill:#ffffff;fill-opacity:1;stroke:#ffffff;stroke-width:2;stroke-miterlimit:4;stroke-opacity:1;stroke-dasharray:none" />
    <path
       d="M 2.625,2 C 2.25,2 2,2.25 2,2.75 L 2,16 l 1.25,0 0,-2 11.5,0 0,2 1.25,0 C 16.02275,16 16,2.75 16,2.75 16,2.25 15.75,2 15.375,2 15,2 14.75,2.25 14.75,2.75 l 0,4.25 -11.5,0 0,-4.25 C 3.25,2.25 3,2 2.625,2 z M 5.5,3 C 4.671573,3 4,3.671573 4,4.5 4,5.328427 4.671573,6 5.5,6 6.328427,6 7,5.328427 7,4.5 7,3.671573 6.328427,3 5.5,3 z m 2,1 0,2 6.5,0 C 14,5 12.963825,4 12,4 z m -4.25,4 11.5,0 0,5 -11.5,0 c 0.02355,0 0,-5 0,-5 z M 5.5,9 C 4.671573,9 4,9.671573 4,10.5 4,11.328427 4.671573,12 5.5,12 6.328427,12 7,11.328427 7,10.5 7,9.671573 6.328427,9 5.5,9 z m 2,1 0,2 6.5,0.01288 C 14,11 12.963825,10 12,10 z"
       id="icon"
       style="fill:#1a1a1a;fill-opacity:1;stroke:none" />
  </g>
</svg>
