<?xml version="1.0" encoding="UTF-8" standalone="no"?>
<!-- Created with Inkscape (http://www.inkscape.org/) -->

<svg
   xmlns:dc="http://purl.org/dc/elements/1.1/"
   xmlns:cc="http://creativecommons.org/ns#"
   xmlns:rdf="http://www.w3.org/1999/02/22-rdf-syntax-ns#"
   xmlns:svg="http://www.w3.org/2000/svg"
   xmlns="http://www.w3.org/2000/svg"
   version="1.1"
   width="100%"
   height="100%"
   viewBox="0 0 18 18"
   id="svg2">
  <metadata
     id="metadata8">
    <rdf:RDF>
      <cc:Work
         rdf:about="">
        <dc:format>image/svg+xml</dc:format>
        <dc:type
           rdf:resource="http://purl.org/dc/dcmitype/StillImage" />
        <dc:title></dc:title>
      </cc:Work>
    </rdf:RDF>
  </metadata>
  <defs
     id="defs6" />
  <rect
     width="18"
     height="18"
     x="0"
     y="0"
     id="canvas"
     style="fill:none;stroke:none;visibility:hidden" />
  <g
     id="hostel">
    <path
       d="M 2.625,2 C 2.25,2 2,2.25 2,2.75 L 2,16 l 1.25,0 0,-2 11.5,0 0,2 1.25,0 C 16.02275,16 16,2.75 16,2.75 16,2.25 15.75,2 15.375,2 15,2 14.75,2.25 14.75,2.75 l 0,4.25 -11.5,0 0,-4.25 C 3.25,2.25 3,2 2.625,2 z M 5.5,2.5 C 4.671573,2.5 4,3.171573 4,4 4,4.828427 4.671573,5.5 5.5,5.5 6.328427,5.5 7,4.828427 7,4 7,3.171573 6.328427,2.5 5.5,2.5 z m 2,0.5 0,3 6.5,0 0,-1.5 C 14,3.4560772 12.963825,3 12,3 L 7.5,3 z m -4.25,5 11.5,0 0,5 -11.5,0 c 0.02355,0 0,-5 0,-5 z M 5.5,8.5 C 4.671573,8.5 4,9.171573 4,10 4,10.828427 4.671573,11.5 5.5,11.5 6.328427,11.5 7,10.828427 7,10 7,9.171573 6.328427,8.5 5.5,8.5 z m 2,0.5 0,3 6.5,0 0,-1.5 C 14,9.4560772 12.963825,9 12,9 L 7.5,9 z"
       id="halo"
       style="opacity:0.3;fill:#ffffff;fill-opacity:1;stroke:#ffffff;stroke-width:2;stroke-miterlimit:4;stroke-opacity:1;stroke-dasharray:none" />
    <path
       d="M 2.625,2 C 2.25,2 2,2.25 2,2.75 L 2,16 l 1.25,0 0,-2 11.5,0 0,2 1.25,0 C 16.02275,16 16,2.75 16,2.75 16,2.25 15.75,2 15.375,2 15,2 14.75,2.25 14.75,2.75 l 0,4.25 -11.5,0 0,-4.25 C 3.25,2.25 3,2 2.625,2 z M 5.5,2.5 C 4.671573,2.5 4,3.171573 4,4 4,4.828427 4.671573,5.5 5.5,5.5 6.328427,5.5 7,4.828427 7,4 7,3.171573 6.328427,2.5 5.5,2.5 z m 2,0.5 0,3 6.5,0 0,-1.5 C 14,3.4560772 12.963825,3 12,3 L 7.5,3 z m -4.25,5 11.5,0 0,5 -11.5,0 c 0.02355,0 0,-5 0,-5 z M 5.5,8.5 C 4.671573,8.5 4,9.171573 4,10 4,10.828427 4.671573,11.5 5.5,11.5 6.328427,11.5 7,10.828427 7,10 7,9.171573 6.328427,8.5 5.5,8.5 z m 2,0.5 0,3 6.5,0 0,-1.5 C 14,9.4560772 12.963825,9 12,9 L 7.5,9 z"
       id="icon"
       style="fill:#1a1a1a;fill-opacity:1;stroke:none" />
  </g>
</svg>
