<?xml version="1.0" encoding="UTF-8" standalone="no"?>
<!-- Created with Inkscape (http://www.inkscape.org/) -->

<svg
   xmlns:dc="http://purl.org/dc/elements/1.1/"
   xmlns:cc="http://creativecommons.org/ns#"
   xmlns:rdf="http://www.w3.org/1999/02/22-rdf-syntax-ns#"
   xmlns:svg="http://www.w3.org/2000/svg"
   xmlns="http://www.w3.org/2000/svg"
   version="1.1"
   width="100%"
   height="100%"
   viewBox="0 0 18 18"
   id="svg2">
  <metadata
     id="metadata8">
    <rdf:RDF>
      <cc:Work
         rdf:about="">
        <dc:format>image/svg+xml</dc:format>
        <dc:type
           rdf:resource="http://purl.org/dc/dcmitype/StillImage" />
        <dc:title></dc:title>
      </cc:Work>
    </rdf:RDF>
  </metadata>
  <defs
     id="defs6" />
  <rect
     width="18"
     height="18"
     x="0"
     y="0"
     id="canvas"
     style="fill:none;stroke:none;visibility:hidden" />
  <g
     id="hotel">
    <path
       d="M 2.75,4.75 C 2.375,4.75 2,5 2,5.5 l 0,8.5 1.5,0 0,-2.5 9,0 0,2.5 1.5,0 0,-2.5 1.25,0 c 1,0 1,-1.5 0,-1.5 L 3.5,10 3.5,5.5 C 3.5,5 3.125,4.75 2.75,4.75 z M 6,6 C 5.1715729,6 4.5,6.671573 4.5,7.5 4.5,8.328427 5.1715729,9 6,9 6.8284271,9 7.5,8.328427 7.5,7.5 7.5,6.671573 6.8284271,6 6,6 z m 2,0 0,3 8,0 0,-1.5 C 16,6.4560772 14.963825,6 14,6 z"
       id="halo"
       style="opacity:0.3;fill:#ffffff;fill-opacity:1;stroke:#ffffff;stroke-width:2;stroke-miterlimit:4;stroke-opacity:1;stroke-dasharray:none" />
    <path
       d="M 2.75,4.75 C 2.375,4.75 2,5 2,5.5 l 0,8.5 1.5,0 0,-2.5 9,0 0,2.5 1.5,0 0,-2.5 1.25,0 c 1,0 1,-1.5 0,-1.5 L 3.5,10 3.5,5.5 C 3.5,5 3.125,4.75 2.75,4.75 z M 6,6 C 5.171573,6 4.5,6.671573 4.5,7.5 4.5,8.328427 5.171573,9 6,9 6.828427,9 7.5,8.328427 7.5,7.5 7.5,6.671573 6.828427,6 6,6 z m 2,0 0,3 8,0 0,-1.5 C 16,6.4560772 14.963825,6 14,6 z"
       id="icon"
       style="fill:#1a1a1a;fill-opacity:1;stroke:none" />
  </g>
</svg>
