<?xml version="1.0" encoding="UTF-8" standalone="no"?>
<!-- Created with Inkscape (http://www.inkscape.org/) -->

<svg
   xmlns:dc="http://purl.org/dc/elements/1.1/"
   xmlns:cc="http://creativecommons.org/ns#"
   xmlns:rdf="http://www.w3.org/1999/02/22-rdf-syntax-ns#"
   xmlns:svg="http://www.w3.org/2000/svg"
   xmlns="http://www.w3.org/2000/svg"
   version="1.1"
   width="100%"
   height="100%"
   viewBox="0 0 18 18"
   id="svg2">
  <metadata
     id="metadata8">
    <rdf:RDF>
      <cc:Work
         rdf:about="">
        <dc:format>image/svg+xml</dc:format>
        <dc:type
           rdf:resource="http://purl.org/dc/dcmitype/StillImage" />
        <dc:title></dc:title>
      </cc:Work>
    </rdf:RDF>
  </metadata>
  <defs
     id="defs6" />
  <rect
     width="18"
     height="18"
     x="0"
     y="0"
     id="canvas"
     style="fill:none;stroke:none;visibility:hidden" />
  <g
     id="hotel">
    <path
       d="M 2.625,5 C 2.25,5 2,5.25 2,5.75 l 0,7.25 1.25,0 0,-1.75 c 0,0 10.380697,0.01892 11.5,0 l 0,1.75 1.25,0 0,-2.375 0,-3.875 C 16,6.4202582 15.86199,6 15.375,6 14.88801,6 14.75,6.4202582 14.75,6.75 l 0,3.25 -11.5,0 0,-4.25 C 3.25,5.25 3,5 2.625,5 z M 5.5,5.5 C 4.671573,5.5 4,6.171573 4,7 4,7.828427 4.671573,8.5 5.5,8.5 6.328427,8.5 7,7.828427 7,7 7,6.171573 6.328427,5.5 5.5,5.5 z m 2,0.5 0,3 6.5,0 0,-1.5 C 14,6.4560772 12.963825,6 12,6 z"
       id="halo"
       style="opacity:0.3;fill:#ffffff;fill-opacity:1;stroke:#ffffff;stroke-width:2;stroke-miterlimit:4;stroke-opacity:1;stroke-dasharray:none" />
    <path
       d="M 2.625,5 C 2.25,5 2,5.25 2,5.75 l 0,7.25 1.25,0 0,-1.75 c 0,0 10.380697,0.01892 11.5,0 l 0,1.75 1.25,0 0,-2.375 0,-3.875 C 16,6.4202582 15.86199,6 15.375,6 14.88801,6 14.75,6.4202582 14.75,6.75 l 0,3.25 -11.5,0 0,-4.25 C 3.25,5.25 3,5 2.625,5 z M 5.5,5.5 C 4.671573,5.5 4,6.171573 4,7 4,7.828427 4.671573,8.5 5.5,8.5 6.328427,8.5 7,7.828427 7,7 7,6.171573 6.328427,5.5 5.5,5.5 z m 2,0.5 0,3 6.5,0 0,-1.5 C 14,6.4560772 12.963825,6 12,6 z"
       id="icon"
       style="fill:#1a1a1a;fill-opacity:1;stroke:none" />
  </g>
</svg>
