<?xml version="1.0" encoding="UTF-8" standalone="no"?>
<!-- Created with Inkscape (http://www.inkscape.org/) -->

<svg
   xmlns:dc="http://purl.org/dc/elements/1.1/"
   xmlns:cc="http://creativecommons.org/ns#"
   xmlns:rdf="http://www.w3.org/1999/02/22-rdf-syntax-ns#"
   xmlns:svg="http://www.w3.org/2000/svg"
   xmlns="http://www.w3.org/2000/svg"
   version="1.1"
   width="100%"
   height="100%"
   viewBox="0 0 16 16"
   id="svg2">
  <metadata
     id="metadata8">
    <rdf:RDF>
      <cc:Work
         rdf:about="">
        <dc:format>image/svg+xml</dc:format>
        <dc:type
           rdf:resource="http://purl.org/dc/dcmitype/StillImage" />
        <dc:title></dc:title>
      </cc:Work>
    </rdf:RDF>
  </metadata>
  <defs
     id="defs6" />
  <rect
     width="16"
     height="16"
     rx="2"
     ry="2"
     x="0"
     y="0"
     id="canvas"
     style="fill:#1a1a1a;fill-opacity:1;stroke:none;" />
  <path
     d="m 8,9 c 2,0 2,1 2,3 0,1 -1.0091211,3 0,3 1,0 1.751359,-1.142963 2,-3 0.248641,-1.857037 0,-3 0,-4 C 12,6 13,4 13,3 13,2 12.599761,1.21742 12,1 10,1 10,2 8,2 6,2 6,1 4,1 3.400799,1.21742 3,2 3,3 c 0,1 1,3 1,5 0,1 -0.1223902,2.57334 0,4 0.1223902,1.42666 1,3 2,3 1.008702,0 0,-2 0,-3 0,-2 0,-3 2,-3 z"
     id="dentist"
     style="fill:#ffffff;fill-opacity:1;stroke:none" />
</svg>
