<?xml version="1.0" encoding="UTF-8" standalone="no"?>
<!-- Created with Inkscape (http://www.inkscape.org/) -->

<svg
   xmlns:dc="http://purl.org/dc/elements/1.1/"
   xmlns:cc="http://creativecommons.org/ns#"
   xmlns:rdf="http://www.w3.org/1999/02/22-rdf-syntax-ns#"
   xmlns:svg="http://www.w3.org/2000/svg"
   xmlns="http://www.w3.org/2000/svg"
   version="1.1"
   width="16"
   height="16"
   id="svg2">
  <title
     id="title3759">Hospital</title>
  <defs
     id="defs4" />
  <metadata
     id="metadata7">
    <rdf:RDF>
      <cc:Work
         rdf:about="">
        <dc:format>image/svg+xml</dc:format>
        <dc:type
           rdf:resource="http://purl.org/dc/dcmitype/StillImage" />
        <dc:title>Hospital</dc:title>
        <dc:creator>
          <cc:Agent>
            <dc:title>nebulon42</dc:title>
          </cc:Agent>
        </dc:creator>
        <dc:rights>
          <cc:Agent>
            <dc:title />
          </cc:Agent>
        </dc:rights>
        <cc:license
           rdf:resource="http://creativecommons.org/licenses/publicdomain/" />
        <dc:contributor>
          <cc:Agent>
            <dc:title>twain47</dc:title>
          </cc:Agent>
        </dc:contributor>
      </cc:Work>
      <cc:License
         rdf:about="http://creativecommons.org/licenses/publicdomain/">
        <cc:permits
           rdf:resource="http://creativecommons.org/ns#Reproduction" />
        <cc:permits
           rdf:resource="http://creativecommons.org/ns#Distribution" />
        <cc:permits
           rdf:resource="http://creativecommons.org/ns#DerivativeWorks" />
      </cc:License>
    </rdf:RDF>
  </metadata>
  <rect
     width="16"
     height="16"
     rx="2"
     ry="2"
     x="0"
     y="9.5367432e-07"
     id="rect2984"
     style="fill:#1a1a1a;fill-opacity:1;stroke:none" />
  <path
     d="M 7.969,0.9375 C 4.1634395,0.9375 1,4.040179 1,7.96875 1,11.897322 4.1634395,15 7.969,15 11.774561,15 14.938,11.897321 14.938,7.96875 14.938,4.040179 11.774561,0.9375 7.969,0.9375 z M 7.969,2 c 3.374399,0 6.031466,2.71762 6.031466,5.96875 0,3.251131 -2.657067,5.96875 -6.031466,5.96875 -3.3744001,0 -6.0314664,-2.717619 -6.0314664,-5.96875 C 1.9375336,4.71762 4.5945999,2 7.969,2 z m -2.0000717,0.96875 0,3 -3.0001077,0 0,4 3.0001077,0 0,3 4.0001434,0 0,-3 3.0001073,0 0,-4 -3.0001073,0 0,-3 -4.0001434,0 z"
     id="path2989"
     style="fill:#ffffff;fill-opacity:1;stroke:none" />
</svg>
