<?xml version="1.0" encoding="UTF-8" standalone="no"?>
<!-- Created with Inkscape (http://www.inkscape.org/) -->

<svg
   xmlns:dc="http://purl.org/dc/elements/1.1/"
   xmlns:cc="http://creativecommons.org/ns#"
   xmlns:rdf="http://www.w3.org/1999/02/22-rdf-syntax-ns#"
   xmlns:svg="http://www.w3.org/2000/svg"
   xmlns="http://www.w3.org/2000/svg"
   version="1.1"
   width="100%"
   height="100%"
   viewBox="0 0 16 16"
   id="svg2">
  <path
     d="M 3.40625,1 C 2.6056697,1 2,1.7000112 2,2.5 2,3.2999888 2.6056697,4 3.40625,4 L 4,4 3,15 13,15 12,4 12.59375,4 C 13.39433,4 14,3.2999888 14,2.5 14,1.7000112 13.39433,1 12.59375,1 z m 0,1 9.1875,0 C 12.808836,2 13,2.1919888 13,2.5 13,2.8080112 12.808836,3 12.59375,3 L 11.95,3 11.9,2.5 4.1,2.5 4.05,3 3.40625,3 C 3.1911636,3 3,2.8080112 3,2.5 3,2.1919888 3.1911636,2 3.40625,2 z M 8,6 c 1.6568543,0 3,1.3431457 3,3 0,1.656854 -1.3431457,3 -3,3 C 6.3431458,12 5,10.656854 5,9 5,7.3431457 6.3431458,6 8,6 z M 6,8 6,9 7,10 8.3125,10 7.28125,9 10,9 10,8 z"
     id="rect3765"
     style="fill:#1a1a1a;fill-opacity:1;stroke:none;" />
</svg>
