<?xml version="1.0" encoding="UTF-8" standalone="no"?>
<!-- Created with Inkscape (http://www.inkscape.org/) -->

<svg
   xmlns:dc="http://purl.org/dc/elements/1.1/"
   xmlns:cc="http://creativecommons.org/ns#"
   xmlns:rdf="http://www.w3.org/1999/02/22-rdf-syntax-ns#"
   xmlns:svg="http://www.w3.org/2000/svg"
   xmlns="http://www.w3.org/2000/svg"
   version="1.1"
   width="100%"
   height="100%"
   viewBox="0 0 16 16"
   id="svg2">
  <rect
     width="16"
     height="16"
     rx="2"
     ry="2"
     x="0"
     y="0"
     id="rect2994"
     style="fill:#1a1a1a;fill-opacity:1;stroke:none" />
  <path
     d="M 8,1 5,6 3,3 c 0,0 -2,3 -2,6 0,3 3,6 7,6 4,0 7,-3 7,-6 C 15,6 13,3 13,3 L 11,6 8,1 z m 0,6 c 0,0 3.390796,2.335576 3.03125,4 -0.359546,1.664424 -2,2 -3,2 -1,0 -2.5685451,-0.359546 -3,-2 C 4.599795,9.3595461 8,7 8,7 z"
     id="path3875"
     style="fill:#ffffff;fill-opacity:1;stroke:none" />
</svg>
