<?xml version="1.0" encoding="UTF-8" standalone="no"?>
<!-- Created with Inkscape (http://www.inkscape.org/) -->

<svg
   xmlns:dc="http://purl.org/dc/elements/1.1/"
   xmlns:cc="http://creativecommons.org/ns#"
   xmlns:rdf="http://www.w3.org/1999/02/22-rdf-syntax-ns#"
   xmlns:svg="http://www.w3.org/2000/svg"
   xmlns="http://www.w3.org/2000/svg"
   version="1.1"
   width="100%"
   height="100%"
   viewBox="0 0 16 16"
   id="svg2">
  <rect
     width="16"
     height="16"
     rx="2"
     ry="2"
     x="0"
     y="-4.7683716e-07"
     id="rect2995"
     style="fill:#1a1a1a;fill-opacity:1;stroke:none" />
  <path
     d="M 6,1 5,2 5,3 11,3 11,2 10,1 z M 5,4 C 4.9667,4.168726 5,4.3395259 5,4.5185186 5,5.9503556 6.61931,7 8,7 9.38069,7 11,5.9503556 11,4.5185186 11,4.3395259 11,4 11,4 z M 5,8 C 3.5810939,8 3.01415,9.876578 3,11 L 3,15 4.53125,15 10,8 z M 11.5,8 6.03125,15 13,15 13,11 C 13,9.876474 12.727158,8 11.5,8 z"
     id="rect7805-5-4"
     style="color:#000000;fill:#ffffff;fill-opacity:1;stroke:none;stroke-width:2;marker:none;visibility:visible;display:inline;overflow:visible;enable-background:accumulate" />
</svg>
