<?xml version="1.0" encoding="UTF-8" standalone="no"?>
<!-- Created with Inkscape (http://www.inkscape.org/) -->

<svg
   xmlns:dc="http://purl.org/dc/elements/1.1/"
   xmlns:cc="http://creativecommons.org/ns#"
   xmlns:rdf="http://www.w3.org/1999/02/22-rdf-syntax-ns#"
   xmlns:svg="http://www.w3.org/2000/svg"
   xmlns="http://www.w3.org/2000/svg"
   version="1.1"
   width="100%"
   height="100%"
   viewBox="0 0 18 18"
   id="svg2">
  <metadata
     id="metadata8">
    <rdf:RDF>
      <cc:Work
         rdf:about="">
        <dc:format>image/svg+xml</dc:format>
        <dc:type
           rdf:resource="http://purl.org/dc/dcmitype/StillImage" />
        <dc:title></dc:title>
      </cc:Work>
    </rdf:RDF>
  </metadata>
  <defs
     id="defs6" />
  <rect
     width="18"
     height="18"
     rx="3"
     ry="3"
     x="0"
     y="0"
     id="shield"
     style="fill:#1a1a1a;stroke:none" />
  <path
       d="m 9.000211,2.0311595 c -0.246143,-0.00213 -0.48457,0.3250143 -0.5,0.96875 -2.897016,0.2545513 -5.243685,2.6023818 -5.5,5.5 -1.270395,0 -1.287472,0.96914 0,1 0.228319,2.9165635 2.584827,5.2192565 5.5,5.4687505 0,1.404649 1,1.356045 1,0 2.935396,-0.222296 5.24644,-2.531918 5.46875,-5.4687505 1.394629,0 1.355936,-1 0,-1 -0.249604,-2.9177553 -2.551719,-5.2731708 -5.46875,-5.5 0,-0.6351976 -0.253858,-0.9666155 -0.5,-0.96875 z m -0.5,2.28125 0,3.5 -2.46875,-2.46875 c 0.688492,-0.5601379 1.536531,-0.9285408 2.46875,-1.03125 z m 1,0 c 0.93137,0.098765 1.774011,0.4754302 2.46875,1.03125 l -2.46875,2.46875 0,-3.5 z m 3.1875,1.71875 c 0.558746,0.6876469 0.928206,1.536661 1.03125,2.46875 l -3.5,0 2.46875,-2.46875 z m -7.34375,0.03125 2.4375,2.4375 -3.46875,0 c 0.107683,-0.9146799 0.482886,-1.7563102 1.03125,-2.4375 z m 3.65625,2.1875 c 0.414213,0 0.75,0.3357863 0.75,0.75 0,0.414214 -0.335787,0.75 -0.75,0.75 -0.414214,0 -0.75,-0.335786 -0.75,-0.75 0,-0.4142137 0.335786,-0.75 0.75,-0.75 z m -4.6875,1.25 3.53125,0 -2.5,2.5000005 C 4.780132,11.302668 4.409666,10.441036 4.312711,9.4999095 z m 5.84375,0 3.5625,0 c -0.100162,0.9519805 -0.493668,1.8015395 -1.0625,2.5000005 l -2.5,-2.5000005 z m -1.65625,0.7187505 0,3.5 C 7.568122,13.615616 6.719108,13.246156 6.031461,12.68741 l 2.46875,-2.46875 z m 1,0 2.46875,2.5 c -0.687689,0.544344 -1.538834,0.905241 -2.46875,1 l 0,-3.5 z"
       id="buddhist"
       style="fill:#ffffff;fill-opacity:1;stroke:none" />
</svg>
