<?xml version="1.0" encoding="UTF-8" standalone="no"?>
<!-- Created with Inkscape (http://www.inkscape.org/) -->

<svg
   xmlns:dc="http://purl.org/dc/elements/1.1/"
   xmlns:cc="http://creativecommons.org/ns#"
   xmlns:rdf="http://www.w3.org/1999/02/22-rdf-syntax-ns#"
   xmlns:svg="http://www.w3.org/2000/svg"
   xmlns="http://www.w3.org/2000/svg"
   version="1.1"
   width="100%"
   height="100%"
   viewBox="0 0 16 16"
   id="svg2">
  <rect
     width="16"
     height="16"
     rx="2"
     ry="2"
     x="0"
     y="0"
     id="rect2986"
     style="fill:#1a1a1a;fill-opacity:1;stroke:none" />
  <path
     d="M 8,1 C 6.999999,1 7,2 7,2 L 7,3 5,3 5,5 7,5 7,6 3,6 3,8 7,8 7,10.34375 5,10 5,12 7,12.34375 7,15 9,15 9,12.65625 11,13 11,11 9,10.65625 9,8 13,8 13,6 9,6 9,5 11,5 11,3 9,3 9,2 c 0,0 10e-7,-1 -1,-1 z"
     id="rect7432-3-9"
     style="color:#000000;fill:#ffffff;fill-opacity:1" />
</svg>
