<?xml version="1.0" encoding="UTF-8" standalone="no"?>
<!-- Created with Inkscape (http://www.inkscape.org/) -->

<svg
   xmlns:dc="http://purl.org/dc/elements/1.1/"
   xmlns:cc="http://creativecommons.org/ns#"
   xmlns:rdf="http://www.w3.org/1999/02/22-rdf-syntax-ns#"
   xmlns:svg="http://www.w3.org/2000/svg"
   xmlns="http://www.w3.org/2000/svg"
   version="1.1"
   width="100%"
   height="100%"
   viewBox="0 0 16 16"
   id="svg2">
  <rect
     width="16"
     height="16"
     rx="2"
     ry="2"
     x="0"
     y="-4.7683716e-07"
     id="rect2985"
     style="fill:#1a1a1a;fill-opacity:1;stroke:none" />
  <path
     d="M 8,1 6.09375,4 1,4 3.53125,8 1,12 6.09375,12 8,15 9.90625,12 15,12 12.46875,8 15,4 9.90625,4 8,1 z M 8,3.1875 8.5,4 7.5,4 8,3.1875 z m -4.75,2 2.09375,0 L 4.28125,6.84375 3.25,5.1875 z m 3.5,0 2.5,0 1.78125,2.84375 -1.78125,2.78125 -2.5,0 L 4.96875,7.96875 6.75,5.1875 z m 3.90625,0 2.15625,0 L 11.75,6.875 10.65625,5.1875 z M 4.25,9.125 l 1.09375,1.6875 -2.15625,0 L 4.25,9.125 z m 7.46875,0.03125 1.03125,1.65625 -2.09375,0 1.0625,-1.65625 z M 7.5,12 8.5,12 8,12.8125 7.5,12 z"
     id="path2987"
     style="fill:#ffffff;fill-opacity:1;stroke:none" />
</svg>
