<?xml version="1.0" encoding="UTF-8" standalone="no"?>
<!-- Created with Inkscape (http://www.inkscape.org/) -->

<svg
   xmlns:dc="http://purl.org/dc/elements/1.1/"
   xmlns:cc="http://creativecommons.org/ns#"
   xmlns:rdf="http://www.w3.org/1999/02/22-rdf-syntax-ns#"
   xmlns:svg="http://www.w3.org/2000/svg"
   xmlns="http://www.w3.org/2000/svg"
   version="1.1"
   width="100%"
   height="100%"
   viewBox="0 0 14 14"
   id="svg2">
  <metadata
     id="metadata8">
    <rdf:RDF>
      <cc:Work
         rdf:about="">
        <dc:format>image/svg+xml</dc:format>
        <dc:type
           rdf:resource="http://purl.org/dc/dcmitype/StillImage" />
        <dc:title></dc:title>
      </cc:Work>
    </rdf:RDF>
  </metadata>
  <defs
     id="defs6" />
  <rect
     width="14"
     height="14"
     x="0"
     y="0"
     id="canvas"
     style="fill:none;stroke:none;visibility:hidden" />
  <path
     d="M 4.5,1 1,4 l 3.5,3 0,-2 5,0 0,2 3.5,-3 -3.5,-3 0,2 -5,0 z M 3,7.75 C 2.4661017,7.75 1.5077148,8.5 1,8.5 L 1,10 C 1.5371839,10 2.5254237,9.25 3,9.25 3.5042373,9.25 4.4661017,10 5,10 5.4755023,10 6.4922852,9.25 7,9.25 7.5042373,9.25 8.5217305,10 9,10 c 0.5042373,0 1.525424,-0.75 2,-0.75 0.474576,0 1.495763,0.75 2,0.75 L 13,8.5 C 12.584746,8.5 11.533898,7.720339 11,7.75 10.52173,7.75 9.5347216,8.5 9,8.5 8.5550847,8.5 7.5042373,7.75 7,7.75 6.4957627,7.75 5.4459029,8.5 5,8.5 4.5244977,8.5 3.5338983,7.75 3,7.75 z m 0,3 c -0.5338983,0 -1.4922852,0.75 -2,0.75 L 1,13 c 0.5371839,0 1.5254237,-0.75 2,-0.75 0.5042373,0 1.4661017,0.75 2,0.75 0.4755023,0 1.4922852,-0.75 2,-0.75 0.5042373,0 1.5217305,0.75 2,0.75 0.5042373,0 1.525424,-0.75 2,-0.75 0.474576,0 1.495763,0.75 2,0.75 l 0,-1.5 c -0.415254,0 -1.466102,-0.779661 -2,-0.75 -0.47827,0 -1.4652784,0.75 -2,0.75 -0.4449153,0 -1.4957627,-0.75 -2,-0.75 -0.5042373,0 -1.5540971,0.75 -2,0.75 -0.4755023,0 -1.4661017,-0.75 -2,-0.75 z"
     id="ford"
     style="color:#000000;fill:#000000;fill-opacity:1" />
</svg>
