<?xml version="1.0" encoding="UTF-8" standalone="no"?>
<!-- Created with Inkscape (http://www.inkscape.org/) -->

<svg
   xmlns:dc="http://purl.org/dc/elements/1.1/"
   xmlns:cc="http://creativecommons.org/ns#"
   xmlns:rdf="http://www.w3.org/1999/02/22-rdf-syntax-ns#"
   xmlns:svg="http://www.w3.org/2000/svg"
   xmlns="http://www.w3.org/2000/svg"
   version="1.1"
   width="100%"
   height="100%"
   viewBox="0 0 16 16"
   id="svg2">
  <path
     d="M 4.96875,1 2,4 2,11 c -0.036589,0.575273 0.4772502,1.000467 1.03125,1 L 13,12 c 0.554,-4.67e-4 1,-0.400757 1,-1 L 14,4 11,1 z M 6.03125,2 10,2 10,3 6.03125,3 z m -2,2 L 12,4 12,8 4.03125,8 z M 4.8125,9 C 4.8229158,8.9998372 4.8333342,8.9998372 4.84375,9 5.4166391,8.909328 6.007131,9.4200237 6,10 6,10.523599 5.5235988,11 5,11 4.4764012,11 4,10.523599 4,10 3.9917372,9.5333912 4.3540809,9.0874297 4.8125,9 z m 6.03125,0 C 11.416639,8.909328 12.007131,9.4200237 12,10 c 0,0.523599 -0.476401,1 -1,1 -0.523599,0 -1,-0.476401 -1,-1 C 9.99417,9.5246189 10.374167,9.0742481 10.84375,9 z M 3,13 2,15 5,15 6,13 z m 7,0 1,2 3,0 -1,-2 z"
     id="rect3226"
     style="fill:#1a1a1a;fill-opacity:1;stroke:none" />
</svg>
