<?xml version="1.0" encoding="UTF-8" standalone="no"?>
<!-- Created with Inkscape (http://www.inkscape.org/) -->

<svg
   xmlns:dc="http://purl.org/dc/elements/1.1/"
   xmlns:cc="http://creativecommons.org/ns#"
   xmlns:rdf="http://www.w3.org/1999/02/22-rdf-syntax-ns#"
   xmlns:svg="http://www.w3.org/2000/svg"
   xmlns="http://www.w3.org/2000/svg"
   version="1.1"
   width="100%"
   height="100%"
   viewBox="0 0 16 16"
   id="svg2">
  <metadata
     id="metadata8">
    <rdf:RDF>
      <cc:Work
         rdf:about="">
        <dc:format>image/svg+xml</dc:format>
        <dc:type
           rdf:resource="http://purl.org/dc/dcmitype/StillImage" />
        <dc:title></dc:title>
      </cc:Work>
    </rdf:RDF>
  </metadata>
  <defs
     id="defs6" />
  <rect
     width="16"
     height="16"
     x="0"
     y="0"
     id="canvas"
     style="fill:none;stroke:none;visibility:hidden" />
  <path
     d="M 6,1 C 4.0259108,0.9916026 2,4 2,8 l 0,2 c 0,1 1,2 2,2 l 8,0 c 1,0 2,-1 2,-2 L 14,8 C 14,4 12,1 10,1 z m -1,3 6,0 c 0,0 1,1 1,3 L 4.03125,7 C 3.9946608,4.9916 5,4 5,4 z m -1,5 3,0 0,1 -3,0 z m 5,0 3,0 0,1 -3,0 z m -6,4 -1,2 3,0 1,-2 z m 7,0 1,2 3,0 -1,-2 z"
     id="rail"
     style="fill:#1a1a1a;fill-opacity:1;stroke:none" />
</svg>
