<?xml version="1.0" encoding="UTF-8" standalone="no"?>
<!-- Created with Inkscape (http://www.inkscape.org/) -->

<svg
   xmlns:dc="http://purl.org/dc/elements/1.1/"
   xmlns:cc="http://creativecommons.org/ns#"
   xmlns:rdf="http://www.w3.org/1999/02/22-rdf-syntax-ns#"
   xmlns:svg="http://www.w3.org/2000/svg"
   xmlns="http://www.w3.org/2000/svg"
   version="1.1"
   width="100%"
   height="100%"
   viewBox="0 0 18 18"
   id="svg2">
  <metadata
     id="metadata8">
    <rdf:RDF>
      <cc:Work
         rdf:about="">
        <dc:format>image/svg+xml</dc:format>
        <dc:type
           rdf:resource="http://purl.org/dc/dcmitype/StillImage" />
        <dc:title></dc:title>
      </cc:Work>
    </rdf:RDF>
  </metadata>
  <defs
     id="defs6" />
  <rect
     width="18"
     height="18"
     x="0"
     y="0"
     id="canvas"
     style="fill:none;stroke:none;visibility:hidden" />
  <g
     id="rental-car">
    <path
       d="M 5.5,2 C 4.1192881,2 3,3.1192881 3,4.5 3,5.8807119 4.1192881,7 5.5,7 6.4253425,7 7.2239846,6.4972377 7.65625,5.75 L 9,5.75 l 1,-1 1,1 1,-1 1,1 0.5,0 L 15,4.5 13.5,3.25 7.65625,3.25 C 7.2239846,2.5027623 6.4253425,2 5.5,2 z m -1,2 C 4.7761424,4 5,4.2238576 5,4.5 5,4.7761424 4.7761424,5 4.5,5 4.2238576,5 4,4.7761424 4,4.5 4,4.2238576 4.2238576,4 4.5,4 z M 6,8 5,11 c -0.4726661,0 -1,0.384295 -1,1 l 0,3 1,0 c 0,0 0,1 1,1 1,0 1,-1 1,-1 l 4,0 c 0,0 0,1 1,1 1,0 1,-1 1,-1 l 1,0 0,-3 c 0,-0.520606 -0.455425,-1 -1,-1 L 12,8 z m 1,1 4,0 0.625,2 -5.25,0 z m -1,3.25 c 0.4142136,0 0.75,0.335786 0.75,0.75 0,0.414214 -0.3357864,0.75 -0.75,0.75 -0.4142136,0 -0.75,-0.335786 -0.75,-0.75 0,-0.414214 0.3357864,-0.75 0.75,-0.75 z m 6,0 c 0.414214,0 0.75,0.335786 0.75,0.75 0,0.414214 -0.335786,0.75 -0.75,0.75 -0.414214,0 -0.75,-0.335786 -0.75,-0.75 0,-0.414214 0.335786,-0.75 0.75,-0.75 z"
       id="halo"
       style="opacity:0.3;fill:#ffffff;fill-opacity:1;stroke:#ffffff;stroke-width:2;stroke-miterlimit:4;stroke-opacity:1;stroke-dasharray:none" />
    <path
       d="M 5.5,2 C 4.119288,2 3,3.1192881 3,4.5 3,5.8807119 4.119288,7 5.5,7 6.425342,7 7.223985,6.4972377 7.65625,5.75 L 9,5.75 l 1,-1 1,1 1,-1 1,1 0.5,0 L 15,4.5 13.5,3.25 7.65625,3.25 C 7.223985,2.5027623 6.425342,2 5.5,2 z m -1,2 C 4.776142,4 5,4.2238576 5,4.5 5,4.7761424 4.776142,5 4.5,5 4.223858,5 4,4.7761424 4,4.5 4,4.2238576 4.223858,4 4.5,4 z M 6,8 5,11 c -0.472666,0 -1,0.384295 -1,1 l 0,3 1,0 c 0,0 0,1 1,1 1,0 1,-1 1,-1 l 4,0 c 0,0 0,1 1,1 1,0 1,-1 1,-1 l 1,0 0,-3 c 0,-0.520606 -0.455425,-1 -1,-1 L 12,8 z m 1,1 4,0 0.625,2 -5.25,0 z m -1,3.25 c 0.414214,0 0.75,0.335786 0.75,0.75 0,0.414214 -0.335786,0.75 -0.75,0.75 -0.414214,0 -0.75,-0.335786 -0.75,-0.75 0,-0.414214 0.335786,-0.75 0.75,-0.75 z m 6,0 c 0.414214,0 0.75,0.335786 0.75,0.75 0,0.414214 -0.335786,0.75 -0.75,0.75 -0.414214,0 -0.75,-0.335786 -0.75,-0.75 0,-0.414214 0.335786,-0.75 0.75,-0.75 z"
       id="icon"
       style="fill:#1a1a1a;stroke:none" />
  </g>
</svg>
