<?xml version="1.0" encoding="UTF-8" standalone="no"?>
<!-- Created with Inkscape (http://www.inkscape.org/) -->

<svg
   xmlns:dc="http://purl.org/dc/elements/1.1/"
   xmlns:cc="http://creativecommons.org/ns#"
   xmlns:rdf="http://www.w3.org/1999/02/22-rdf-syntax-ns#"
   xmlns:svg="http://www.w3.org/2000/svg"
   xmlns="http://www.w3.org/2000/svg"
   version="1.1"
   width="100%"
   height="100%"
   viewBox="0 0 18 18"
   id="svg2">
  <metadata
     id="metadata8">
    <rdf:RDF>
      <cc:Work
         rdf:about="">
        <dc:format>image/svg+xml</dc:format>
        <dc:type
           rdf:resource="http://purl.org/dc/dcmitype/StillImage" />
        <dc:title></dc:title>
      </cc:Work>
    </rdf:RDF>
  </metadata>
  <defs
     id="defs6" />
  <rect
     width="18"
     height="18"
     x="0"
     y="0"
     id="canvas"
     style="fill:none;stroke:none;visibility:hidden" />
  <g
     id="shared-car">
    <path
       d="M 6,2 C 5.4477153,2 5,2.4477153 5,3 5,3.5522847 5.4477153,4 6,4 6.5522847,4 7,3.5522847 7,3 7,2.4477153 6.5522847,2 6,2 z m 6,0 c -0.552285,0 -1,0.4477153 -1,1 0,0.5522847 0.447715,1 1,1 0.552285,0 1,-0.4477153 1,-1 C 13,2.4477153 12.552285,2 12,2 z M 5,5 C 4,5 4,6 4,6 L 4,7 8,7 8,6 C 8,6 8,5 7,5 z m 6,0 c -1,0 -1,1 -1,1 l 0,1 4,0 0,-1 C 14,6 14,5 13,5 z M 6,8 5,11 c -0.6164845,0 -1,0.431455 -1,1 l 0,3 1,0 c 0,0 0,1 1,1 1,0 1,-1 1,-1 l 4,0 c 0,0 0,1 1,1 1,0 1,-1 1,-1 l 1,0 0,-3 c 0,-0.520606 -0.479394,-1 -1,-1 L 12,8 z m 1,1 4,0 0.625,2 -5.25,0 z m -1,3.25 c 0.4142136,0 0.75,0.335786 0.75,0.75 0,0.414214 -0.3357864,0.75 -0.75,0.75 -0.4142136,0 -0.75,-0.335786 -0.75,-0.75 0,-0.414214 0.3357864,-0.75 0.75,-0.75 z m 6,0 c 0.414214,0 0.75,0.335786 0.75,0.75 0,0.414214 -0.335786,0.75 -0.75,0.75 -0.414214,0 -0.75,-0.335786 -0.75,-0.75 0,-0.414214 0.335786,-0.75 0.75,-0.75 z"
       id="halo"
       style="opacity:0.3;fill:#ffffff;fill-opacity:1;stroke:#ffffff;stroke-width:2;stroke-miterlimit:4;stroke-opacity:1;stroke-dasharray:none" />
    <path
       d="M 6,2 C 5.447715,2 5,2.4477153 5,3 5,3.5522847 5.447715,4 6,4 6.552285,4 7,3.5522847 7,3 7,2.4477153 6.552285,2 6,2 z m 6,0 c -0.552285,0 -1,0.4477153 -1,1 0,0.5522847 0.447715,1 1,1 0.552285,0 1,-0.4477153 1,-1 C 13,2.4477153 12.552285,2 12,2 z M 5,5 C 4,5 4,6 4,6 L 4,7 8,7 8,6 C 8,6 8,5 7,5 z m 6,0 c -1,0 -1,1 -1,1 l 0,1 4,0 0,-1 C 14,6 14,5 13,5 z M 6,8 5,11 c -0.616485,0 -1,0.431455 -1,1 l 0,3 1,0 c 0,0 0,1 1,1 1,0 1,-1 1,-1 l 4,0 c 0,0 0,1 1,1 1,0 1,-1 1,-1 l 1,0 0,-3 c 0,-0.520606 -0.479394,-1 -1,-1 L 12,8 z m 1,1 4,0 0.625,2 -5.25,0 z m -1,3.25 c 0.414214,0 0.75,0.335786 0.75,0.75 0,0.414214 -0.335786,0.75 -0.75,0.75 -0.414214,0 -0.75,-0.335786 -0.75,-0.75 0,-0.414214 0.335786,-0.75 0.75,-0.75 z m 6,0 c 0.414214,0 0.75,0.335786 0.75,0.75 0,0.414214 -0.335786,0.75 -0.75,0.75 -0.414214,0 -0.75,-0.335786 -0.75,-0.75 0,-0.414214 0.335786,-0.75 0.75,-0.75 z"
       id="icon"
       style="fill:#1a1a1a;stroke:none" />
  </g>
</svg>
