<?xml version="1.0" encoding="UTF-8" standalone="no"?>
<!-- Created with Inkscape (http://www.inkscape.org/) -->

<svg
   xmlns:dc="http://purl.org/dc/elements/1.1/"
   xmlns:cc="http://creativecommons.org/ns#"
   xmlns:rdf="http://www.w3.org/1999/02/22-rdf-syntax-ns#"
   xmlns:svg="http://www.w3.org/2000/svg"
   xmlns="http://www.w3.org/2000/svg"
   version="1.1"
   width="100%"
   height="100%"
   viewBox="0 0 16 16"
   id="svg2">
  <metadata
     id="metadata8">
    <rdf:RDF>
      <cc:Work
         rdf:about="">
        <dc:format>image/svg+xml</dc:format>
        <dc:type
           rdf:resource="http://purl.org/dc/dcmitype/StillImage" />
        <dc:title></dc:title>
      </cc:Work>
    </rdf:RDF>
  </metadata>
  <defs
     id="defs6" />
  <rect
     width="16"
     height="16"
     x="0"
     y="0"
     id="canvas"
     style="fill:none;stroke:none;visibility:hidden" />
  <path
     d="M 5,1 C 4.4477153,1 4,1.4477153 4,2 4,2.5522847 4.4477153,3 5,3 5.5522847,3 6,2.5522847 6,2 6,1.4477153 5.5522847,1 5,1 z m 6,0 c -0.552285,0 -1,0.4477153 -1,1 0,0.5522847 0.447715,1 1,1 0.552285,0 1,-0.4477153 1,-1 C 12,1.4477153 11.552285,1 11,1 z M 4,4 C 3,4 3,5 3,5 L 3,6 7,6 7,5 C 7,5 7,4 6,4 L 4,4 z m 6,0 C 9,4 9,5 9,5 l 0,1 4,0 0,-1 C 13,5 13,4 12,4 L 10,4 z M 5,7 4,10 c -0.7603028,0 -2,0.496636 -2,2 l 0,2 1,0 c 0,0 0,1 1,1 1,0 1,-1 1,-1 l 6,0 c 0,0 0,1 1,1 1,0 1,-1 1,-1 l 1,0 0,-2 c 0,-1.527334 -1,-2 -2,-2 L 11,7 5,7 z m 1,1 4,0 0.625,2 -5.25,0 L 6,8 z m -1.5,3.25 c 0.4142136,0 0.75,0.335786 0.75,0.75 0,0.414214 -0.3357864,0.75 -0.75,0.75 -0.4142136,0 -0.75,-0.335786 -0.75,-0.75 0,-0.414214 0.3357864,-0.75 0.75,-0.75 z m 7,0 c 0.414214,0 0.75,0.335786 0.75,0.75 0,0.414214 -0.335786,0.75 -0.75,0.75 -0.414214,0 -0.75,-0.335786 -0.75,-0.75 0,-0.414214 0.335786,-0.75 0.75,-0.75 z"
     id="shared-car"
     style="fill:#1a1a1a;stroke:none" />
</svg>
