<?xml version="1.0" encoding="UTF-8" standalone="no"?>
<!-- Created with Inkscape (http://www.inkscape.org/) -->

<svg
   xmlns:dc="http://purl.org/dc/elements/1.1/"
   xmlns:cc="http://creativecommons.org/ns#"
   xmlns:rdf="http://www.w3.org/1999/02/22-rdf-syntax-ns#"
   xmlns:svg="http://www.w3.org/2000/svg"
   xmlns="http://www.w3.org/2000/svg"
   version="1.1"
   width="100%"
   height="100%"
   viewBox="0 0 16 16"
   id="svg2">
  <path
     d="M 6,1 C 5,1 4,2 4,3 l 0,7 c 0,1 1,2 2,2 l 4,0 c 1,0 2,-1 2,-2 L 12,3 C 12,2 11,1 10,1 z m 0,1 4,0 0,1 -4,0 z m 0,2 4,0 c 0.553621,0 1,0.446 1,1 l 0,2 c 0,0.6271186 -0.423729,1 -1,1 L 6,8 C 5.440678,8 5,7.5932203 5,7 L 5,5 C 5,4.446 5.4463787,4 6,4 z M 8,9 C 8.5522847,9 9,9.4477153 9,10 9,10.552285 8.5522847,11 8,11 7.4477153,11 7,10.552285 7,10 7,9.4477153 7.4477153,9 8,9 z M 4,12.984375 3,15.015625 6,15 7,12.984375 z M 9,13 l 1,2 3,0 -1,-2 z"
     id="rect4041"
     style="fill:#1a1a1a;fill-opacity:1;stroke:none" />
</svg>
