<?xml version="1.0" encoding="UTF-8" standalone="no"?>
<!-- Created with Inkscape (http://www.inkscape.org/) -->

<svg
   xmlns:dc="http://purl.org/dc/elements/1.1/"
   xmlns:cc="http://creativecommons.org/ns#"
   xmlns:rdf="http://www.w3.org/1999/02/22-rdf-syntax-ns#"
   xmlns:svg="http://www.w3.org/2000/svg"
   xmlns="http://www.w3.org/2000/svg"
   version="1.1"
   width="100%"
   height="100%"
   viewBox="0 0 18 18"
   id="svg2">
  <metadata
     id="metadata8">
    <rdf:RDF>
      <cc:Work
         rdf:about="">
        <dc:format>image/svg+xml</dc:format>
        <dc:type
           rdf:resource="http://purl.org/dc/dcmitype/StillImage" />
        <dc:title></dc:title>
      </cc:Work>
    </rdf:RDF>
  </metadata>
  <defs
     id="defs6" />
  <rect
     width="18"
     height="18"
     x="0"
     y="0"
     id="canvas"
     style="fill:none;stroke:none;visibility:hidden" />
  <g
     id="tram-stop">
    <path
       d="m 7,2.000375 c -1,0 -2,1 -2,2 l 0,7 c 0,1 1,2 2,2 l 4,0 c 1,0 2,-1 2,-2 l 0,-7 c 0,-1 -1,-2 -2,-2 z m 0,1 4,0 0,1 -4,0 z m 0,2 4,0 c 0.553621,0 1,0.446 1,1 l 0,2 c 0,0.6271186 -0.423729,1 -1,1 l -4,0 c -0.559322,0 -1,-0.4067797 -1,-1 l 0,-2 c 0,-0.554 0.4463787,-1 1,-1 z m 2,5 c 0.5522847,0 1,0.447715 1,1 0,0.552285 -0.4477153,1 -1,1 -0.5522847,0 -1,-0.447715 -1,-1 0,-0.552285 0.4477153,-1 1,-1 z M 5,13.98475 4,16.016 7,16.000375 8,13.98475 z m 5,0.01563 1,2 3,0 -1,-2 z"
       id="halo"
       style="opacity:0.3;fill:#ffffff;fill-opacity:1;stroke:#ffffff;stroke-width:2;stroke-miterlimit:4;stroke-opacity:1;stroke-dasharray:none" />
    <path
       d="m 7,2.000375 c -1,0 -2,1 -2,2 l 0,7 c 0,1 1,2 2,2 l 4,0 c 1,0 2,-1 2,-2 l 0,-7 c 0,-1 -1,-2 -2,-2 z m 0,1 4,0 0,1 -4,0 z m 0,2 4,0 c 0.553621,0 1,0.446 1,1 l 0,2 c 0,0.6271186 -0.423729,1 -1,1 l -4,0 c -0.559322,0 -1,-0.4067797 -1,-1 l 0,-2 c 0,-0.554 0.446379,-1 1,-1 z m 2,5 c 0.552285,0 1,0.447715 1,1 0,0.552285 -0.447715,1 -1,1 -0.552285,0 -1,-0.447715 -1,-1 0,-0.552285 0.447715,-1 1,-1 z M 5,13.98475 4,16.016 7,16.00037 8,13.984745 z m 5,0.01563 1,2 3,0 -1,-2 z"
       id="icon"
       style="fill:#1a1a1a;fill-opacity:1;stroke:none" />
  </g>
</svg>
