<?xml version="1.0" encoding="utf-8"?>
<svg version="1.1"
	 id="svg2" xmlns:svg="http://www.w3.org/2000/svg" xmlns:rdf="http://www.w3.org/1999/02/22-rdf-syntax-ns#" xmlns:dc="http://purl.org/dc/elements/1.1/" xmlns:cc="http://creativecommons.org/ns#"
	 xmlns="http://www.w3.org/2000/svg" xmlns:xlink="http://www.w3.org/1999/xlink" x="0px" y="0px" viewBox="0 0 1920 1080"
	 style="enable-background:new 0 0 1920 1080;" xml:space="preserve">
<style type="text/css">
	.st0{display:none;fill:none;}
	.st1{fill-rule:evenodd;clip-rule:evenodd;}
</style>
<rect id="canvas" x="420" class="st0" width="1080" height="1080"/>
<path id="path4290-2" class="st1" d="M804.9,154.1L650.7,385.4h-77.1l154.1-231.2H804.9z M1113.1,154.1l154.1,231.2h77.1
	l-154.1-231.2H1113.1z M920.5,154.1h77.1v231.2h-77.1V154.1z M881.9,0L727.8,77.1h462.4L1036.1,0H881.9z M1036.1,416.2v77.1
	l77.1,46.2v77.1H820.3h-15.4v-77.1h38.5c77.1,0,77.1-77.1,0-77.1H689.2c-77.1,0-77.1,77.1,0,77.1h38.5v77.1l-46.2,107.9h-7.7
	c-100.2,0-177.3,77.1-177.3,177.3S573.6,1079,673.8,1079s177.3-77.1,177.3-177.3c0-15.4-7.7-38.5-7.7-54h38.5H959l169.6-154.1l0,0
	l23.1,53.9c-46.2,30.8-84.8,92.5-84.8,154.1c0,100.2,77.1,177.3,177.3,177.3s177.3-77.1,177.3-177.3s-84.8-177.3-177.3-177.3h-7.7
	l-46.2-107.9V508.7L1036.1,416.2z M789.4,693.6h238.9l-100.2,92.5H812.6c-15.4-15.4-23.1-30.8-38.5-38.5L789.4,693.6z M673.8,809.2
	c54,0,92.5,38.5,92.5,92.5c0,53.9-38.5,92.5-92.5,92.5s-92.5-38.5-92.5-92.5C581.3,847.8,619.9,809.2,673.8,809.2z M1244.2,809.2
	c53.9,0,92.5,38.5,92.5,92.5c0,53.9-38.5,92.5-92.5,92.5c-54,0-92.5-38.5-92.5-92.5C1151.7,847.8,1190.2,809.2,1244.2,809.2z"/>
</svg>
