<?xml version="1.0" encoding="UTF-8" standalone="no"?>
<!-- Created with Inkscape (http://www.inkscape.org/) -->

<svg
   xmlns:dc="http://purl.org/dc/elements/1.1/"
   xmlns:cc="http://creativecommons.org/ns#"
   xmlns:rdf="http://www.w3.org/1999/02/22-rdf-syntax-ns#"
   xmlns:svg="http://www.w3.org/2000/svg"
   xmlns="http://www.w3.org/2000/svg"
   version="1.1"
   width="100%"
   height="100%"
   viewBox="0 0 16 16"
   id="svg2">
  <path
     d="M 4,1 C 3,1 1,3 1,6 c 0,3 2,4 2,4 l -0.5,5 3,0 L 5,10 C 5,10 7,9 7,6 7,3 5,1 4,1 z m 6,0 0,7 c 0,1 1.5,1 1.5,2 l -0.5,5 3,0 -0.5,-5 C 13.5,9 15,9 15,8 l 0,-7 -1,0 0,6 c 0,0.5632885 -1,0.5632884 -1,0 l 0,-6 -1,0 0,6 c 0,0.5273339 -1,0.5273339 -1,0 l 0,-6 -1,0 z"
     id="path4639"
     style="fill:#1a1a1a;fill-opacity:1;stroke:none" />
</svg>
