<?xml version="1.0" encoding="UTF-8" standalone="no"?>
<!-- Created with Inkscape (http://www.inkscape.org/) -->

<svg
   xmlns:dc="http://purl.org/dc/elements/1.1/"
   xmlns:cc="http://creativecommons.org/ns#"
   xmlns:rdf="http://www.w3.org/1999/02/22-rdf-syntax-ns#"
   xmlns:svg="http://www.w3.org/2000/svg"
   xmlns="http://www.w3.org/2000/svg"
   version="1.1"
   width="100%"
   height="100%"
   viewBox="0 0 18 18"
   id="svg2">
  <metadata
     id="metadata8">
    <rdf:RDF>
      <cc:Work
         rdf:about="">
        <dc:format>image/svg+xml</dc:format>
        <dc:type
           rdf:resource="http://purl.org/dc/dcmitype/StillImage" />
        <dc:title></dc:title>
      </cc:Work>
    </rdf:RDF>
  </metadata>
  <defs
     id="defs6" />
  <rect
     width="18"
     height="18"
     rx="3"
     ry="3"
     x="0"
     y="0"
     id="shield"
     style="fill:#1a1a1a;stroke:none" />
  <path
     d="M 2,2 2,16 16,16 16,2 2,2 z m 1,1 3,0 0,12 -0.5,0 0,-4.21875 C 5.200928,11.13501 5,11.5625 5,12 L 5,15 3,15 3,3 z m 4,0 4,0 0,12 -0.5,0 0,-5 -3,0 0,5 L 7,15 7,3 z m 5,0 3,0 0,12 -2,0 0,-3 c 0,-0.4375 -0.200928,-0.86499 -0.5,-1.21875 L 12.5,15 12,15 12,3 z M 9,5 C 8.399152,5 7.866615,5.2680514 7.5,5.6875 l 0,2.625 C 7.866615,8.7319486 8.399152,9 9,9 9.600847,9 10.133385,8.7319486 10.5,8.3125 l 0,-2.625 C 10.133385,5.2680514 9.600847,5 9,5 z"
     id="prison"
     style="fill:#ffffff;fill-opacity:1;stroke:none" />
</svg>
