<?xml version="1.0" encoding="UTF-8" standalone="no"?>
<!-- Created with Inkscape (http://www.inkscape.org/) -->

<svg
   xmlns:dc="http://purl.org/dc/elements/1.1/"
   xmlns:cc="http://creativecommons.org/ns#"
   xmlns:rdf="http://www.w3.org/1999/02/22-rdf-syntax-ns#"
   xmlns:svg="http://www.w3.org/2000/svg"
   xmlns="http://www.w3.org/2000/svg"
   version="1.1"
   width="100%"
   height="100%"
   viewBox="0 0 16 16"
   id="svg2">
  <metadata
     id="metadata8">
    <rdf:RDF>
      <cc:Work
         rdf:about="">
        <dc:format>image/svg+xml</dc:format>
        <dc:type
           rdf:resource="http://purl.org/dc/dcmitype/StillImage" />
        <dc:title></dc:title>
      </cc:Work>
    </rdf:RDF>
  </metadata>
  <defs
     id="defs6">
  </defs>
  <rect
     width="16"
     height="16"
     rx="2"
     ry="2"
     x="0"
     y="0"
     id="canvas"
     style="fill:#1a1a1a;stroke:none" />
  <path
     d="M 8,1 C 7.75,1.0032 7.5,1.1644239 7.5,1.5 l 0,4.03125 C 4.906144,5.6951647 4,7.060613 4,8 l 8,0 C 12,7.060613 11.093856,5.6951647 8.5,5.53125 L 8.5,1.5 C 8.5,1.1516409 8.25,0.99680426 8,1 z M 9,1 9,4 13,4 11,2.5 13,1 z m -7,8 0,1 1,0 0,4 -1,0 0,1 12,0 0,-1 -1,0 0,-4 1,0 0,-1 z m 4,3 c 0,-2 4,-2 4,0 l 0,2 -4,0 z"
     id="town-hall"
     style="fill:#ffffff;fill-opacity:1;stroke:none" />
</svg>
