<?xml version="1.0" encoding="UTF-8" standalone="no"?>
<!-- Created with Inkscape (http://www.inkscape.org/) -->

<svg
   xmlns:dc="http://purl.org/dc/elements/1.1/"
   xmlns:cc="http://creativecommons.org/ns#"
   xmlns:rdf="http://www.w3.org/1999/02/22-rdf-syntax-ns#"
   xmlns:svg="http://www.w3.org/2000/svg"
   xmlns="http://www.w3.org/2000/svg"
   version="1.1"
   width="100%"
   height="100%"
   viewBox="0 0 16 16"
   id="svg2">
  <metadata
     id="metadata8">
    <rdf:RDF>
      <cc:Work
         rdf:about="">
        <dc:format>image/svg+xml</dc:format>
        <dc:type
           rdf:resource="http://purl.org/dc/dcmitype/StillImage" />
        <dc:title></dc:title>
      </cc:Work>
    </rdf:RDF>
  </metadata>
  <defs
     id="defs6" />
  <rect
     width="16"
     height="16"
     rx="2"
     ry="2"
     x="0"
     y="0"
     id="canvas"
     style="fill:#1a1a1a;fill-opacity:1;stroke:none;" />
  <path
     d="m 2,2 0,6 c 0,2 2,3 4.5,3 C 9,11 11,10 11,8 l 2,0 c 1,0 2,-1 2,-2 L 15,5 C 15,4 14,3 13,3 l -2,0 0,-1 z m 9,2.25 1.75,0 c 0.667788,0 1,0.5628359 1,1.25 0,0.6871641 -0.388201,1.25 -1,1.25 L 11,6.75 z M 1,12 c 0,1 1,2 2,2 l 7,0 c 1,0 2,-1 2,-2 z"
     id="cafe"
     style="fill:#ffffff;fill-opacity:1;stroke:none" />
</svg>
