<?xml version="1.0" encoding="UTF-8" standalone="no"?>
<!-- Created with Inkscape (http://www.inkscape.org/) -->

<svg
   xmlns:dc="http://purl.org/dc/elements/1.1/"
   xmlns:cc="http://creativecommons.org/ns#"
   xmlns:rdf="http://www.w3.org/1999/02/22-rdf-syntax-ns#"
   xmlns:svg="http://www.w3.org/2000/svg"
   xmlns="http://www.w3.org/2000/svg"
   version="1.1"
   width="100%"
   height="100%"
   viewBox="0 0 18 18"
   id="svg2">
  <metadata
     id="metadata8">
    <rdf:RDF>
      <cc:Work
         rdf:about="">
        <dc:format>image/svg+xml</dc:format>
        <dc:type
           rdf:resource="http://purl.org/dc/dcmitype/StillImage" />
        <dc:title></dc:title>
      </cc:Work>
    </rdf:RDF>
  </metadata>
  <defs
     id="defs6" />
  <rect
     width="18"
     height="18"
     x="0"
     y="0"
     id="canvas"
     style="fill:none;stroke:none;visibility:hidden" />
  <g
     id="power-wind">
    <path
       d="m 13.71875,2.5 c -0.710267,-0.1006686 -2.512962,1.0161034 -4.6875,3.09375 0.722021,0.038118 1.439705,0.7751988 1.375,1.4375 C 12.551541,4.9815468 13.795818,3.2473073 13.71875,2.5 z M 3.9375,5.25 C 3.327989,5.2717544 2.8746189,5.3532481 2.65625,5.53125 2.96203,6.1801816 4.850901,7.0730322 7.78125,7.75 7.416755,7.1255886 7.660904,6.1220091 8.25,5.8125 6.4431644,5.3950856 4.9533516,5.2137427 3.9375,5.25 z M 9,6.5 C 8.7238576,6.5 8.5,6.7238576 8.5,7 8.5,7.2761424 8.7238576,7.5 9,7.5 9.2761424,7.5 9.5,7.2761424 9.5,7 9.5,6.7238576 9.2761424,6.5 9,6.5 z m 1.3125,1.03125 C 10.110548,8.1653203 9.147198,8.5624501 8.46875,8.3125 c 1.177974,2.767239 2.401414,4.468412 3.09375,4.65625 0.365764,-0.656219 -0.08787,-2.707481 -1.25,-5.4375 z M 8.40625,9.75 8,15 l -2,0 0,1 6,0 0,-1 -2,0 -0.21875,-2.78125 C 9.33272,11.489844 8.8785114,10.672219 8.40625,9.75 z"
       id="halo"
       style="opacity:0.3;fill:#ffffff;fill-opacity:1;stroke:#ffffff;stroke-width:2;stroke-miterlimit:4;stroke-opacity:1;stroke-dasharray:none" />
    <path
       d="m 13.71875,2.5 c -0.710267,-0.1006686 -2.512962,1.0161034 -4.6875,3.09375 0.722021,0.038118 1.439705,0.7751988 1.375,1.4375 C 12.551541,4.9815468 13.795818,3.2473073 13.71875,2.5 z M 3.9375,5.25 C 3.327989,5.271754 2.874619,5.3532481 2.65625,5.53125 2.96203,6.1801816 4.850901,7.0730322 7.78125,7.75 7.416755,7.1255886 7.660904,6.1220091 8.25,5.8125 6.443164,5.3950856 4.953352,5.2137427 3.9375,5.25 z M 9,6.5 C 8.723858,6.5 8.5,6.7238576 8.5,7 8.5,7.2761424 8.723858,7.5 9,7.5 9.276142,7.5 9.5,7.2761424 9.5,7 9.5,6.7238576 9.276142,6.5 9,6.5 z m 1.3125,1.03125 C 10.110548,8.1653203 9.147198,8.5624501 8.46875,8.3125 c 1.177974,2.767239 2.401414,4.468412 3.09375,4.65625 0.365764,-0.656219 -0.08787,-2.707481 -1.25,-5.4375 z M 8.40625,9.75 8,15 l -2,0 0,1 6,0 0,-1 -2,0 -0.21875,-2.78125 C 9.33272,11.489844 8.878511,10.672219 8.40625,9.75 z"
       id="icon"
       style="fill:#1a1a1a;fill-opacity:1;stroke:none" />
  </g>
</svg>
