<?xml version="1.0" encoding="UTF-8" standalone="no"?>
<!-- Created with Inkscape (http://www.inkscape.org/) -->

<svg
   xmlns:dc="http://purl.org/dc/elements/1.1/"
   xmlns:cc="http://creativecommons.org/ns#"
   xmlns:rdf="http://www.w3.org/1999/02/22-rdf-syntax-ns#"
   xmlns:svg="http://www.w3.org/2000/svg"
   xmlns="http://www.w3.org/2000/svg"
   version="1.1"
   width="100%"
   height="100%"
   viewBox="0 0 18 18"
   id="svg2">
  <metadata
     id="metadata8">
    <rdf:RDF>
      <cc:Work
         rdf:about="">
        <dc:format>image/svg+xml</dc:format>
        <dc:type
           rdf:resource="http://purl.org/dc/dcmitype/StillImage" />
        <dc:title></dc:title>
      </cc:Work>
    </rdf:RDF>
  </metadata>
  <defs
     id="defs6" />
  <rect
     width="18"
     height="18"
     rx="3"
     ry="3"
     x="0"
     y="0"
     id="shield"
     style="fill:#1a1a1a;stroke:none" />
  <path
       d="M 9,2 C 8,2 8,3 8,3 L 4.25,4 4.25,5 2,10 c 0,1 0.792008,2 2.5,2 C 6.207992,12 7,11 7,10 L 4.75,5 8,5 8,15 4,15 3,16 15,16 14,15 10,15 10,5 13.25,5 11,10 c 0,1 0.77294,2 2.5,2 1.72706,0 2.5,-1 2.5,-2 L 13.75,5 13.75,4 10,3 C 10,3 10,2 9,2 z m -4.5,4 1.75,4 -3.5,0 z m 9,0 1.75,4 -3.5,0 z"
       id="courthouse"
       style="fill:#ffffff;fill-opacity:1" />
</svg>
