<?xml version="1.0" encoding="UTF-8" standalone="no"?>
<!-- Created with Inkscape (http://www.inkscape.org/) -->

<svg
   xmlns:dc="http://purl.org/dc/elements/1.1/"
   xmlns:cc="http://creativecommons.org/ns#"
   xmlns:rdf="http://www.w3.org/1999/02/22-rdf-syntax-ns#"
   xmlns:svg="http://www.w3.org/2000/svg"
   xmlns="http://www.w3.org/2000/svg"
   version="1.1"
   width="100%"
   height="100%"
   viewBox="0 0 18 18"
   id="svg2">
  <metadata
     id="metadata8">
    <rdf:RDF>
      <cc:Work
         rdf:about="">
        <dc:format>image/svg+xml</dc:format>
        <dc:type
           rdf:resource="http://purl.org/dc/dcmitype/StillImage" />
        <dc:title></dc:title>
      </cc:Work>
    </rdf:RDF>
  </metadata>
  <defs
     id="defs6" />
  <rect
     width="18"
     height="18"
     rx="3"
     ry="3"
     x="0"
     y="0"
     id="shield"
     style="fill:#1a1a1a;stroke:none" />
  <path
       d="M 5.5625,2.5 5.5,2.9375 5.25,4.96875 C 4.920006,4.96035 4.583311,4.97516 4.25,5 L 3,6 2,14 8,16 10,16 16,14 15,6 13.75,5 C 12.386001,4.8983462 11.100598,5.0688103 9.46875,5.78125 9.412829,5.1596656 9.137141,4.4526768 8.625,3.8125 8.053896,3.0986206 7.166667,2.5 6,2.5 l -0.4375,0 z m 0.875,1.125 C 7.029297,3.745429 7.578084,4.1279242 7.875,4.4375 8.171916,4.7470758 8.75,5.5228484 8.75,6 l 0,7.375 C 8.65367,13.213557 8.554096,13.043713 8.4375,12.875 7.8197,11.981048 6.822089,11.087266 5.53125,10.71875 L 6.4375,3.625 z m -1.75,2.25 c 0.145337,-0.0032 0.286471,-0.00663 0.4375,0 l -0.625,5.0625 -0.0625,0.5 0.5,0.0625 c 1.164703,0.163241 2.071156,1.045655 2.6875,1.9375 0.218636,0.316364 0.393137,0.608991 0.53125,0.875 C 6.77359,13.408436 5.12191,12.75 3.25,12.75 L 4.125,5.90625 C 4.303189,5.88779 4.500587,5.879115 4.6875,5.875 z m 8.65625,0 c 0.18127,0.00305 0.358173,0.014333 0.53125,0.03125 L 14.75,12.75 C 12.8125,12.75 11,13.5 9.5,14.5 l 0,-7.71875 C 10.997187,6.1198714 12.248277,5.8565529 13.34375,5.875 z"
       id="library"
       style="fill:#ffffff;fill-opacity:1;stroke:none" />
</svg>
