<?xml version="1.0" encoding="UTF-8" standalone="no"?>
<!-- Created with Inkscape (http://www.inkscape.org/) -->

<svg
   xmlns:dc="http://purl.org/dc/elements/1.1/"
   xmlns:cc="http://creativecommons.org/ns#"
   xmlns:rdf="http://www.w3.org/1999/02/22-rdf-syntax-ns#"
   xmlns:svg="http://www.w3.org/2000/svg"
   xmlns="http://www.w3.org/2000/svg"
   version="1.1"
   width="100%"
   height="100%"
   viewBox="0 0 16 16"
   id="svg2">
  <metadata
     id="metadata8">
    <rdf:RDF>
      <cc:Work
         rdf:about="">
        <dc:format>image/svg+xml</dc:format>
        <dc:type
           rdf:resource="http://purl.org/dc/dcmitype/StillImage" />
        <dc:title></dc:title>
      </cc:Work>
    </rdf:RDF>
  </metadata>
  <defs
     id="defs6" />
  <rect
     width="16"
     height="16"
     rx="2"
     ry="2"
     x="0"
     y="0"
     id="canvas"
     style="fill:#1a1a1a;stroke:none" />
  <path
     d="M 3,4.4945337 4.7220351,4.5664429 5,2 7,3 8,4.6862915 8.2455842,5.3814134 11.577375,4.4465943 13,4.7582007 14.261984,12 8.2695539,14.29815 2.492851,12.5963 1.5340622,11.68545 2.5647602,5 z"
     id="book-fill"
     style="opacity:0.1;fill:#ffffff;fill-opacity:1;stroke:none" />
  <path
     d="M 4.5625,1.5 4.5,1.9375 4.25,3.96875 C 3.9200056,3.9603528 3.5833106,3.9751596 3.25,4 L 2,5 1,13 7,15 9,15 15,13 14,5 12.75,4 C 11.386001,3.8983462 10.100598,4.0688103 8.46875,4.78125 8.4128292,4.1596656 8.1371414,3.4526768 7.625,2.8125 7.0538965,2.0986206 6.1666667,1.5 5,1.5 l -0.4375,0 z m 0.875,1.125 C 6.0292975,2.745429 6.5780839,3.1279242 6.875,3.4375 7.1719161,3.7470758 7.75,4.5228484 7.75,5 l 0,7.375 C 7.6536755,12.213557 7.5540955,12.043713 7.4375,11.875 6.8196999,10.981048 5.8220887,10.087266 4.53125,9.71875 L 5.4375,2.625 z m -1.75,2.25 c 0.1453368,-0.0032 0.2864714,-0.00663 0.4375,0 L 3.5,9.9375 l -0.0625,0.5 0.5,0.0625 c 1.1647032,0.163241 2.0711561,1.045655 2.6875,1.9375 0.2186355,0.316364 0.3931373,0.608991 0.53125,0.875 C 5.7735901,12.408436 4.1219101,11.75 2.25,11.75 L 3.125,4.90625 C 3.3031893,4.8877904 3.5005866,4.8791154 3.6875,4.875 z m 8.65625,0 c 0.18127,0.00305 0.358173,0.014333 0.53125,0.03125 L 13.75,11.75 C 11.8125,11.75 10,12.5 8.5,13.5 l 0,-7.71875 C 9.9971874,5.1198714 11.248277,4.8565529 12.34375,4.875 z"
     id="library"
     style="fill:#ffffff;fill-opacity:1;stroke:none" />
</svg>
