<?xml version="1.0" encoding="UTF-8" standalone="no"?>
<!-- Created with Inkscape (http://www.inkscape.org/) -->

<svg
   xmlns:dc="http://purl.org/dc/elements/1.1/"
   xmlns:cc="http://creativecommons.org/ns#"
   xmlns:rdf="http://www.w3.org/1999/02/22-rdf-syntax-ns#"
   xmlns:svg="http://www.w3.org/2000/svg"
   xmlns="http://www.w3.org/2000/svg"
   version="1.1"
   width="100%"
   height="100%"
   viewBox="0 0 16 16"
   id="svg2">
  <rect
     width="16"
     height="16"
     rx="2"
     ry="2"
     x="0"
     y="-4.7683716e-07"
     id="rect2985"
     style="fill:#1a1a1a;fill-opacity:1;stroke:none" />
  <path
     d="M 13.5,1 C 12.671573,1 12,1.6715729 12,2.5 c 0,0.6558381 0.413588,1.2024102 1,1.40625 L 12,8 12,8.0625 3.96875,10.9375 3.03125,7.90625 C 3.603196,7.6946985 4,7.1454828 4,6.5 4,5.6715729 3.3284271,5 2.5,5 1.6715729,5 1,5.6715729 1,6.5 1,7.1558381 1.413588,7.7024102 2,7.90625 L 1,12 1,13 6.9375,10.875 6,15 10,15 9.03125,10.125 15,8 15,7 14.03125,3.90625 C 14.603196,3.6946985 15,3.1454828 15,2.5 15,1.6715729 14.328427,1 13.5,1 z"
     id="path4885"
     style="fill:#ffffff;fill-opacity:1;stroke:none" />
</svg>
