<?xml version="1.0" encoding="UTF-8" standalone="no"?>
<!-- Created with Inkscape (http://www.inkscape.org/) -->

<svg
   xmlns:dc="http://purl.org/dc/elements/1.1/"
   xmlns:cc="http://creativecommons.org/ns#"
   xmlns:rdf="http://www.w3.org/1999/02/22-rdf-syntax-ns#"
   xmlns:svg="http://www.w3.org/2000/svg"
   xmlns="http://www.w3.org/2000/svg"
   version="1.1"
   width="100%"
   height="100%"
   viewBox="0 0 16 16"
   id="svg2">
  <rect
     width="16"
     height="16"
     rx="2"
     ry="2"
     x="0"
     y="4.7683716e-07"
     id="rect2985"
     style="fill:#1a1a1a;fill-opacity:1;stroke:none" />
  <path
     d="M 4.40625,1 A 1.5000001,1.5000001 0 0 0 3,2.5 1.5000001,1.5000001 0 0 0 6,2.5 1.5000001,1.5000001 0 0 0 4.40625,1 z m 8,3 A 1.5000001,1.5000001 0 0 0 11,5.5 1.5000001,1.5000001 0 0 0 14,5.5 1.5000001,1.5000001 0 0 0 12.40625,4 z M 4,4.5 C 2.5290102,4.5 2.1341648,6.3734067 2.03125,7.375 L 1,7 1,8 6.96875,10.125 6,15 10,15 9.0625,10.875 15,13 15,12 14.0625,11.65625 C 14.226562,10.794922 14.75,7.5 13,7.5 c -1.638462,0 -1.915209,2.244501 -1.96875,3.09375 l -5.9375,-2.125 C 5.2850122,7.3375305 5.614,4.5 4,4.5 z"
     id="path4885"
     style="fill:#ffffff;fill-opacity:1;stroke:none" />
</svg>
