<?xml version="1.0" encoding="UTF-8" standalone="no"?>
<!-- Created with Inkscape (http://www.inkscape.org/) -->

<svg
   xmlns:dc="http://purl.org/dc/elements/1.1/"
   xmlns:cc="http://creativecommons.org/ns#"
   xmlns:rdf="http://www.w3.org/1999/02/22-rdf-syntax-ns#"
   xmlns:svg="http://www.w3.org/2000/svg"
   xmlns="http://www.w3.org/2000/svg"
   version="1.1"
   width="20"
   height="20"
   id="svg2">
  <title
     id="title3793">Police</title>
  <defs
     id="defs4">
    <marker
       markerUnits="strokeWidth"
       refX="0"
       refY="5"
       markerWidth="4"
       markerHeight="3"
       orient="auto"
       viewBox="0 0 10 10"
       id="ArrowEnd">
      <path
         d="M 0,0 10,5 0,10 z"
         id="path2108" />
    </marker>
    <marker
       markerUnits="strokeWidth"
       refX="10"
       refY="5"
       markerWidth="4"
       markerHeight="3"
       orient="auto"
       viewBox="0 0 10 10"
       id="ArrowStart">
      <path
         d="M 10,0 0,5 10,10 z"
         id="path2111" />
    </marker>
  </defs>
  <metadata
     id="metadata7">
    <rdf:RDF>
      <cc:Work
         rdf:about="">
        <dc:format>image/svg+xml</dc:format>
        <dc:type
           rdf:resource="http://purl.org/dc/dcmitype/StillImage" />
        <dc:title>Police</dc:title>
        <dc:creator>
          <cc:Agent>
            <dc:title>nebulon42</dc:title>
          </cc:Agent>
        </dc:creator>
        <dc:rights>
          <cc:Agent>
            <dc:title />
          </cc:Agent>
        </dc:rights>
        <cc:license
           rdf:resource="http://creativecommons.org/licenses/publicdomain/" />
        <dc:contributor>
          <cc:Agent>
            <dc:title>twain47</dc:title>
          </cc:Agent>
        </dc:contributor>
      </cc:Work>
      <cc:License
         rdf:about="http://creativecommons.org/licenses/publicdomain/">
        <cc:permits
           rdf:resource="http://creativecommons.org/ns#Reproduction" />
        <cc:permits
           rdf:resource="http://creativecommons.org/ns#Distribution" />
        <cc:permits
           rdf:resource="http://creativecommons.org/ns#DerivativeWorks" />
      </cc:License>
    </rdf:RDF>
  </metadata>
  <rect
     width="20"
     height="20"
     rx="3"
     ry="3"
     x="0"
     y="0"
     id="rect2995"
     style="fill:#1a1a1a;fill-opacity:1;stroke:none" />
  <g
     transform="matrix(3.3110893,0,0,2.0827798,-20.090079,-4.8964905)"
     id="text2989"
     style="font-size:4.14989901px;font-style:normal;font-variant:normal;font-weight:500;font-stretch:normal;text-align:start;line-height:125%;letter-spacing:0px;word-spacing:0px;writing-mode:lr-tb;text-anchor:start;fill:#000000;fill-opacity:1;stroke:none;font-family:Roboto;-inkscape-font-specification:Roboto Medium" />
  <g
     transform="matrix(1.1975036,0,0,1.1975036,-757.67867,40.581142)"
     id="g2117"
     style="fill:#000000">
    <g
       id="g2119"
       style="fill:#000000">
      <g
         id="g2121"
         style="fill:#000000">
        <path
           d=""
           id="path2125"
           style="fill:#000000;stroke:none" />
      </g>
      <g
         id="g2127"
         style="fill:#000000">
        <path
           d=""
           id="path2131"
           style="fill:#000000;stroke:none" />
      </g>
    </g>
  </g>
  <path
     d="M 5,3 3,5 c 2,1.5 1.375,3.625 1,6 -0.1875,1.1875 0.078125,2.421875 1,3.5 0.921875,1.078125 3,1.147182 5,2.5 2,-1.424727 4.078125,-1.421875 5,-2.5 0.921875,-1.078125 1.1875,-2.3125 1,-3.5 C 15.625,8.625 14.5,6.5 17,5 L 15,3 C 15,3 13.553711,4 12.65625,4 11.758789,4 10,3 10,3 10,3 8.4454002,4 7.5,4 6.5545997,4 5,3 5,3 z M 10,6 11.53125,9 14,9 12,11 13,14 10,12 7,14 8,11 6,9 8.46875,9 10,6 z"
     id="path3969"
     style="fill:#ffffff;fill-opacity:1;stroke:none" />
</svg>
