<?xml version="1.0" encoding="UTF-8" standalone="no"?>
<!-- Created with Inkscape (http://www.inkscape.org/) -->

<svg
   xmlns:dc="http://purl.org/dc/elements/1.1/"
   xmlns:cc="http://creativecommons.org/ns#"
   xmlns:rdf="http://www.w3.org/1999/02/22-rdf-syntax-ns#"
   xmlns:svg="http://www.w3.org/2000/svg"
   xmlns="http://www.w3.org/2000/svg"
   version="1.1"
   width="100%"
   height="100%"
   viewBox="0 0 18 18"
   id="svg2">
  <metadata
     id="metadata8">
    <rdf:RDF>
      <cc:Work
         rdf:about="">
        <dc:format>image/svg+xml</dc:format>
        <dc:type
           rdf:resource="http://purl.org/dc/dcmitype/StillImage" />
        <dc:title></dc:title>
      </cc:Work>
    </rdf:RDF>
  </metadata>
  <defs
     id="defs6" />
  <rect
     width="18"
     height="18"
     rx="3"
     ry="3"
     x="0"
     y="0"
     id="shield"
     style="fill:#1a1a1a;stroke:none" />
  <path
       d="m 5,2 c -0.61017,-1e-7 -1,0.3898305 -1,1 L 4,13 6.272288,13 8,9 z M 7,2 10,9 8.294,13 14,13 14,3 C 14,2.3898305 13.525424,2 13,2 z M 3,12 c -0.511382,0 -1,0.485709 -1,1 l 0,2 c 0,0.542373 0.491525,1 1,1 l 12,0 c 0.542373,0 1,-0.457627 1,-1 l 0,-2 c 0,-0.559322 -0.488618,-1 -1,-1 l 0,2 -12,0 z"
       id="post-box"
       style="fill:#ffffff;fill-opacity:1;stroke:none" />
</svg>
