<?xml version="1.0" encoding="UTF-8" standalone="no"?>
<!-- Created with Inkscape (http://www.inkscape.org/) -->

<svg
   xmlns:dc="http://purl.org/dc/elements/1.1/"
   xmlns:cc="http://creativecommons.org/ns#"
   xmlns:rdf="http://www.w3.org/1999/02/22-rdf-syntax-ns#"
   xmlns:svg="http://www.w3.org/2000/svg"
   xmlns="http://www.w3.org/2000/svg"
   version="1.1"
   width="100%"
   height="100%"
   viewBox="0 0 16 16"
   id="svg2">
  <rect
     width="16"
     height="16"
     rx="2"
     ry="2"
     x="0"
     y="2.3841858e-07"
     id="rect2983"
     style="fill:#1a1a1a;fill-opacity:1;stroke:none" />
  <path
     d="M 4,1 C 3.3898305,0.9999999 3,1.3898305 3,2 L 3,12 5.2722876,12 7,8 z M 5,1 8,8 6.2941285,12 13,12 13,2 C 13,1.3898305 12.525424,1 12,1 z M 2,11 c -0.511382,0 -1,0.485709 -1,1 l 0,2 c 0,0.542373 0.491525,1 1,1 l 12,0 c 0.542373,0 1,-0.457627 1,-1 l 0,-2 c 0,-0.559322 -0.488618,-1 -1,-1 l 0,2 -12,0 z"
     id="path2987"
     style="fill:#ffffff;fill-opacity:1;stroke:none" />
</svg>
