<?xml version="1.0" encoding="UTF-8" standalone="no"?>
<!-- Created with Inkscape (http://www.inkscape.org/) -->

<svg
   xmlns:dc="http://purl.org/dc/elements/1.1/"
   xmlns:cc="http://creativecommons.org/ns#"
   xmlns:rdf="http://www.w3.org/1999/02/22-rdf-syntax-ns#"
   xmlns:svg="http://www.w3.org/2000/svg"
   xmlns="http://www.w3.org/2000/svg"
   version="1.1"
   width="20"
   height="20"
   id="svg2">
  <title
     id="title3793">Post Office</title>
  <defs
     id="defs4" />
  <metadata
     id="metadata7">
    <rdf:RDF>
      <cc:Work
         rdf:about="">
        <dc:format>image/svg+xml</dc:format>
        <dc:type
           rdf:resource="http://purl.org/dc/dcmitype/StillImage" />
        <dc:title>Post Office</dc:title>
        <dc:creator>
          <cc:Agent>
            <dc:title>nebulon42</dc:title>
          </cc:Agent>
        </dc:creator>
        <dc:rights>
          <cc:Agent>
            <dc:title />
          </cc:Agent>
        </dc:rights>
        <cc:license
           rdf:resource="http://creativecommons.org/licenses/publicdomain/" />
        <dc:contributor>
          <cc:Agent>
            <dc:title />
          </cc:Agent>
        </dc:contributor>
      </cc:Work>
      <cc:License
         rdf:about="http://creativecommons.org/licenses/publicdomain/">
        <cc:permits
           rdf:resource="http://creativecommons.org/ns#Reproduction" />
        <cc:permits
           rdf:resource="http://creativecommons.org/ns#Distribution" />
        <cc:permits
           rdf:resource="http://creativecommons.org/ns#DerivativeWorks" />
      </cc:License>
    </rdf:RDF>
  </metadata>
  <rect
     width="20"
     height="20"
     rx="3"
     ry="3"
     x="0"
     y="0"
     id="rect2985"
     style="fill:#1a1a1a;fill-opacity:1;stroke:none" />
  <g
     transform="matrix(3.3110893,0,0,2.0827798,-20.090079,-4.8964905)"
     id="text2989"
     style="font-size:4.14989901px;font-style:normal;font-variant:normal;font-weight:500;font-stretch:normal;text-align:start;line-height:125%;letter-spacing:0px;word-spacing:0px;writing-mode:lr-tb;text-anchor:start;fill:#000000;fill-opacity:1;stroke:none;font-family:Roboto;-inkscape-font-specification:Roboto Medium" />
  <path
     d="m 10,2 c -4.3991756,0 -8,3.5737885 -8,8 0,4.426212 3.6008244,8 8,8 4.399176,0 8,-3.573788 8,-8 0,-4.4262115 -3.600824,-8 -8,-8 z m 0,1 c 3.885096,0 7,3.1419402 7,7 0,3.85806 -3.114904,7 -7,7 C 6.1149046,17 3,13.85806 3,10 3,6.1419402 6.1149046,3 10,3 z M 5,7 5,8 10,10 15,8 15,7 5,7 z m 0,2 0,4 10,0 0,-4 -5,2 -5,-2 z"
     id="path2987"
     style="fill:#ffffff;fill-opacity:1;stroke:none" />
</svg>
