<?xml version="1.0" encoding="UTF-8" standalone="no"?>
<!-- Created with Inkscape (http://www.inkscape.org/) -->

<svg
   xmlns:dc="http://purl.org/dc/elements/1.1/"
   xmlns:cc="http://creativecommons.org/ns#"
   xmlns:rdf="http://www.w3.org/1999/02/22-rdf-syntax-ns#"
   xmlns:svg="http://www.w3.org/2000/svg"
   xmlns="http://www.w3.org/2000/svg"
   version="1.1"
   width="100%"
   height="100%"
   viewBox="0 0 16 16"
   id="svg2">
  <rect
     width="16"
     height="16"
     rx="2"
     ry="2"
     x="0"
     y="7.1525574e-07"
     id="rect2985"
     style="fill:#1a1a1a;fill-opacity:1;stroke:none" />
  <path
     d="M 5.6666656,1.9999914 3.3333354,6.000001 6.0000029,7.7537633 8.000002,4.509388 8.5133035,5.4068096 7.8813609,5.7457627 11.11985,6.2893419 12.13483,3.3171019 11.373259,3.7544885 10.333332,2.0000038 z M 12.666669,6.000001 9.7905121,7.7021708 11.591356,11 l -1.140124,0 0,-1.0000019 -2.0087195,2.4760309 2.0087195,2.523962 0,-0.99999 2.215437,0 2.33333,-4.0000029 z M 1.2105468,7.9102779 1.9802218,8.3557474 0.99999892,9.9999981 2.999998,14.000001 l 5.000004,0 L 8.000002,11 4.217827,11 4.8239758,9.9999981 5.5855471,10.437385 4.3693626,7.4699209 z"
     id="path3494"
     style="fill:#ffffff;fill-opacity:1;stroke:none" />
</svg>
