<?xml version="1.0" encoding="UTF-8" standalone="no"?>
<!-- Created with Inkscape (http://www.inkscape.org/) -->

<svg
   xmlns:dc="http://purl.org/dc/elements/1.1/"
   xmlns:cc="http://creativecommons.org/ns#"
   xmlns:rdf="http://www.w3.org/1999/02/22-rdf-syntax-ns#"
   xmlns:svg="http://www.w3.org/2000/svg"
   xmlns="http://www.w3.org/2000/svg"
   version="1.1"
   width="100%"
   height="100%"
   viewBox="0 0 16 16"
   id="svg2">
  <rect
     width="16"
     height="16"
     rx="2"
     ry="2"
     x="0"
     y="0"
     id="rect2985"
     style="fill:#1a1a1a;fill-opacity:1;stroke:none" />
  <path
     d="M 3.40625,1 C 2.6056697,1 2,1.7000112 2,2.5 2,3.2999888 2.6056697,4 3.40625,4 L 4,4 3,14 13,14 12,4 12.59375,4 C 13.39433,4 14,3.2999888 14,2.5 14,1.7000112 13.39433,1 12.59375,1 z m 0,1 9.1875,0 C 12.808836,2 13,2.1919888 13,2.5 13,2.8080112 12.808836,3 12.59375,3 L 11.9375,3 11.90625,2.5 4.09375,2.5 4.0625,3 3.40625,3 C 3.1911636,3 3,2.8080112 3,2.5 3,2.1919888 3.1911636,2 3.40625,2 z M 5,3 6.5,3 C 5.6775946,3.3866344 5.1508525,3.7952032 4.85,4.5 z M 9.5,3 11,3 11.15,4.5 C 10.696605,3.7443557 10.254609,3.3866345 9.5,3 z M 8,5 c 1.6568543,0 3,1.3431457 3,3 0,1.656854 -1.3431457,3 -3,3 C 6.3431458,11 5,9.656854 5,8 5,6.3431457 6.3431458,5 8,5 z M 6,7 6,8 7,9 8.3125,9 7.28125,8 10,8 10,7 z M 4.2,11 C 4.654431,12 5,12.411012 6,13 l -2,0 z m 7.6,0 0.2,2 -2,0 c 1,-0.489702 1.326211,-1 1.8,-2 z"
     id="rect3765"
     style="fill:#ffffff;fill-opacity:1;stroke:none" />
</svg>
