<?xml version="1.0" encoding="UTF-8" standalone="no"?>
<!-- Created with Inkscape (http://www.inkscape.org/) -->

<svg
   xmlns:dc="http://purl.org/dc/elements/1.1/"
   xmlns:cc="http://creativecommons.org/ns#"
   xmlns:rdf="http://www.w3.org/1999/02/22-rdf-syntax-ns#"
   xmlns:svg="http://www.w3.org/2000/svg"
   xmlns="http://www.w3.org/2000/svg"
   version="1.1"
   width="16"
   height="16"
   id="svg2">
  <title
     id="title3793">ATM</title>
  <defs
     id="defs4" />
  <metadata
     id="metadata7">
    <rdf:RDF>
      <cc:Work
         rdf:about="">
        <dc:format>image/svg+xml</dc:format>
        <dc:type
           rdf:resource="http://purl.org/dc/dcmitype/StillImage" />
        <dc:title>ATM</dc:title>
        <dc:creator>
          <cc:Agent>
            <dc:title>nebulon42</dc:title>
          </cc:Agent>
        </dc:creator>
        <dc:rights>
          <cc:Agent>
            <dc:title />
          </cc:Agent>
        </dc:rights>
        <cc:license
           rdf:resource="http://creativecommons.org/licenses/publicdomain/" />
        <dc:contributor>
          <cc:Agent>
            <dc:title />
          </cc:Agent>
        </dc:contributor>
      </cc:Work>
      <cc:License
         rdf:about="http://creativecommons.org/licenses/publicdomain/">
        <cc:permits
           rdf:resource="http://creativecommons.org/ns#Reproduction" />
        <cc:permits
           rdf:resource="http://creativecommons.org/ns#Distribution" />
        <cc:permits
           rdf:resource="http://creativecommons.org/ns#DerivativeWorks" />
      </cc:License>
    </rdf:RDF>
  </metadata>
  <rect
     width="16"
     height="16"
     rx="2"
     ry="2"
     x="0"
     y="-2.3841858e-07"
     id="rect2985"
     style="fill:#1a1a1a;fill-opacity:1;stroke:none" />
  <path
     d="M 2,1 2,4 3,4 3,2 13,2 13,4 14,4 14,1 2,1 z M 4,3 2,15 14,15 12,3 4,3 z m 3.5625,1 1.0625,0 0,1.34375 c 0.764857,0.085169 1.383097,0.3224299 1.8125,0.71875 0.433862,0.393058 0.656243,0.910695 0.65625,1.5625 l -1.625,0 C 9.468744,7.215577 9.344226,6.895362 9.09375,6.65625 8.843264,6.41715 8.500838,6.281256 8.0625,6.28125 7.6062627,6.281256 7.2593635,6.382359 7.03125,6.5625 6.8031292,6.73938 6.6874974,6.979916 6.6875,7.28125 c -2.6e-6,0.281692 0.1066833,0.510631 0.34375,0.6875 0.241534,0.176878 0.6907658,0.339508 1.3125,0.5 0.943772,0.248937 1.633037,0.54746 2.09375,0.875 0.4607,0.327546 0.687493,0.773828 0.6875,1.34375 -7e-6,0.566651 -0.217854,1.006382 -0.6875,1.34375 C 9.967842,12.368619 9.314059,12.562767 8.5,12.625 l 0,1.375 -1.0625,0 0,-1.34375 C 6.6368518,12.594019 5.956352,12.360298 5.4375,12 4.923118,11.636429 4.7008579,11.110469 4.71875,10.40625 l 0,-0.03125 1.59375,0 c -2.3e-6,0.465113 0.1601204,0.8002 0.46875,1 0.3130999,0.199803 0.6910671,0.312501 1.15625,0.3125 0.496485,10e-7 0.8834,-0.104375 1.15625,-0.28125 C 9.36659,11.229378 9.499994,10.992117 9.5,10.6875 9.499994,10.40909 9.375476,10.183426 9.125,10 8.878987,9.816579 8.45647,9.650673 7.875,9.5 6.9312194,9.264172 6.2241232,8.987072 5.75,8.65625 5.2803465,8.32216 5.062499,7.854455 5.0625,7.28125 5.062499,6.737534 5.266988,6.287978 5.71875,5.9375 6.1705087,5.5870361 6.7886892,5.3780157 7.5625,5.3125 L 7.5625,4 z"
     id="path2988"
     style="fill:#ffffff;fill-opacity:1;stroke:none" />
  <g
     transform="matrix(3.3110893,0,0,2.0827798,-20.090079,-8.8964905)"
     id="text2989"
     style="font-size:4.14989901px;font-style:normal;font-variant:normal;font-weight:500;font-stretch:normal;text-align:start;line-height:125%;letter-spacing:0px;word-spacing:0px;writing-mode:lr-tb;text-anchor:start;fill:#000000;fill-opacity:1;stroke:none;font-family:Roboto;-inkscape-font-specification:Roboto Medium" />
</svg>
