<?xml version="1.0" encoding="UTF-8" standalone="no"?>
<!-- Created with Inkscape (http://www.inkscape.org/) -->

<svg
   xmlns:dc="http://purl.org/dc/elements/1.1/"
   xmlns:cc="http://creativecommons.org/ns#"
   xmlns:rdf="http://www.w3.org/1999/02/22-rdf-syntax-ns#"
   xmlns:svg="http://www.w3.org/2000/svg"
   xmlns="http://www.w3.org/2000/svg"
   version="1.1"
   width="100%"
   height="100%"
   viewBox="0 0 16 16"
   id="svg2">
  <rect
     width="16"
     height="16"
     rx="2"
     ry="2"
     x="0"
     y="0"
     id="rect2985"
     style="fill:#1a1a1a;fill-opacity:1;stroke:none" />
  <path
     d="M 1,4 1,12 15,12 15,4 1,4 z M 2,5 4,5 C 3.1302665,5.3552975 2.3925929,5.9130869 2,7 L 2,5 z m 6,0 c 1.6568542,0 3,1.3431457 3,3 0,1.6568543 -1.3431458,3 -3,3 C 6.3431457,11 5,9.6568543 5,8 5,6.3431457 6.3431457,5 8,5 z m 4,0 2,0 0,2 C 13.607407,5.9130869 12.869733,5.3552975 12,5 z m -4.25,1 -1,1 0,1.3125 1,-1 0,2.6875 1,0 0,-4 -1,0 z M 2,9 c 0.3925929,1.086914 1.1302665,1.644703 2,2 L 2,11 2,9 z m 12,0 0,2 -2,0 c 0.869733,-0.355297 1.607407,-0.913087 2,-2 z"
     id="rect2986"
     style="fill:#ffffff;fill-opacity:1;stroke:none" />
</svg>
