<?xml version="1.0" encoding="UTF-8" standalone="no"?>
<!-- Created with Inkscape (http://www.inkscape.org/) -->

<svg
   xmlns:dc="http://purl.org/dc/elements/1.1/"
   xmlns:cc="http://creativecommons.org/ns#"
   xmlns:rdf="http://www.w3.org/1999/02/22-rdf-syntax-ns#"
   xmlns:svg="http://www.w3.org/2000/svg"
   xmlns="http://www.w3.org/2000/svg"
   version="1.1"
   width="100%"
   height="100%"
   viewBox="0 0 18 18"
   id="svg2">
  <metadata
     id="metadata8">
    <rdf:RDF>
      <cc:Work
         rdf:about="">
        <dc:format>image/svg+xml</dc:format>
        <dc:type
           rdf:resource="http://purl.org/dc/dcmitype/StillImage" />
        <dc:title></dc:title>
      </cc:Work>
    </rdf:RDF>
  </metadata>
  <defs
     id="defs6" />
  <rect
     width="18"
     height="18"
     x="0"
     y="0"
     id="canvas"
     style="fill:none;stroke:none;visibility:hidden" />
  <g
     id="caravan">
    <path
       d="M 4,4 C 3,4 2,5 2,6 l 0,4 c 0,1 1,2 2,2 l 1.0625,0 C 5.2956157,10.860792 6.2918772,10 7.5,10 c 1.2081228,0 2.2043843,0.860792 2.4375,2 L 16,12 c 0,0 0,-1 -1,-1 l -1.5,0 C 13.5,7.0343277 11,4 8,4 L 4,4 z M 4.84375,6 C 4.9375,5.984375 5,6 5,6 L 7,6 C 7,6 8,6 8,7 8,8 7,8 7,8 L 5,8 C 5,8 4,8 4,7 4,6.25 4.5625,6.046875 4.84375,6 z M 7.5,11 C 6.6715729,11 6,11.671573 6,12.5 6,13.328427 6.6715729,14 7.5,14 8.3284271,14 9,13.328427 9,12.5 9,11.671573 8.3284271,11 7.5,11 z"
       id="halo"
       style="opacity:0.3;fill:#ffffff;fill-opacity:1;stroke:#ffffff;stroke-width:2;stroke-miterlimit:4;stroke-opacity:1;stroke-dasharray:none" />
    <path
       d="M 4,4 C 3,4 2,5 2,6 l 0,4 c 0,1 1,2 2,2 l 1.0625,0 C 5.295616,10.860792 6.291877,10 7.5,10 c 1.208123,0 2.204384,0.860792 2.4375,2 L 16,12 c 0,0 0,-1 -1,-1 l -1.5,0 C 13.5,7.0343277 11,4 8,4 L 4,4 z M 4.84375,6 C 4.9375,5.984375 5,6 5,6 L 7,6 C 7,6 8,6 8,7 8,8 7,8 7,8 L 5,8 C 5,8 4,8 4,7 4,6.25 4.5625,6.046875 4.84375,6 z M 7.5,11 C 6.671573,11 6,11.671573 6,12.5 6,13.328427 6.671573,14 7.5,14 8.328427,14 9,13.328427 9,12.5 9,11.671573 8.328427,11 7.5,11 z"
       id="icon"
       style="fill:#1a1a1a;fill-opacity:1;stroke:none" />
  </g>
</svg>
