<?xml version="1.0" encoding="UTF-8" standalone="no"?>
<!-- Created with Inkscape (http://www.inkscape.org/) -->

<svg
   xmlns:dc="http://purl.org/dc/elements/1.1/"
   xmlns:cc="http://creativecommons.org/ns#"
   xmlns:rdf="http://www.w3.org/1999/02/22-rdf-syntax-ns#"
   xmlns:svg="http://www.w3.org/2000/svg"
   xmlns="http://www.w3.org/2000/svg"
   version="1.1"
   width="100%"
   height="100%"
   viewBox="0 0 14 14"
   id="svg2">
  <metadata
     id="metadata8">
    <rdf:RDF>
      <cc:Work
         rdf:about="">
        <dc:format>image/svg+xml</dc:format>
        <dc:type
           rdf:resource="http://purl.org/dc/dcmitype/StillImage" />
        <dc:title></dc:title>
      </cc:Work>
    </rdf:RDF>
  </metadata>
  <defs
     id="defs6" />
  <rect
     width="14"
     height="14"
     x="0"
     y="0"
     id="canvas"
     style="fill:none;stroke:none;visibility:hidden" />
  <path
     d="M 9,0 C 7.466325,0 6.25,1.0324775 6.25,3 l 0,1.3125 C 5.865049,4.1210714 5.433094,4 5,4 3.532943,4 2.25,5.0324775 2.25,7 l 0,3 1.5,0 0,-3 C 3.75,6.0340405 4.433016,5.5 5,5.5 5.566984,5.5 6.25,6.0673495 6.25,7 l 0,3 1.5,0 0,-3 0,-4 C 7.75,2.0340405 8.466325,1.5 9,1.5 c 0.600293,0 1.25,0.5673495 1.25,1.5 l 0,7 1.5,0 0,-7 C 11.75,1.1013899 10.500366,0 9,0 z M 0,11 c 0,1 3,3 7,3 4,0 7,-2 7,-3 L 0,11 z"
     id="fountain"
     style="fill:#000000;fill-opacity:1;stroke:none" />
</svg>
