<?xml version="1.0" encoding="UTF-8" standalone="no"?>
<!-- Created with Inkscape (http://www.inkscape.org/) -->

<svg
   xmlns:dc="http://purl.org/dc/elements/1.1/"
   xmlns:cc="http://creativecommons.org/ns#"
   xmlns:rdf="http://www.w3.org/1999/02/22-rdf-syntax-ns#"
   xmlns:svg="http://www.w3.org/2000/svg"
   xmlns="http://www.w3.org/2000/svg"
   version="1.1"
   width="100%"
   height="100%"
   viewBox="0 0 16 16"
   id="svg2">
  <metadata
     id="metadata8">
    <rdf:RDF>
      <cc:Work
         rdf:about="">
        <dc:format>image/svg+xml</dc:format>
        <dc:type
           rdf:resource="http://purl.org/dc/dcmitype/StillImage" />
        <dc:title></dc:title>
      </cc:Work>
    </rdf:RDF>
  </metadata>
  <defs
     id="defs6" />
  <rect
     width="16"
     height="16"
     x="0"
     y="0"
     id="canvas"
     style="fill:none;stroke:none;visibility:hidden" />
  <path
     d="M 1.75,1 C 1.2738513,1.8999747 1,2.9246207 1,4 1,5.0753793 1.2738513,6.1000253 1.75,7 L 3,7 C 2.4406639,6.1503948 2.125,5.1147945 2.125,4 2.125,2.8852054 2.4388171,1.851452 3,1 L 1.75,1 z M 13,1 c 0.561183,0.851452 0.875,1.8852054 0.875,3 0,1.1147945 -0.315664,2.1503948 -0.875,3 l 1.25,0 C 14.726149,6.1000253 15,5.0753793 15,4 15,2.9246207 14.726149,1.8999747 14.25,1 L 13,1 z M 3.875,2 c -0.3065169,0.6075128 -0.5,1.2749801 -0.5,2 0,0.7250199 0.1934831,1.3924872 0.5,2 L 5,6 C 4.6079352,5.4344715 4.375,4.7431807 4.375,4 4.375,3.2568193 4.6079352,2.5655285 5,2 L 3.875,2 z M 11,2 c 0.392065,0.5655285 0.625,1.2568193 0.625,2 0,0.7431807 -0.232935,1.4344715 -0.625,2 l 1.125,0 c 0.306517,-0.6075128 0.5,-1.2749801 0.5,-2 0,-0.7250199 -0.193483,-1.3924872 -0.5,-2 L 11,2 z M 8,3 C 7.4477153,3 7,3.4477153 7,4 7,4.5522847 7.4477153,5 8,5 8.5522847,5 9,4.5522847 9,4 9,3.4477153 8.5522847,3 8,3 z M 6,6 5.34375,8 C 4.4357144,10.729693 3.7245853,12.844112 3,15 L 4.25,15 4.625,13.9375 8,11.65625 11.40625,13.9375 11.75,15 13,15 10.65625,8 10,6 8.75,6 7.25,6 6,6 z M 6.90625,7 9.09375,7 9.40625,8 9.875,9.40625 8,10.65625 6.125,9.40625 6.59375,8 6.90625,7 z M 5.84375,10.21875 7.25,11.15625 5.03125,12.625 5.84375,10.21875 z m 4.3125,0 0.375,1.09375 0.4375,1.3125 -2.21875,-1.46875 1.40625,-0.9375 z"
     id="mast-communications"
     style="fill:#1a1a1a;fill-opacity:1;stroke:none" />
</svg>
