<?xml version="1.0" encoding="UTF-8" standalone="no"?>
<!-- Created with Inkscape (http://www.inkscape.org/) -->

<svg
   xmlns:dc="http://purl.org/dc/elements/1.1/"
   xmlns:cc="http://creativecommons.org/ns#"
   xmlns:rdf="http://www.w3.org/1999/02/22-rdf-syntax-ns#"
   xmlns:svg="http://www.w3.org/2000/svg"
   xmlns="http://www.w3.org/2000/svg"
   version="1.1"
   width="100%"
   height="100%"
   viewBox="0 0 16 16"
   id="svg2">
  <metadata
     id="metadata8">
    <rdf:RDF>
      <cc:Work
         rdf:about="">
        <dc:format>image/svg+xml</dc:format>
        <dc:type
           rdf:resource="http://purl.org/dc/dcmitype/StillImage" />
        <dc:title></dc:title>
      </cc:Work>
    </rdf:RDF>
  </metadata>
  <defs
     id="defs6" />
  <rect
     width="16"
     height="16"
     x="0"
     y="0"
     id="canvas"
     style="fill:none;stroke:none;visibility:hidden" />
  <path
     d="M 8,1 C 4.4241613,2.2414283 3,6 3,9 3,12 4.7449329,14.259763 7,15 5,11.741416 5,9 8,7 c -0.5049218,1.3528175 0,4 1,5 0.431455,-0.400757 1,-1.424727 1,-2 2,2 0.562898,3.633261 0,5 1.08818,-0.559102 3,-2 3,-5 C 13,7 11,6 11,3 9.6164844,3.5992431 9,5 9,6 8.0479394,5.4434404 7,3.2464256 8,1 z"
     id="fire-station"
     style="fill:#1a1a1a;fill-opacity:1;stroke:none" />
</svg>
