<?xml version="1.0" encoding="UTF-8" standalone="no"?>
<!-- Created with Inkscape (http://www.inkscape.org/) -->

<svg
   xmlns:dc="http://purl.org/dc/elements/1.1/"
   xmlns:cc="http://creativecommons.org/ns#"
   xmlns:rdf="http://www.w3.org/1999/02/22-rdf-syntax-ns#"
   xmlns:svg="http://www.w3.org/2000/svg"
   xmlns="http://www.w3.org/2000/svg"
   version="1.1"
   width="100%"
   height="100%"
   viewBox="0 0 18 18"
   id="svg2">
  <metadata
     id="metadata8">
    <rdf:RDF>
      <cc:Work
         rdf:about="">
        <dc:format>image/svg+xml</dc:format>
        <dc:type
           rdf:resource="http://purl.org/dc/dcmitype/StillImage" />
        <dc:title></dc:title>
      </cc:Work>
    </rdf:RDF>
  </metadata>
  <defs
     id="defs6" />
  <rect
     width="18"
     height="18"
     rx="3"
     ry="3"
     x="0"
     y="0"
     id="shield"
     style="fill:#1a1a1a;stroke:none" />
  <path
       d="M 9,2 6,3.5 C 5.534951,5 5.534951,6 6,8 l 1,0 -1,8 6,0 -1,-8 1,0 C 12.530187,6 12.530187,5 12,3.5 L 9,2 z M 2.71875,3.46875 c -0.167266,0.084188 -0.229367,0.3762768 0,0.46875 l 1.875,0.75 C 4.900179,4.8110421 5.087072,4.3420476 4.78125,4.21875 l -1.875,-0.75 c -0.07646,-0.030824 -0.131745,-0.028062 -0.1875,0 z m 12.375,0 -1.875,0.75 c -0.305822,0.1232976 -0.118929,0.5922921 0.1875,0.46875 l 1.875,-0.75 C 15.587073,3.8142024 15.399572,3.3454524 15.09375,3.46875 z M 6.5,4 l 5,0 c 0.259083,1 0.259083,2 0,3 l -5,0 C 6.240917,6 6.240917,5 6.5,4 z M 2.75,5.25 c -0.329742,0 -0.329742,0.5 0,0.5 l 2,0 c 0.330396,0 0.329742,-0.5 0,-0.5 l -2,0 z m 10.5,0 c -0.329742,0 -0.330396,0.5 0,0.5 l 2,0 c 0.329741,0 0.329741,-0.5 0,-0.5 l -2,0 z m -8.65625,1.125 -1.875,0.75 C 2.412928,7.2482976 2.599821,7.7172921 2.90625,7.59375 l 1.875,-0.75 C 5.087072,6.7204524 4.899572,6.2517024 4.59375,6.375 z m 8.625,0 c -0.167266,0.084187 -0.229367,0.3762768 0,0.46875 l 1.875,0.75 c 0.306429,0.1235421 0.493322,-0.3454524 0.1875,-0.46875 l -1.875,-0.75 c -0.07645,-0.030824 -0.131745,-0.028062 -0.1875,0 z"
       id="lighthouse"
       style="fill:#ffffff;fill-opacity:1;stroke:none" />
</svg>
