<?xml version="1.0" encoding="UTF-8" standalone="no"?>
<!-- Created with Inkscape (http://www.inkscape.org/) -->

<svg
   xmlns:dc="http://purl.org/dc/elements/1.1/"
   xmlns:cc="http://creativecommons.org/ns#"
   xmlns:rdf="http://www.w3.org/1999/02/22-rdf-syntax-ns#"
   xmlns:svg="http://www.w3.org/2000/svg"
   xmlns="http://www.w3.org/2000/svg"
   version="1.1"
   width="100%"
   height="100%"
   viewBox="0 0 16 16"
   id="svg2">
  <metadata
     id="metadata8">
    <rdf:RDF>
      <cc:Work
         rdf:about="">
        <dc:format>image/svg+xml</dc:format>
        <dc:type
           rdf:resource="http://purl.org/dc/dcmitype/StillImage" />
        <dc:title></dc:title>
      </cc:Work>
    </rdf:RDF>
  </metadata>
  <defs
     id="defs6" />
  <rect
     width="16"
     height="16"
     rx="2"
     ry="2"
     x="0"
     y="0"
     id="canvas"
     style="fill:#1a1a1a;stroke:none" />
  <path
     d="M 3,3 C 2,3 2,5 3,5 l 2,0 -0.5,2 -3,0 c -0.97457627,0 -0.87288136,2 0,2 l 2.5,0 -1,4 2,0 1,-4 4,0 1,4 2,0 -1,-4 2.5,0 c 0.816379,0 0.850165,-2 0,-2 l -3,0 -0.5,-2 2,0 c 1,0 1,-2 0,-2 L 3,3 z M 7,5 9,5 9.5,7 6.5,7 7,5 z"
     id="table"
     style="fill:#ffffff;fill-opacity:1;stroke:none" />
</svg>
