<?xml version="1.0" encoding="UTF-8" standalone="no"?>
<!-- Created with Inkscape (http://www.inkscape.org/) -->

<svg
   xmlns:dc="http://purl.org/dc/elements/1.1/"
   xmlns:cc="http://creativecommons.org/ns#"
   xmlns:rdf="http://www.w3.org/1999/02/22-rdf-syntax-ns#"
   xmlns:svg="http://www.w3.org/2000/svg"
   xmlns="http://www.w3.org/2000/svg"
   version="1.1"
   width="100%"
   height="100%"
   viewBox="0 0 16 16"
   id="svg2">
  <metadata
     id="metadata8">
    <rdf:RDF>
      <cc:Work
         rdf:about="">
        <dc:format>image/svg+xml</dc:format>
        <dc:type
           rdf:resource="http://purl.org/dc/dcmitype/StillImage" />
        <dc:title></dc:title>
      </cc:Work>
    </rdf:RDF>
  </metadata>
  <defs
     id="defs6" />
  <rect
     width="16"
     height="16"
     rx="2"
     ry="2"
     x="0"
     y="0"
     id="canvas"
     style="fill:#1a1a1a;stroke:none" />
  <path
     d="M 4,3 C 2.6779661,3 2.6779661,4.5 4,4.5 l 8,0 C 13.33909,4.5 13.338983,3 12,3 L 4,3 z M 5,5 4.25,8 2,8 C 0.6779661,8 0.6779661,9.5 2,9.5 L 3.875,9.5 3,13 4.5,13 5.375,9.5 10.625,9.5 11.5,13 13,13 12.125,9.5 14,9.5 C 15.33909,9.5 15.338983,8 14,8 L 11.75,8 11,5 9.5,5 10.25,8 5.75,8 6.5,5 5,5 z"
     id="table"
     style="fill:#ffffff;fill-opacity:1;stroke:none" />
</svg>
