<?xml version="1.0" encoding="UTF-8" standalone="no"?>
<!-- Created with Inkscape (http://www.inkscape.org/) -->

<svg
   xmlns:dc="http://purl.org/dc/elements/1.1/"
   xmlns:cc="http://creativecommons.org/ns#"
   xmlns:rdf="http://www.w3.org/1999/02/22-rdf-syntax-ns#"
   xmlns:svg="http://www.w3.org/2000/svg"
   xmlns="http://www.w3.org/2000/svg"
   version="1.1"
   width="100%"
   height="100%"
   viewBox="0 0 16 16"
   id="svg2">
  <metadata
     id="metadata8">
    <rdf:RDF>
      <cc:Work
         rdf:about="">
        <dc:format>image/svg+xml</dc:format>
        <dc:type
           rdf:resource="http://purl.org/dc/dcmitype/StillImage" />
        <dc:title></dc:title>
      </cc:Work>
    </rdf:RDF>
  </metadata>
  <defs
     id="defs6" />
  <rect
     width="16"
     height="16"
     rx="2"
     ry="2"
     x="0"
     y="0"
     id="canvas"
     style="fill:#1a1a1a;stroke:none" />
  <path
     d="M 7,1 C 6,1 6,2 6,2 L 5,2 C 3,2 3,4 3,4 L 13,4 C 13,4 13,2 11,2 L 10,2 C 10,2 10,1 9,1 L 7,1 z m -4,4 0,7 c 0,1.496636 1.4247267,3 3,3 l 4,0 c 1.455425,0 3,-1.496636 3,-3 L 13,5 3,5 z M 5.875,6.8125 C 6.3125,6.8125 6.75,7.2180406 6.75,8 l 0,4 C 6.75,13.54836 5,13.54836 5,12 L 5,8 C 5,7.2180406 5.4375,6.8125 5.875,6.8125 z m 4.25,0 C 10.5625,6.8125 11,7.2180406 11,8 l 0,4 c 0,1.54836 -1.75,1.54836 -1.75,0 l 0,-4 c 0,-0.7819594 0.4375,-1.1875 0.875,-1.1875 z"
     id="waste-basket"
     style="fill:#ffffff;fill-opacity:1;stroke:none" />
</svg>
