<?xml version="1.0" encoding="UTF-8" standalone="no"?>
<!-- Created with Inkscape (http://www.inkscape.org/) -->

<svg
   xmlns:dc="http://purl.org/dc/elements/1.1/"
   xmlns:cc="http://creativecommons.org/ns#"
   xmlns:rdf="http://www.w3.org/1999/02/22-rdf-syntax-ns#"
   xmlns:svg="http://www.w3.org/2000/svg"
   xmlns="http://www.w3.org/2000/svg"
   version="1.1"
   width="100%"
   height="100%"
   viewBox="0 0 16 16"
   id="svg2">
  <metadata
     id="metadata8">
    <rdf:RDF>
      <cc:Work
         rdf:about="">
        <dc:format>image/svg+xml</dc:format>
        <dc:type
           rdf:resource="http://purl.org/dc/dcmitype/StillImage" />
        <dc:title></dc:title>
      </cc:Work>
    </rdf:RDF>
  </metadata>
  <defs
     id="defs6" />
  <rect
     width="16"
     height="16"
     x="0"
     y="0"
     id="canvas"
     style="fill:none;stroke:none;visibility:hidden" />
  <path
     d="M 6.5,1 C 4.9486964,1 4,2 4,2 L 4,9 C 4,9 5.0325904,8 6.5,8 7.9674096,8 8.5558686,8.6639006 9,9 9.4441314,9.3360994 9.984651,10 11.5,10 13.015349,10 14,9 14,9 L 14,2 C 14,2 12.991379,3 11.5,3 10.008621,3 9.467783,2.3957752 9,2 8.532217,1.6042248 8.0513036,1 6.5,1 z M 2,1.25 C 1.5,1.25 1,1.5 1,2 l 0,12 c 0,1 2,1 2,0 L 3,2 C 3,1.5 2.5,1.25 2,1.25 z"
     id="embassy"
     style="fill:#1a1a1a;fill-opacity:1;stroke:none" />
</svg>
