<?xml version="1.0" encoding="UTF-8" standalone="no"?>
<!-- Created with Inkscape (http://www.inkscape.org/) -->

<svg
   xmlns:dc="http://purl.org/dc/elements/1.1/"
   xmlns:cc="http://creativecommons.org/ns#"
   xmlns:rdf="http://www.w3.org/1999/02/22-rdf-syntax-ns#"
   xmlns:svg="http://www.w3.org/2000/svg"
   xmlns="http://www.w3.org/2000/svg"
   version="1.1"
   width="100%"
   height="100%"
   viewBox="0 0 16 16"
   id="svg2">
  <path
     d="M 8,2 2,4 14,4 8,2 z m -6,3 0,1 1,0 0,6 -1,0 -1,2 14,0 -1,-2 -1,0 0,-6 1,0 L 14,5 2,5 z M 6,6 7,7 7,12 5,12 5,7 6,6 z m 4,0 1,1 0,5 -2,0 0,-5 1,-1 z"
     id="path2988"
     style="fill:#1a1a1a;fill-opacity:1;stroke:none" />
</svg>
