<?xml version="1.0" encoding="UTF-8" standalone="no"?>
<!-- Created with Inkscape (http://www.inkscape.org/) -->

<svg
   xmlns:dc="http://purl.org/dc/elements/1.1/"
   xmlns:cc="http://creativecommons.org/ns#"
   xmlns:rdf="http://www.w3.org/1999/02/22-rdf-syntax-ns#"
   xmlns:svg="http://www.w3.org/2000/svg"
   xmlns="http://www.w3.org/2000/svg"
   version="1.1"
   width="16"
   height="16"
   id="svg2">
  <defs
     id="defs4" />
  <metadata
     id="metadata7">
    <rdf:RDF>
      <cc:Work
         rdf:about="">
        <dc:format>image/svg+xml</dc:format>
        <dc:type
           rdf:resource="http://purl.org/dc/dcmitype/StillImage" />
        <dc:title></dc:title>
        <dc:creator>
          <cc:Agent>
            <dc:title></dc:title>
          </cc:Agent>
        </dc:creator>
        <dc:rights>
          <cc:Agent>
            <dc:title />
          </cc:Agent>
        </dc:rights>
        <cc:license
           rdf:resource="http://creativecommons.org/licenses/publicdomain/" />
        <dc:contributor>
          <cc:Agent>
            <dc:title />
          </cc:Agent>
        </dc:contributor>
      </cc:Work>
      <cc:License
         rdf:about="http://creativecommons.org/licenses/publicdomain/">
        <cc:permits
           rdf:resource="http://creativecommons.org/ns#Reproduction" />
        <cc:permits
           rdf:resource="http://creativecommons.org/ns#Distribution" />
        <cc:permits
           rdf:resource="http://creativecommons.org/ns#DerivativeWorks" />
      </cc:License>
    </rdf:RDF>
  </metadata>
  <g
     transform="matrix(3.3110893,0,0,2.0827798,-20.090079,-8.8964905)"
     id="text2989"
     style="font-size:4.14989901px;font-style:normal;font-variant:normal;font-weight:500;font-stretch:normal;text-align:start;line-height:125%;letter-spacing:0px;word-spacing:0px;writing-mode:lr-tb;text-anchor:start;fill:#000000;fill-opacity:1;stroke:none;font-family:Roboto;-inkscape-font-specification:Roboto Medium" />
  <path
     d="m 8.03125,1.03125 c -3.8600709,0 -7,3.1399291 -7,7 0,3.860071 3.1399291,6.90625 7,6.90625 3.860071,0 6.90625,-3.046179 6.90625,-6.90625 0,-3.8600709 -3.046179,-7 -6.90625,-7 z m 0,0.9375 C 11.350881,1.96875 14,4.7116191 14,8.03125 14,11.350881 11.350881,14 8.03125,14 4.7116191,14 1.96875,11.350881 1.96875,8.03125 c 0,-3.3196309 2.7428691,-6.0625 6.0625,-6.0625 z M 4,5 4,6 8,8 12,6 12,5 4,5 z m 0,2 0,4 8,0 L 12,7 8,9 4,7 z"
     id="path2987"
     style="fill:#1a1a1a;fill-opacity:1;stroke:none" />
</svg>
