<?xml version="1.0" encoding="UTF-8" standalone="no"?>
<!-- Created with Inkscape (http://www.inkscape.org/) -->

<svg
   xmlns:dc="http://purl.org/dc/elements/1.1/"
   xmlns:cc="http://creativecommons.org/ns#"
   xmlns:rdf="http://www.w3.org/1999/02/22-rdf-syntax-ns#"
   xmlns:svg="http://www.w3.org/2000/svg"
   xmlns="http://www.w3.org/2000/svg"
   version="1.1"
   width="100%"
   height="100%"
   viewBox="0 0 16 16"
   id="svg2">
  <path
     d="m 4,2 0,9 -0.59375,0 C 2.60567,11 2,11.700012 2,12.5 2,13.299989 2.60567,14 3.40625,14 l 9.1875,0 C 13.39433,14 14,13.299989 14,12.5 14,11.700012 13.39433,11 12.59375,11 L 12,11 12,2 6,2 l 3,5 -3,5.5 6,0 0,-0.5 0.59375,0 C 12.808836,12 13,12.191989 13,12.5 13,12.808012 12.808836,13 12.59375,13 l -9.1875,0 C 3.191164,13 3,12.808012 3,12.5 3,12.191989 3.191164,12 3.40625,12 L 4,12 4,12.5 5,12.5 8,7 5,2 4,2 z"
     id="rect3765"
     style="fill:#1a1a1a;fill-opacity:1;stroke:none" />
</svg>
