<?xml version="1.0" encoding="UTF-8" standalone="no"?>
<!-- Created with Inkscape (http://www.inkscape.org/) -->

<svg
   xmlns:dc="http://purl.org/dc/elements/1.1/"
   xmlns:cc="http://creativecommons.org/ns#"
   xmlns:rdf="http://www.w3.org/1999/02/22-rdf-syntax-ns#"
   xmlns:svg="http://www.w3.org/2000/svg"
   xmlns="http://www.w3.org/2000/svg"
   xmlns:sodipodi="http://sodipodi.sourceforge.net/DTD/sodipodi-0.dtd"
   xmlns:inkscape="http://www.inkscape.org/namespaces/inkscape"
   version="1.1"
   width="14"
   height="14"
   viewBox="0 0 14 14"
   id="svg2"
   inkscape:version="0.91 r13725"
   sodipodi:docname="travel-agency-14.svg">
  <sodipodi:namedview
     pagecolor="#ffffff"
     bordercolor="#666666"
     borderopacity="1"
     objecttolerance="10"
     gridtolerance="10"
     guidetolerance="10"
     inkscape:pageopacity="0"
     inkscape:pageshadow="2"
     inkscape:window-width="1600"
     inkscape:window-height="848"
     id="namedview7"
     showgrid="false"
     inkscape:zoom="16.857143"
     inkscape:cx="1.1469879"
     inkscape:cy="1.938279"
     inkscape:window-x="-8"
     inkscape:window-y="-8"
     inkscape:window-maximized="1"
     inkscape:current-layer="svg2" />
  <metadata
     id="metadata8">
    <rdf:RDF>
      <cc:Work
         rdf:about="">
        <dc:format>image/svg+xml</dc:format>
        <dc:type
           rdf:resource="http://purl.org/dc/dcmitype/StillImage" />
        <dc:title></dc:title>
      </cc:Work>
    </rdf:RDF>
  </metadata>
  <defs
     id="defs6" />
  <rect
     width="14"
     height="14"
     x="0"
     y="0"
     id="canvas"
     style="fill:none;stroke:none;visibility:hidden" />
  <path
     id="path4449"
     style="fill:#000000;fill-opacity:1;fill-rule:evenodd;stroke:none;stroke-width:1px;stroke-linecap:butt;stroke-linejoin:miter;stroke-opacity:1"
     d="m 11.296875,5.7910156 c -0.01249,0.394628 -0.102759,0.7829088 -0.265625,1.1425782 L 14,8.5 14,6 Z M 14,1.5 10.712891,3.9238281 c 0.183448,0.2498025 0.327079,0.5265231 0.425781,0.8203125 L 14,4 Z M 11,0 9.5859375,2.9941406 c 0.2072647,0.098437 0.402552,0.2203279 0.5820315,0.3632813 L 13,0 Z M 9,0 7,0 7.5800781,2.7910156 c 0.2356284,-0.059683 0.477637,-0.090508 0.7207031,-0.091797 0.058677,0.00154 0.1172957,0.00479 0.1757813,0.00977 z M 5,0 3,0 6.40625,3.375 C 6.5216086,3.2821152 6.6436872,3.1979006 6.7714844,3.1230469 Z m 3.3,3.1998436 c -0.8977314,0.00107 -1.725966,0.4833989 -2.1699219,1.2636719 0.015317,0.01163 0.02606,0.028811 0.041016,0.041016 0.092154,0.074253 0.1724151,0.1519448 0.2460937,0.2460937 0.028915,0.036318 0.050751,0.07463 0.076172,0.1132813 0.1340761,0.2068472 0.234375,0.4332449 0.234375,0.6699219 l 0,0.1660156 0.2148437,0 c 0.636116,0 1.2851563,0.6673178 1.2851563,1.3339844 l 0,0.6660156 1.2871094,0 c 0.08963,0 0.1526482,0.025833 0.2324218,0.035156 C 10.406699,7.2668222 10.798923,6.508572 10.8,5.6998436 c 0,-1.3807119 -1.1192881,-2.5 -2.5,-2.5 z M 5.3571431,5.9999998 c -0.6428571,0 -1.285715,0.680649 -1.285715,1.3333333 l 0,0.6666667 3.857143,0 0,-0.6666667 c 0,-0.6666666 -0.649598,-1.3333333 -1.2857141,-1.3333333 z m 0.321428,0.8333333 0.6428569,0 c 0.552802,0 0.8035721,0.3996122 0.8035721,0.8333334 l 0,0.3333333 -2.25,0 0,-0.3333333 c 0,-0.4194702 0.196579,-0.8333334 0.803571,-0.8333334 z M 2.785714,14 C 1.981061,14 1.5,13.571033 1.5,12.666667 l 0,-3.3333339 c 0,-0.904366 0.413647,-1.3333333 1.285714,-1.3333333 l 6.428572,0 m 0,0 c 0.88555,0 1.285714,0.4569313 1.285714,1.3333333 l 0,3.3333339 C 10.5,13.501121 10.018938,14 9.214286,14 L 2.7857141,14 M 3.8574219,4.5 c -0.642857,0 -1.2851563,0.6813004 -1.2851563,1.3339844 l 0,0.6660156 -1.2871094,0 C 0.4130893,6.5 0,6.9296184 0,7.8339844 l 0,3.3320316 c 0,0.784793 0.3783799,1.191875 1,1.291015 l 0,-0.291015 0,-2.8320316 0,-0.5 C 1,7.9296184 1.4130893,7.5 2.2851563,7.5 l 0.4999999,0 0.5,0 0.2871094,0 0,-0.1660156 0,-0.5 c 0,-0.1115775 0.022278,-0.2243127 0.056641,-0.3339844 L 3.375,6.5 l 0,-0.3339844 c 0,-0.419471 0.1957424,-0.8320312 0.8027344,-0.8320312 l 0.6445312,0 c 0.2134102,0 0.3725824,0.067293 0.4960938,0.1660156 l 0.039063,0 0.5,0 0.2851562,0 0.2226563,0 C 6.1980885,4.9625029 5.670516,4.5 5.1425781,4.5 Z m 1.8203125,2.8339844 c -0.09966,0 -0.1715207,0.026369 -0.25,0.046875 -0.010928,0.039596 -0.025441,0.07738 -0.03125,0.1191406 l 1.203125,0 C 6.5928345,7.4579633 6.5765145,7.4205468 6.5644531,7.3808594 6.4878688,7.3596844 6.4159493,7.3339844 6.3222656,7.3339844 Z"
     inkscape:connector-curvature="0"
     sodipodi:nodetypes="cccccccccccccccccccccccccccccccscsscscccssccssssssccsscsssccssscsscssscccssccccsccssscccccsssccccss" />
</svg>
