<?xml version="1.0" encoding="UTF-8" standalone="no"?>
<!-- Created with Inkscape (http://www.inkscape.org/) -->

<svg
   xmlns:dc="http://purl.org/dc/elements/1.1/"
   xmlns:cc="http://creativecommons.org/ns#"
   xmlns:rdf="http://www.w3.org/1999/02/22-rdf-syntax-ns#"
   xmlns:svg="http://www.w3.org/2000/svg"
   xmlns="http://www.w3.org/2000/svg"
   version="1.1"
   width="100%"
   height="100%"
   viewBox="0 0 18 18"
   id="svg2">
  <metadata
     id="metadata8">
    <rdf:RDF>
      <cc:Work
         rdf:about="">
        <dc:format>image/svg+xml</dc:format>
        <dc:type
           rdf:resource="http://purl.org/dc/dcmitype/StillImage" />
        <dc:title></dc:title>
      </cc:Work>
    </rdf:RDF>
  </metadata>
  <defs
     id="defs6" />
  <rect
     width="18"
     height="18"
     rx="3"
     ry="3"
     x="0"
     y="0"
     id="shield"
     style="fill:#1a1a1a;stroke:none" />
  <path
       d="M 7,2 C 5,2 3,5 3,9 l 0,5.5 1,0 c 0,0.515625 0,1.5 1,1.5 1,0 1,-0.984375 1,-1.5 l 6,0 c 0,0.484375 0,1.5 1,1.5 1,0 1,-1.015625 1,-1.5 l 1,0 L 15,9 C 15,5 13,2 11,2 z m -1,2 6,0 c 0.527334,0 1,2 1,5 L 5,8.96875 C 5,6 5.503364,4 6,4 z m -1,7.25 3,0 0,1.5 -3,0 z m 5,0 3,0 0,1.5 -3,0 z"
       id="bus-station"
       style="fill:#ffffff;fill-opacity:1;stroke:none" />
</svg>
