<?xml version="1.0" encoding="UTF-8" standalone="no"?>
<!-- Created with Inkscape (http://www.inkscape.org/) -->

<svg
   xmlns:dc="http://purl.org/dc/elements/1.1/"
   xmlns:cc="http://creativecommons.org/ns#"
   xmlns:rdf="http://www.w3.org/1999/02/22-rdf-syntax-ns#"
   xmlns:svg="http://www.w3.org/2000/svg"
   xmlns="http://www.w3.org/2000/svg"
   version="1.1"
   width="100%"
   height="100%"
   viewBox="0 0 16 16"
   id="svg2">
  <rect
     width="16"
     height="16"
     rx="2"
     ry="2"
     x="0"
     y="4.7683716e-07"
     id="rect2985"
     style="fill:#1a1a1a;fill-opacity:1;stroke:none" />
  <path
     d="M 5,1 C 3,1 2,4 2,8 l 0,5.5 1,0 c 0,0.515625 0,1.5 1,1.5 1,0 1,-0.984375 1,-1.5 l 6,0 c 0,0.484375 0,1.5 1,1.5 1,0 1,-1.015625 1,-1.5 l 1,0 L 14,8 C 14,4 13,1 11,1 z m 0,2 6,0 c 0.527334,0 1,2 1,5 L 4,7.96875 C 4,5 4.5033641,3 5,3 z m -1,7.25 3,0 0,1.5 -3,0 z m 5,0 3,0 0,1.5 -3,0 z"
     id="path3"
     style="color:#000000;fill:#ffffff;fill-opacity:1" />
</svg>
