<?xml version="1.0" encoding="UTF-8" standalone="no"?>
<!-- Created with Inkscape (http://www.inkscape.org/) -->

<svg
   xmlns:dc="http://purl.org/dc/elements/1.1/"
   xmlns:cc="http://creativecommons.org/ns#"
   xmlns:rdf="http://www.w3.org/1999/02/22-rdf-syntax-ns#"
   xmlns:svg="http://www.w3.org/2000/svg"
   xmlns="http://www.w3.org/2000/svg"
   version="1.1"
   width="100%"
   height="100%"
   viewBox="0 0 16 16"
   id="svg2">
  <rect
     width="16"
     height="16"
     rx="2"
     ry="2"
     x="0"
     y="4.7683716e-07"
     id="rect2985"
     style="fill:#1a1a1a;fill-opacity:1;stroke:none" />
  <path
     d="M 8,1 C 1,1 1,7 1,8 l 0,5 3,0 -1,2 3,0 1,-2 2,0 1,2 3,0 -1,-2 3,0 0,-5 C 15,7 15,1 8,1 z m -3,2 6,0 2,2 0,5 c 0,0.576271 -0.389831,1 -1,1 L 4,11 C 3.4576271,11 3,10.576271 3,10 L 3,5 5,3 z M 6,4 C 5,4 4,5 4,6 l 0,2 8,0 0,-2 C 12,5 11,4 10,4 L 6,4 z M 4.75,8.75 C 4.3357864,8.75 4,9.0857864 4,9.5 4,9.9142136 4.3357864,10.25 4.75,10.25 5.1642136,10.25 5.5,9.9142136 5.5,9.5 5.5,9.0857864 5.1642136,8.75 4.75,8.75 z m 6.5,0 c -0.414213,0 -0.75,0.3357864 -0.75,0.75 0,0.4142136 0.335787,0.75 0.75,0.75 C 11.664213,10.25 12,9.9142136 12,9.5 12,9.0857864 11.664213,8.75 11.25,8.75 z"
     id="rect4041"
     style="fill:#ffffff;fill-opacity:1;stroke:none" />
</svg>
