<?xml version="1.0" encoding="UTF-8" standalone="no"?>
<!-- Created with Inkscape (http://www.inkscape.org/) -->

<svg
   xmlns:dc="http://purl.org/dc/elements/1.1/"
   xmlns:cc="http://creativecommons.org/ns#"
   xmlns:rdf="http://www.w3.org/1999/02/22-rdf-syntax-ns#"
   xmlns:svg="http://www.w3.org/2000/svg"
   xmlns="http://www.w3.org/2000/svg"
   version="1.1"
   width="100%"
   height="100%"
   viewBox="0 0 16 16"
   id="svg2">
  <rect
     width="16"
     height="16"
     rx="2"
     ry="2"
     x="0"
     y="0"
     id="rect2985"
     style="fill:#1a1a1a;fill-opacity:1;stroke:none" />
  <path
     d="M 4.96875,1 2,4 2,11 c -0.036589,0.575273 0.4772502,1.000467 1.03125,1 L 13,12 c 0.554,-4.67e-4 1,-0.400757 1,-1 L 14,4 11,1 4.96875,1 z M 6.03125,2 10,2 l 0,1 -3.96875,0 0,-1 z m -2,2 L 12,4 l 0,4 -7.96875,0 0,-4 z M 4.8125,9 A 1,1 0 0 1 4.84375,9 1,1 0 0 1 6,10 1,1 0 0 1 4,10 1,1 0 0 1 4.8125,9 z m 6.03125,0 A 1,1 0 0 1 12,10 1,1 0 0 1 10,10 1,1 0 0 1 10.84375,9 z M 3,13 l 0,1 -1,0 0,1 4,0 0,-2 -3,0 z m 7,0 0,2 4,0 0,-1 -1,0 0,-1 -3,0 z"
     id="rect3226"
     style="fill:#ffffff;fill-opacity:1;stroke:none" />
</svg>
