<?xml version="1.0" encoding="UTF-8" standalone="no"?>
<!-- Created with Inkscape (http://www.inkscape.org/) -->

<svg
   xmlns:dc="http://purl.org/dc/elements/1.1/"
   xmlns:cc="http://creativecommons.org/ns#"
   xmlns:rdf="http://www.w3.org/1999/02/22-rdf-syntax-ns#"
   xmlns:svg="http://www.w3.org/2000/svg"
   xmlns="http://www.w3.org/2000/svg"
   version="1.1"
   width="100%"
   height="100%"
   viewBox="0 0 16 16"
   id="svg2">
  <rect
     width="16"
     height="16"
     rx="2"
     ry="2"
     x="0"
     y="-9.5367432e-07"
     id="rect2985"
     style="fill:#1a1a1a;fill-opacity:1;stroke:none" />
    <path
       d="M 8.90625,3.96875 C 8.6169434,3.9697514 8.3125,3.9788136 8,4 L 8,8 7,8 7,4.125 C 6.2581477,4.2356134 5.5962743,4.3883117 5,4.59375 L 5,8 4,8 4,5 C 1.9049022,6.0363159 1,7.6603774 1,9 l 0,2 c 0,0.59322 0.4237288,1 1,1 l 12,0 c 0.576271,0 1,-0.423729 1,-1 L 15,9 C 15,7.4601562 13.82663,4.7206595 11,4.15625 L 11,8 10,8 10,4.03125 C 9.651728,3.9992037 9.2955317,3.9674026 8.90625,3.96875 z"
       id="path4964"
       style="fill:#ffffff;fill-opacity:1;stroke:none" />
</svg>
