<?xml version="1.0" encoding="UTF-8" standalone="no"?>
<!-- Created with Inkscape (http://www.inkscape.org/) -->

<svg
   xmlns:dc="http://purl.org/dc/elements/1.1/"
   xmlns:cc="http://creativecommons.org/ns#"
   xmlns:rdf="http://www.w3.org/1999/02/22-rdf-syntax-ns#"
   xmlns:svg="http://www.w3.org/2000/svg"
   xmlns="http://www.w3.org/2000/svg"
   version="1.1"
   width="100%"
   height="100%"
   viewBox="0 0 18 18"
   id="svg2">
  <metadata
     id="metadata8">
    <rdf:RDF>
      <cc:Work
         rdf:about="">
        <dc:format>image/svg+xml</dc:format>
        <dc:type
           rdf:resource="http://purl.org/dc/dcmitype/StillImage" />
        <dc:title></dc:title>
      </cc:Work>
    </rdf:RDF>
  </metadata>
  <defs
     id="defs6" />
  <rect
     width="18"
     height="18"
     rx="3"
     ry="3"
     x="0"
     y="0"
     id="shield"
     style="fill:#1a1a1a;stroke:none" />
  <path
       d="m 10,3.5 0,0.875 1.25,0.78125 0,1.09375 -4.25,0 0,-0.75 0.5,0 c 1,0 1,-1 0,-1 l -2,0 c -1,0 -1,1 0,1 L 6,5.5 6,6.25 5.0625,8 C 5.0416,7.9995343 5.02098,8 5,8 3.387717,8 2,9.3877166 2,11 2,12.612283 3.387717,14 5,14 6.612283,14 8,12.612283 8,11 8,10.654031 7.92843,10.313419 7.8125,10 L 8.25,10 C 9,10 9.172746,9.546004 9.4375,9.28125 L 11.21875,7.25 11.75,8.28125 C 10.727462,8.7659158 10,9.824875 10,11 c 0,1.612283 1.387717,3 3,3 1.612283,0 3,-1.387717 3,-3 C 16,9.3877166 14.612283,8 13,8 12.96853,8 12.93754,7.99895 12.90625,8 L 12,6.25 12,4.65625 10,3.5 z m -3.21875,3.75 3.125,0 L 8.34375,9 7.21875,9 C 7.20027,9 7.17516,9.00212 7.15625,9 6.892847,8.7170527 6.599522,8.4803791 6.25,8.3125 6.23775,8.29387 6.22991,8.268546 6.21875,8.25 l 0.5625,-1 z M 5,9 C 6.005711,9 7,9.9942895 7,11 7,12.005711 6.005711,13 5,13 3.994289,13 3,12.005711 3,11 3,9.9942895 3.994289,9 5,9 z m 8,0 c 1.00571,0 2,0.9942895 2,2 0,1.005711 -0.99429,2 -2,2 -1.005711,0 -2,-0.994289 -2,-2 0,-1.0057105 0.994289,-2 2,-2 z"
       id="bicycle"
       style="fill:#ffffff;stroke:none" />
</svg>
