<?xml version="1.0" encoding="UTF-8" standalone="no"?>
<!-- Created with Inkscape (http://www.inkscape.org/) -->

<svg
   xmlns:dc="http://purl.org/dc/elements/1.1/"
   xmlns:cc="http://creativecommons.org/ns#"
   xmlns:rdf="http://www.w3.org/1999/02/22-rdf-syntax-ns#"
   xmlns:svg="http://www.w3.org/2000/svg"
   xmlns="http://www.w3.org/2000/svg"
   version="1.1"
   width="100%"
   height="100%"
   viewBox="0 0 16 16"
   id="svg2">
  <metadata
     id="metadata8">
    <rdf:RDF>
      <cc:Work
         rdf:about="">
        <dc:format>image/svg+xml</dc:format>
        <dc:type
           rdf:resource="http://purl.org/dc/dcmitype/StillImage" />
        <dc:title></dc:title>
      </cc:Work>
    </rdf:RDF>
  </metadata>
  <defs
     id="defs6" />
  <rect
     width="16"
     height="16"
     rx="2"
     ry="2"
     x="0"
     y="0"
     id="canvas"
     style="fill:#1a1a1a;stroke:none" />
  <path
     d="M 9.5,3 9.5,4.125 11,4.75 11,6 6.25,6 6,6 6,5 7,5 C 8,5 8,4 7,4 L 4,4 C 3,4 3,5 4,5 L 5,5 5,6 4.0625,8 C 4.0411361,7.9995429 4.0214655,8 4,8 2.3505486,8 1,9.3505486 1,11 1,12.649451 2.3505486,14 4,14 5.6494514,14 7,12.649451 7,11 7,10.643761 6.928326,10.318189 6.8125,10 L 7.5,10 C 8,10 8.1875,9.53125 8.1875,9.53125 L 9.5,7 11.1875,7 11.625,8.03125 C 10.154077,8.222022 9,9.4804711 9,11 c 0,1.649451 1.350549,3 3,3 1.649451,0 3,-1.350549 3,-3 C 15,9.6931997 14.142735,8.5663746 12.96875,8.15625 L 12,6 12,4 9.5,3 z m -3.71875,4 2.5625,0 -1,2 -1.125,0 C 5.9404159,8.6916176 5.601153,8.4232128 5.21875,8.25 L 5.78125,7 z M 4,9.25 c 0.9739012,0 1.75,0.776099 1.75,1.75 0,0.973901 -0.7760988,1.75 -1.75,1.75 C 3.0260988,12.75 2.25,11.973901 2.25,11 2.25,10.026099 3.0260988,9.25 4,9.25 z m 8,0 c 0.973901,0 1.75,0.776099 1.75,1.75 0,0.973901 -0.776099,1.75 -1.75,1.75 -0.973901,0 -1.75,-0.776099 -1.75,-1.75 0,-0.973901 0.776099,-1.75 1.75,-1.75 z"
     id="bicycle"
     style="fill:#ffffff;stroke:none" />
</svg>
