<?xml version="1.0" encoding="UTF-8" standalone="no"?>
<!-- Created with Inkscape (http://www.inkscape.org/) -->

<svg
   xmlns:dc="http://purl.org/dc/elements/1.1/"
   xmlns:cc="http://creativecommons.org/ns#"
   xmlns:rdf="http://www.w3.org/1999/02/22-rdf-syntax-ns#"
   xmlns:svg="http://www.w3.org/2000/svg"
   xmlns="http://www.w3.org/2000/svg"
   version="1.1"
   width="100%"
   height="100%"
   viewBox="0 0 18 18"
   id="svg2">
  <metadata
     id="metadata8">
    <rdf:RDF>
      <cc:Work
         rdf:about="">
        <dc:format>image/svg+xml</dc:format>
        <dc:type
           rdf:resource="http://purl.org/dc/dcmitype/StillImage" />
        <dc:title></dc:title>
      </cc:Work>
    </rdf:RDF>
  </metadata>
  <defs
     id="defs6" />
  <rect
     width="18"
     height="18"
     rx="3"
     ry="3"
     x="0"
     y="0"
     id="shield"
     style="fill:#1a1a1a;stroke:none" />
  <path
       d="m 10,4 0,0.8125 1.25,0.6875 0,1.5 -4,0 L 7,7 7,6 7.5,6 c 1,0 1,-1 0,-1 l -2,0 c -1,0 -1,1 0,1 L 6,6 6,7 5.0625,9 C 5.04114,8.9995429 5.02146,9 5,9 3.350549,9 2,10.350549 2,12 2,13.649451 3.350549,15 5,15 6.649451,15 8,13.649451 8,12 8,11.643761 7.92833,11.318189 7.8125,11 L 8.25,11 C 9,11 9.172746,10.546004 9.4375,10.28125 L 11.21875,8 11.75,9.28125 C 10.721355,9.757635 10,10.794757 10,12 c 0,1.653039 1.346962,3 3,3 1.653039,0 3,-1.346961 3,-3 C 16,10.346961 14.653039,9 13,9 12.96773,9 12.93828,8.99898 12.90625,9 L 12,7 12,5 10,4 z m -3.21875,4 3.125,0 -1.5625,2 -1.125,0 C 6.940416,9.691618 6.601153,9.423213 6.21875,9.25 L 6.78125,8 z M 5,10.25 c 0.973901,0 1.75,0.776099 1.75,1.75 0,0.973901 -0.776099,1.75 -1.75,1.75 -0.973901,0 -1.75,-0.776099 -1.75,-1.75 0,-0.973901 0.776099,-1.75 1.75,-1.75 z m 8,0 c 0.976019,0 1.75,0.773981 1.75,1.75 0,0.976019 -0.773981,1.75 -1.75,1.75 -0.976019,0 -1.75,-0.773981 -1.75,-1.75 0,-0.976019 0.773981,-1.75 1.75,-1.75 z"
       id="bicycle"
       style="fill:#ffffff;stroke:none" />
</svg>
