<?xml version="1.0" encoding="UTF-8" standalone="no"?>
<!-- Created with Inkscape (http://www.inkscape.org/) -->

<svg
   xmlns:dc="http://purl.org/dc/elements/1.1/"
   xmlns:cc="http://creativecommons.org/ns#"
   xmlns:rdf="http://www.w3.org/1999/02/22-rdf-syntax-ns#"
   xmlns:svg="http://www.w3.org/2000/svg"
   xmlns="http://www.w3.org/2000/svg"
   version="1.1"
   width="100%"
   height="100%"
   viewBox="0 0 16 16"
   id="svg2">
  <metadata
     id="metadata8">
    <rdf:RDF>
      <cc:Work
         rdf:about="">
        <dc:format>image/svg+xml</dc:format>
        <dc:type
           rdf:resource="http://purl.org/dc/dcmitype/StillImage" />
        <dc:title></dc:title>
      </cc:Work>
    </rdf:RDF>
  </metadata>
  <defs
     id="defs6" />
  <rect
     width="16"
     height="16"
     rx="2"
     ry="2"
     x="0"
     y="0"
     id="canvas"
     style="fill:#1a1a1a;stroke:none" />
  <path
     d="M 3,1 C 1.4915254,1 1,2 1,3 1.02381,4 1.5423729,5 3,5 L 13,5 12,4 3,4 C 2,4 2,3 2,3 2,3 2,2 3,2 L 12,2 13,1 3,1 z m 0,1.75 0,0.5 9,0 0,-0.5 -9,0 z M 5,6 C 3.4915254,6 3,7 3,8 3.02381,9 3.5423729,10 5,10 L 15,10 14,9 5,9 C 4,9 4,8 4,8 4,8 4,7 5,7 L 14,7 15,6 5,6 z m 0,1.75 0,0.5 9,0 0,-0.5 -9,0 z M 3,11 c -1.5084746,0 -2,1 -2,2 0.02381,1 0.5423729,2 2,2 l 10,0 -1,-1 -9,0 C 2,14 2,13 2,13 2,13 2,12 3,12 l 9,0 1,-1 -10,0 z m 0,1.75 0,0.5 9,0 0,-0.5 -9,0 z"
     id="books"
     style="fill:#ffffff;fill-opacity:1;fill-rule:evenodd;stroke:none" />
</svg>
