<?xml version="1.0" encoding="UTF-8" standalone="no"?>
<!-- Created with Inkscape (http://www.inkscape.org/) -->

<svg
   xmlns:dc="http://purl.org/dc/elements/1.1/"
   xmlns:cc="http://creativecommons.org/ns#"
   xmlns:rdf="http://www.w3.org/1999/02/22-rdf-syntax-ns#"
   xmlns:svg="http://www.w3.org/2000/svg"
   xmlns="http://www.w3.org/2000/svg"
   version="1.1"
   width="100%"
   height="100%"
   viewBox="0 0 18 18"
   id="svg2">
  <metadata
     id="metadata8">
    <rdf:RDF>
      <cc:Work
         rdf:about="">
        <dc:format>image/svg+xml</dc:format>
        <dc:type
           rdf:resource="http://purl.org/dc/dcmitype/StillImage" />
        <dc:title></dc:title>
      </cc:Work>
    </rdf:RDF>
  </metadata>
  <defs
     id="defs6" />
  <rect
     width="18"
     height="18"
     rx="3"
     ry="3"
     x="0"
     y="0"
     id="shield"
     style="fill:#1a1a1a;stroke:none" />
  <path
       d="M 5,3 3.760303,7 C 3,7 2,7.4966359 2,9 l 0,4 2,0 0,1 c 0,0 0,1 1,1 1,0 1,-1 1,-1 L 6,13 12,12.96875 12,14 c 0,0 0,1 1,1 1,0 1,-1 1,-1 l 0,-1 2,0 0,-4 C 16,7.4726661 15,7 14,7 L 13,3 z m 1,1.5 6,0 L 12.6,7 5.3,7 z M 5,9 C 5.552285,9 6,9.447715 6,10 6,10.552285 5.552285,11 5,11 4.447715,11 4,10.552285 4,10 4,9.447715 4.447715,9 5,9 z m 8,0 c 0.552285,0 1,0.447715 1,1 0,0.552285 -0.447715,1 -1,1 -0.552285,0 -1,-0.447715 -1,-1 0,-0.552285 0.447715,-1 1,-1 z"
       id="car"
       style="fill:#ffffff;stroke:none" />
</svg>
