<?xml version="1.0" encoding="UTF-8" standalone="no"?>
<!-- Created with Inkscape (http://www.inkscape.org/) -->

<svg
   xmlns:dc="http://purl.org/dc/elements/1.1/"
   xmlns:cc="http://creativecommons.org/ns#"
   xmlns:rdf="http://www.w3.org/1999/02/22-rdf-syntax-ns#"
   xmlns:svg="http://www.w3.org/2000/svg"
   xmlns="http://www.w3.org/2000/svg"
   version="1.1"
   width="100%"
   height="100%"
   viewBox="0 0 16 16"
   id="svg2">
  <metadata
     id="metadata8">
    <rdf:RDF>
      <cc:Work
         rdf:about="">
        <dc:format>image/svg+xml</dc:format>
        <dc:type
           rdf:resource="http://purl.org/dc/dcmitype/StillImage" />
        <dc:title></dc:title>
      </cc:Work>
    </rdf:RDF>
  </metadata>
  <defs
     id="defs6" />
  <rect
     width="16"
     height="16"
     rx="2"
     ry="2"
     x="0"
     y="0"
     id="canvas"
     style="fill:#1a1a1a;stroke:none" />
  <path
     d="M 4,2 2.7603028,6 C 2,6 1,6.4966359 1,8 l 0,4 2,0 0,1 c 0,0 0,1 1,1 1,0 1,-1 1,-1 L 5,12 11,11.96875 11,13 c 0,0 0,1 1,1 1,0 1,-1 1,-1 l 0,-1 2,0 0,-4 C 15,6.4726661 14,6 13,6 L 12,2 z m 1,1.5 6,0 L 11.6,6 4.3,6 z M 4,8 C 4.5522847,8 5,8.4477153 5,9 5,9.552285 4.5522847,10 4,10 3.4477153,10 3,9.552285 3,9 3,8.4477153 3.4477153,8 4,8 z m 8,0 c 0.552285,0 1,0.4477153 1,1 0,0.552285 -0.447715,1 -1,1 -0.552285,0 -1,-0.447715 -1,-1 0,-0.5522847 0.447715,-1 1,-1 z"
     id="car"
     style="fill:#ffffff;stroke:none" />
</svg>
