<?xml version="1.0" encoding="UTF-8" standalone="no"?>
<!-- Created with Inkscape (http://www.inkscape.org/) -->

<svg
   xmlns:dc="http://purl.org/dc/elements/1.1/"
   xmlns:cc="http://creativecommons.org/ns#"
   xmlns:rdf="http://www.w3.org/1999/02/22-rdf-syntax-ns#"
   xmlns:svg="http://www.w3.org/2000/svg"
   xmlns="http://www.w3.org/2000/svg"
   version="1.1"
   width="100%"
   height="100%"
   viewBox="0 0 18 18"
   id="svg2">
  <metadata
     id="metadata8">
    <rdf:RDF>
      <cc:Work
         rdf:about="">
        <dc:format>image/svg+xml</dc:format>
        <dc:type
           rdf:resource="http://purl.org/dc/dcmitype/StillImage" />
        <dc:title></dc:title>
      </cc:Work>
    </rdf:RDF>
  </metadata>
  <defs
     id="defs6" />
  <rect
     width="18"
     height="18"
     rx="3"
     ry="3"
     x="0"
     y="0"
     id="shield"
     style="fill:#1a1a1a;stroke:none" />
  <path
       d="m 11,2 c -0.751192,0.4909181 -1.25,1.3481516 -1.25,2.3125 0,1.0641992 0.615654,1.9803063 1.5,2.4375 l 0,7.75 c 0,0.877754 0.521186,1.5 1.25,1.5 0.728813,0 1.25,-0.603432 1.25,-1.5 l 0,-7.75 C 14.634346,6.2928063 15.25,5.3766992 15.25,4.3125 15.25,3.3481516 14.751192,2.4909181 14,2 L 14,3.5 12.5,5 11,3.5 c 0,0 0,-1.5023227 0,-1.5 z M 6,2 C 5.447507,2 5,2.3804513 5,2.75 l -1.5,0 -1.25,1.75 1.25,1.75 1.5,0 0,8.5 C 5,15.434896 5.376848,16 6,16 6.623152,16 7,15.471763 7,14.75 l 0,-8.5 2,0 0,-3.5 -2,0 C 7,2.3724769 6.623152,2 6,2 z m 6.5,12 C 12.776142,14 13,14.223858 13,14.5 13,14.776142 12.776142,15 12.5,15 12.223857,15 12,14.776142 12,14.5 12,14.223858 12.223857,14 12.5,14 z"
       id="doityourself"
       style="fill:#ffffff;fill-opacity:1;stroke:none" />
</svg>
