<?xml version="1.0" encoding="UTF-8" standalone="no"?>
<!-- Created with Inkscape (http://www.inkscape.org/) -->

<svg
   xmlns:dc="http://purl.org/dc/elements/1.1/"
   xmlns:cc="http://creativecommons.org/ns#"
   xmlns:rdf="http://www.w3.org/1999/02/22-rdf-syntax-ns#"
   xmlns:svg="http://www.w3.org/2000/svg"
   xmlns="http://www.w3.org/2000/svg"
   version="1.1"
   width="100%"
   height="100%"
   viewBox="0 0 18 18"
   id="svg2">
  <metadata
     id="metadata8">
    <rdf:RDF>
      <cc:Work
         rdf:about="">
        <dc:format>image/svg+xml</dc:format>
        <dc:type
           rdf:resource="http://purl.org/dc/dcmitype/StillImage" />
        <dc:title></dc:title>
      </cc:Work>
    </rdf:RDF>
  </metadata>
  <defs
     id="defs6" />
  <rect
     width="18"
     height="18"
     rx="3"
     ry="3"
     x="0"
     y="0"
     id="canvas"
     style="fill:#1a1a1a;stroke:none" />
  <path
       d="M 6,2 C 5,2 5,2.6304513 5,3 l -3,0 0,4 3,0 0,8 c 0,0.377523 0,1 1,1 1,0 1,-0.703375 1,-1 L 7,7 10,7 10,3 7,3 C 7,2.6224769 7,2 6,2 z m 7,0 -1,2 1,1 0,4 -1,0 0,5.5 c 0,0.250875 0.01461,1.5 1.5,1.5 1.485387,0 1.5,-1.207313 1.5,-1.5 L 14.96875,9 14,9 14,5 15,4 14,2 z"
       id="doityourself"
       style="fill:#ffffff;fill-opacity:1;stroke:none" />
</svg>
