<?xml version="1.0" encoding="UTF-8" standalone="no"?>
<!-- Created with Inkscape (http://www.inkscape.org/) -->

<svg
   xmlns:dc="http://purl.org/dc/elements/1.1/"
   xmlns:cc="http://creativecommons.org/ns#"
   xmlns:rdf="http://www.w3.org/1999/02/22-rdf-syntax-ns#"
   xmlns:svg="http://www.w3.org/2000/svg"
   xmlns="http://www.w3.org/2000/svg"
   version="1.1"
   width="100%"
   height="100%"
   viewBox="0 0 18 18"
   id="svg2">
  <metadata
     id="metadata8">
    <rdf:RDF>
      <cc:Work
         rdf:about="">
        <dc:format>image/svg+xml</dc:format>
        <dc:type
           rdf:resource="http://purl.org/dc/dcmitype/StillImage" />
        <dc:title></dc:title>
      </cc:Work>
    </rdf:RDF>
  </metadata>
  <defs
     id="defs6" />
  <rect
     width="18"
     height="18"
     rx="3"
     ry="3"
     x="0"
     y="0"
     id="shield"
     style="fill:#1a1a1a;stroke:none" />
  <path
       d="M 11.375,2.03125 C 11.228609,2.0143576 11.069653,2.0553473 10.9375,2.1875 L 8.03125,5.125 6.125,3.1875 C 5.913054,2.9017344 5.437513,2.8725487 5.1875,3.125 4.937487,3.3774513 4.966994,3.8484875 5.25,4.0625 L 7.15625,6 4,6 C 3,6 2,7 2,8 l 0,6 c 0,1 1,2 2,2 l 10,0 c 1,0 2,-1 2,-2 L 16,8 C 16,7 15,6 14,6 L 8.90625,6 11.8125,3.0625 C 12.20002,2.6749802 11.814172,2.0819271 11.375,2.03125 z M 8,8 c 3,0 4,0 4,3 0,3 -1,3 -4,3 C 5,14 4,14 4,11 4,8 5,8 8,8 z m 6,0.125 c 0.483249,0 0.875,0.3917508 0.875,0.875 0,0.4832492 -0.391751,0.875 -0.875,0.875 -0.483249,0 -0.875,-0.3917508 -0.875,-0.875 0,-0.4832492 0.391751,-0.875 0.875,-0.875 z m 0,3 c 0.483249,0 0.875,0.391751 0.875,0.875 0,0.483249 -0.391751,0.875 -0.875,0.875 -0.483249,0 -0.875,-0.391751 -0.875,-0.875 0,-0.483249 0.391751,-0.875 0.875,-0.875 z"
       id="icon"
       style="fill:#ffffff;fill-opacity:1;stroke:none" />
</svg>
