<?xml version="1.0" encoding="UTF-8" standalone="no"?>
<!-- Created with Inkscape (http://www.inkscape.org/) -->

<svg
   xmlns:dc="http://purl.org/dc/elements/1.1/"
   xmlns:cc="http://creativecommons.org/ns#"
   xmlns:rdf="http://www.w3.org/1999/02/22-rdf-syntax-ns#"
   xmlns:svg="http://www.w3.org/2000/svg"
   xmlns="http://www.w3.org/2000/svg"
   version="1.1"
   width="100%"
   height="100%"
   viewBox="0 0 18 18"
   id="svg2">
  <metadata
     id="metadata8">
    <rdf:RDF>
      <cc:Work
         rdf:about="">
        <dc:format>image/svg+xml</dc:format>
        <dc:type
           rdf:resource="http://purl.org/dc/dcmitype/StillImage" />
        <dc:title></dc:title>
      </cc:Work>
    </rdf:RDF>
  </metadata>
  <defs
     id="defs6" />
  <rect
     width="18"
     height="18"
     rx="3"
     ry="3"
     x="0"
     y="0"
     id="shield"
     style="fill:#1a1a1a;stroke:none" />
  <path
       d="M 6.375,2.5 C 5.5,2.5 4.625,3.1125001 4.625,4.25 4.625,5.386625 5.144625,6 6.28125,6 l 2.5625,0 0.25,0 2.5625,0 C 12.792,6 13.375,5.4169999 13.375,4.28125 13.374125,3.14375 12.499999,2.5 11.625,2.5 10.2985,2.5 9.333375,3.3032501 9,4.46875 8.66575,3.3032501 7.730375,2.5 6.375,2.5 z m 0,0.875 c 1.416625,0 1.656375,1.120875 1.75,1.75 l -1.75,0 C 5.455375,5.125 5.5,4.287625 5.5,4.25 5.5,4.212375 5.45538,3.375 6.375,3.375 z m 5.25,0 c 0.874999,0 0.875,0.837375 0.875,0.875 0,0.037625 0.04462,0.875 -0.875,0.875 l -1.75,0 c 0.09363,-0.629125 0.331625,-1.75 1.75,-1.75 z M 6,7 C 5,7 4,8 4,9 l 0,1.75 4.25,0 L 8.25,7 6,7 z m 3.75,0 0,3.75 4.25,0 L 14,9 C 14,8 13,7 12,7 L 9.75,7 z M 4,12.25 4,14 c 0,1 1,2 2,2 l 2.25,0 0,-3.75 -4.25,0 z m 5.75,0 0,3.75 2.25,0 c 1,0 2,-1 2,-2 l 0,-1.75 -4.25,0 z"
       id="gift"
       style="fill:#ffffff;fill-opacity:1;stroke:none" />
</svg>
