<?xml version="1.0" encoding="UTF-8" standalone="no"?>
<!-- Created with Inkscape (http://www.inkscape.org/) -->

<svg
   xmlns:dc="http://purl.org/dc/elements/1.1/"
   xmlns:cc="http://creativecommons.org/ns#"
   xmlns:rdf="http://www.w3.org/1999/02/22-rdf-syntax-ns#"
   xmlns:svg="http://www.w3.org/2000/svg"
   xmlns="http://www.w3.org/2000/svg"
   version="1.1"
   width="100%"
   height="100%"
   viewBox="0 0 18 18"
   id="svg2">
  <metadata
     id="metadata8">
    <rdf:RDF>
      <cc:Work
         rdf:about="">
        <dc:format>image/svg+xml</dc:format>
        <dc:type
           rdf:resource="http://purl.org/dc/dcmitype/StillImage" />
        <dc:title></dc:title>
      </cc:Work>
    </rdf:RDF>
  </metadata>
  <defs
     id="defs6" />
  <rect
     width="18"
     height="18"
     rx="3"
     ry="3"
     x="0"
     y="0"
     id="shield"
     style="fill:#1a1a1a;stroke:none" />
  <path
       d="M 7.5,2 6,4 12,4 10.5,2 7.5,2 z M 6,5 9,7.75 12,5 6,5 z M 5.875,7.125 C 4.759417,8.0534398 4,9.4541458 4,11 c 0,2.748185 2.339655,5.03125 4.96875,5.03125 2.629095,0 4.96875,-2.283065 4.96875,-5.03125 0,-1.5342062 -0.742208,-2.9152829 -1.84375,-3.84375 l -1.125,1.03125 c 0.920538,0.6728387 1.5625,1.7640005 1.5625,2.8125 0,1.711475 -1.731935,3.46875 -3.5625,3.46875 C 7.138185,14.46875 5.4375,12.711475 5.4375,11 5.4375,9.9440018 6.100177,8.8593852 7.03125,8.1875 L 5.875,7.125 z"
       id="jewellery"
       style="fill:#ffffff;stroke:none" />
</svg>
