<?xml version="1.0" encoding="UTF-8" standalone="no"?>
<!-- Created with Inkscape (http://www.inkscape.org/) -->

<svg
   xmlns:dc="http://purl.org/dc/elements/1.1/"
   xmlns:cc="http://creativecommons.org/ns#"
   xmlns:rdf="http://www.w3.org/1999/02/22-rdf-syntax-ns#"
   xmlns:svg="http://www.w3.org/2000/svg"
   xmlns="http://www.w3.org/2000/svg"
   version="1.1"
   width="100%"
   height="100%"
   viewBox="0 0 18 18"
   id="svg2">
  <metadata
     id="metadata8">
    <rdf:RDF>
      <cc:Work
         rdf:about="">
        <dc:format>image/svg+xml</dc:format>
        <dc:type
           rdf:resource="http://purl.org/dc/dcmitype/StillImage" />
        <dc:title></dc:title>
      </cc:Work>
    </rdf:RDF>
  </metadata>
  <defs
     id="defs6" />
  <rect
     width="18"
     height="18"
     rx="3"
     ry="3"
     x="0"
     y="0"
     id="shield"
     style="fill:#1a1a1a;stroke:none" />
  <path
       d="M 7,5 2,8 c 0,2 0.25,5 1.25,5 L 7,13 C 8,13 8.25,9.5 8.25,9.5 8.76702,9.25 9.23298,9.25 9.75,9.5 9.75,9.5 10,13 11,13 l 3.75,0 C 15.75,13 16,10 16,8 L 11,5 C 10.521411,4.7236864 10.12726,5.746123 11,6.25 L 14,8 4,8 7,6.25 C 7.922502,5.7173932 7.364967,4.789286 7,5 z m -3.75,4.25 3.75,0 -0.5,2.5 -2.75,0 z m 7.75,0 3.75,0 -0.5,2.5 -2.75,0 z"
       id="optician"
       style="fill:#ffffff;fill-opacity:1;stroke:none" />
</svg>
