<?xml version="1.0" encoding="UTF-8" standalone="no"?>
<!-- Created with Inkscape (http://www.inkscape.org/) -->

<svg
   xmlns:dc="http://purl.org/dc/elements/1.1/"
   xmlns:cc="http://creativecommons.org/ns#"
   xmlns:rdf="http://www.w3.org/1999/02/22-rdf-syntax-ns#"
   xmlns:svg="http://www.w3.org/2000/svg"
   xmlns="http://www.w3.org/2000/svg"
   version="1.1"
   width="100%"
   height="100%"
   viewBox="0 0 18 18"
   id="svg2">
  <metadata
     id="metadata8">
    <rdf:RDF>
      <cc:Work
         rdf:about="">
        <dc:format>image/svg+xml</dc:format>
        <dc:type
           rdf:resource="http://purl.org/dc/dcmitype/StillImage" />
        <dc:title></dc:title>
      </cc:Work>
    </rdf:RDF>
  </metadata>
  <defs
     id="defs6" />
  <rect
     width="18"
     height="18"
     rx="3"
     ry="3"
     x="0"
     y="0"
     id="shield"
     style="fill:#1a1a1a;stroke:none" />
  <path
       d="M 2.75,2 C 2.375,2 2,2.25 2,2.75 l 0,5.75 0,1 0,6.5 1.5,0 0,-2 9,0 0,2 1.5,0 0,-2 1.25,0 c 1,0 1,-1.25 0,-1.25 l -11.75,0 0,-3.25 0,-1 0,-0.5 11.75,0 c 1,0 0.999774,-1.2712718 0,-1.25 l -11.75,0 0,-4 C 3.5,2.25 3.125,2 2.75,2 z M 6,3 C 5.171573,3 4.5,3.671573 4.5,4.5 4.5,5.328427 5.171573,6 6,6 6.828427,6 7.5,5.328427 7.5,4.5 7.5,3.671573 6.828427,3 6,3 z m 2,0 0,3 8,0 0,-1.5 C 16,3.4560772 14.963825,3 14,3 z M 6,9 C 5.171573,9 4.5,9.671573 4.5,10.5 4.5,11.328427 5.171573,12 6,12 6.828427,12 7.5,11.328427 7.5,10.5 7.5,9.671573 6.828427,9 6,9 z m 2,0 0,3 8,0 0,-1.5 C 16,9.4560772 14.963825,9 14,9 z"
       id="hostel"
       style="fill:#ffffff;fill-opacity:1;stroke:none" />
</svg>
