<?xml version="1.0" encoding="UTF-8" standalone="no"?>
<!-- Created with Inkscape (http://www.inkscape.org/) -->

<svg
   xmlns:dc="http://purl.org/dc/elements/1.1/"
   xmlns:cc="http://creativecommons.org/ns#"
   xmlns:rdf="http://www.w3.org/1999/02/22-rdf-syntax-ns#"
   xmlns:svg="http://www.w3.org/2000/svg"
   xmlns="http://www.w3.org/2000/svg"
   version="1.1"
   width="100%"
   height="100%"
   viewBox="0 0 18 18"
   id="svg2">
  <metadata
     id="metadata8">
    <rdf:RDF>
      <cc:Work
         rdf:about="">
        <dc:format>image/svg+xml</dc:format>
        <dc:type
           rdf:resource="http://purl.org/dc/dcmitype/StillImage" />
        <dc:title></dc:title>
      </cc:Work>
    </rdf:RDF>
  </metadata>
  <defs
     id="defs6" />
  <rect
     width="18"
     height="18"
     rx="3"
     ry="3"
     x="0"
     y="0"
     id="shield"
     style="fill:#1a1a1a;stroke:none" />
  <path
       d="M 5.5,2 C 4.671573,2 4,2.671573 4,3.5 4,4.328427 4.671573,5 5.5,5 6.328427,5 7,4.328427 7,3.5 7,2.671573 6.328427,2 5.5,2 z m 2,1 0,2 7,0 c 0.02355,-1 -1.036175,-2 -2,-2 z m -4,3 c 0,0.494613 0.434728,1 1,1 l 9,0 c 0.541719,0 1,-0.410705 1,-1 z M 6,8 5,11 c -0.472666,0 -1,0.384295 -1,1 l 0,3 1,0 c 0,0 0,1 1,1 1,0 1,-1 1,-1 l 4,0 c 0,0 0,1 1,1 1,0 1,-1 1,-1 l 1,0 0,-3 c 0,-0.520606 -0.455425,-1 -1,-1 L 12,8 z m 1,1 4,0 0.625,2 -5.25,0 z m -1,3.25 c 0.414214,0 0.75,0.335786 0.75,0.75 0,0.414214 -0.335786,0.75 -0.75,0.75 -0.414214,0 -0.75,-0.335786 -0.75,-0.75 0,-0.414214 0.335786,-0.75 0.75,-0.75 z m 6,0 c 0.414214,0 0.75,0.335786 0.75,0.75 0,0.414214 -0.335786,0.75 -0.75,0.75 -0.414214,0 -0.75,-0.335786 -0.75,-0.75 0,-0.414214 0.335786,-0.75 0.75,-0.75 z"
       id="motel"
       style="fill:#ffffff;stroke:none" />
</svg>
